<?xml version="1.0" encoding="utf-8"?>
<!-- Generator: Adobe Illustrator 16.0.0, SVG Export Plug-In . SVG Version: 6.00 Build 0)  -->
<!DOCTYPE svg PUBLIC "-//W3C//DTD SVG 1.1//EN" "http://www.w3.org/Graphics/SVG/1.1/DTD/svg11.dtd">
<svg version="1.1" id="Layer_1" xmlns="http://www.w3.org/2000/svg" xmlns:xlink="http://www.w3.org/1999/xlink" x="0px" y="0px"
	 width="256px" height="256px" viewBox="0 0 256 256" enable-background="new 0 0 256 256" xml:space="preserve">
<g>
	<path fill-rule="evenodd" clip-rule="evenodd" d="M129.906,202.945c0.091,11.236-8.681,20.128-20.074,20.348
		c-11.316,0.218-20.463-8.895-20.497-20.422c-0.033-11.089,8.731-20.268,19.556-20.479
		C120.398,182.166,129.812,191.374,129.906,202.945z M120.496,202.817c-0.081-5.751-5.167-10.816-10.811-10.767
		c-5.994,0.053-11.04,5.271-10.84,11.214c0.19,5.705,5.026,10.49,10.578,10.466C115.549,213.703,120.58,208.746,120.496,202.817z"/>
	<path fill-rule="evenodd" clip-rule="evenodd" d="M235.561,202.84c0.05,11.404-9.099,20.582-20.498,20.566
		c-11.294-0.016-20.615-9.371-20.553-20.625c0.059-10.847,9.395-20.428,19.851-20.375
		C226.273,182.467,235.513,191.371,235.561,202.84z M215.114,213.861c6.077-0.07,10.934-4.932,10.967-10.979
		c0.034-5.884-5.195-10.96-11.161-10.831c-6.195,0.134-10.666,4.92-10.51,11.246C204.561,209.352,209.199,213.93,215.114,213.861z"
		/>
</g>
<g>
	<path fill-rule="evenodd" clip-rule="evenodd" d="M15.375,224.454c21.107,2.151,42.179,5.084,63.339,6.02
		c7.287,0.321,9.302-7.682,9.291-14.682c-0.033-19.044-0.006-38.095-0.004-57.141c0.004-38.902,0.028-77.803,0.002-116.704
		c-0.011-13.899-5.159-18.525-18.739-16.892c-15.442,1.858-30.876,3.772-46.306,5.741c-2.523,0.322-4.995,1.053-7.491,1.595
		c-0.105,0.854-0.209,1.707-0.314,2.561c2.278,0.641,4.549,1.806,6.836,1.837c13.411,0.176,26.827,0.137,40.24,0.063
		c5.521-0.031,10.841,0.624,10.818,7.597c-0.021,6.515-5.089,7.248-10.319,7.231c-14.487-0.045-28.976,0.109-43.461-0.04
		C7.113,51.515,1.482,46.408,0.657,35.266c-0.751-10.16,4.667-16.858,15.932-18.436c18.056-2.53,36.157-4.793,54.286-6.73
		c18.477-1.973,31.811,10.485,31.862,29.675c0.118,44.535,0.031,89.068,0.029,133.605c-0.001,14.487,0.125,28.976-0.041,43.46
		c-0.219,19.13-13.537,30.979-32.467,28.835c-17.851-2.021-35.701-4.11-53.492-6.597c-12.167-1.699-17.66-9.295-15.839-20.693
		c1.393-8.719,6.01-13.673,14.962-13.943c16.349-0.495,32.735-0.548,49.074,0.058c2.823,0.105,7.22,3.987,7.853,6.807
		c1.127,5.024-2.929,7.607-7.948,7.631c-14.218,0.063-28.438-0.062-42.655,0.103c-2.359,0.024-4.706,1.121-7.058,1.728
		C15.227,221.994,15.301,223.225,15.375,224.454z"/>
	<path fill-rule="evenodd" clip-rule="evenodd" d="M1.895,67.398c3.424-0.563,5.982-1.334,8.545-1.349
		c17.661-0.1,35.323-0.008,52.984-0.056c5.445-0.016,9.893,1.339,9.664,7.813c-0.213,6.049-4.649,6.999-9.67,6.981
		c-17.929-0.063-35.862,0.167-53.782-0.248C6.77,80.474,3.11,78.29,1.42,75.934C0.194,74.226,1.615,70.619,1.895,67.398z"/>
	<path fill-rule="evenodd" clip-rule="evenodd" d="M71.837,95.377c0.323,2.264,1.646,5.193,0.788,7.181
		c-0.971,2.248-3.871,5.145-5.981,5.187c-19.791,0.386-39.597,0.443-59.382-0.081c-2.26-0.061-6.012-4.15-6.162-6.553
		c-0.148-2.385,3.322-7.131,5.304-7.183c20.309-0.546,40.638-0.371,60.961-0.29C68.594,93.644,69.82,94.564,71.837,95.377z"/>
	<path fill-rule="evenodd" clip-rule="evenodd" d="M1.672,122.283c3.387-0.664,5.923-1.573,8.467-1.591
		c17.923-0.133,35.847-0.062,53.772-0.097c5.165-0.012,9.226,1.513,9.177,7.493c-0.048,6.021-4.223,7.324-9.343,7.315
		c-17.923-0.036-35.852,0.194-53.769-0.187c-2.927-0.061-6.627-2.049-8.424-4.354C0.258,129.202,1.525,125.539,1.672,122.283z"/>
	<path fill-rule="evenodd" clip-rule="evenodd" d="M71.795,149.921c0.342,2.267,1.686,5.183,0.844,7.177
		c-0.953,2.26-3.833,5.204-5.931,5.247c-19.786,0.411-39.588,0.482-59.368-0.021c-2.276-0.057-6.044-4.108-6.216-6.516
		c-0.17-2.383,3.275-7.181,5.237-7.23c20.303-0.565,40.627-0.406,60.944-0.345C68.539,148.239,69.77,149.133,71.795,149.921z"/>
	<path fill-rule="evenodd" clip-rule="evenodd" d="M72.29,177.172c0.084,3.025,1.209,6.482-0.037,8.386
		c-1.44,2.198-4.93,4.146-7.604,4.249c-11.757,0.454-23.541,0.206-35.315,0.206c-6.957-0.002-14.025,0.688-20.82-0.363
		c-2.905-0.448-5.248-4.548-7.844-6.989c2.578-2.46,5.09-6.966,7.745-7.053c18.979-0.607,37.987-0.365,56.986-0.239
		C67.411,175.383,69.415,176.39,72.29,177.172z"/>
</g>
<path fill-rule="evenodd" clip-rule="evenodd" d="M254.268,193.265c-4.911-19.925-24.702-33.152-44.996-29.736
	c-3.837,0.646-5.545-0.395-7.234-3.715c-6.878-13.527-13.97-26.949-21.18-40.304c-1.642-3.042-1.875-5.704-0.853-9
	c9.53-30.69,18.914-61.426,28.325-92.153c0.397-1.299,1.11-2.743,0.854-3.942c-0.342-1.588-1.172-3.794-2.382-4.288
	c-1.477-0.602-3.776-0.111-5.32,0.685c-1.157,0.596-1.777,2.37-2.475,3.705c-11.332,21.672-22.634,43.359-33.957,65.036
	c-0.719,1.376-1.558,2.69-2.635,4.539c-1.199-2.216-2.004-3.667-2.778-5.136c-11.259-21.369-22.513-42.74-33.773-64.108
	c-0.566-1.075-0.919-2.578-1.823-3.092c-1.679-0.958-4.21-2.336-5.435-1.702c-1.552,0.805-2.416,3.356-3.052,5.324
	c-0.309,0.951,0.567,2.292,0.926,3.452c9.491,30.703,18.954,61.414,28.523,92.092c0.963,3.091,0.868,5.625-0.748,8.576
	c-6.56,11.98-12.82,24.124-19.208,36.199c-1.479,2.798-3.017,5.563-4.538,8.366c-1.895-0.26-3.54-0.446-5.173-0.713
	c-1.917-0.313-3.825-0.457-5.716-0.471v9.943c3.041-0.059,6.144,0.296,9.219,1.122c5.942,1.599,6.875,1.205,9.702-4.205
	c17.617-33.727,35.228-67.457,52.848-101.183c0.759-1.451,1.584-2.868,2.377-4.301c0.236,0.096,0.47,0.192,0.705,0.288
	c-4.862,15.518-9.773,31.021-14.577,46.558c-10.134,32.776-20.188,65.574-30.319,98.35c-4.62,14.948-16.453,24.085-29.955,23.935
	V243c17.049-0.077,32.885-11.367,37.863-27.108c1.695-5.355,3.34-10.728,5.022-16.086c3.159-10.056,6.329-20.109,9.908-31.474
	c0.947,2.798,1.479,4.291,1.962,5.799c4.814,15.026,8.804,30.381,14.63,45.003c7.909,19.845,29.351,28.485,49.996,21.471
	C247.928,234.176,259.163,213.124,254.268,193.265z M152.416,102.147c-3.981-12.471-7.912-24.776-11.842-37.082
	c0.222-0.118,0.444-0.237,0.666-0.355c1.693,3.125,3.416,6.236,5.074,9.38c2.473,4.69,4.538,9.644,7.443,14.045
	C157.068,93.154,157.239,97.505,152.416,102.147z M232.006,228.601c-16.658,9.049-30.469,4.526-38.711-4.61
	c-3.439-3.813-6.132-8.769-7.752-13.672c-6.088-18.413-11.616-37.013-17.275-55.566c-0.46-1.51-0.765-3.328-0.368-4.793
	c1.849-6.825,3.97-13.577,6.416-21.769c6.128,11.603,11.646,22.037,17.15,32.479c1.699,3.223,3.492,6.404,5.017,9.71
	c1.959,4.246,4.754,5.228,9.209,3.648c11.443-4.058,22.018-2.548,31.535,5.46C252.863,192.647,249.986,218.832,232.006,228.601z"/>
</svg>
