<?xml version="1.0" encoding="utf-8"?>
<!-- Generator: Adobe Illustrator 16.0.0, SVG Export Plug-In . SVG Version: 6.00 Build 0)  -->
<!DOCTYPE svg PUBLIC "-//W3C//DTD SVG 1.1//EN" "http://www.w3.org/Graphics/SVG/1.1/DTD/svg11.dtd">
<svg version="1.1" id="Layer_1" xmlns="http://www.w3.org/2000/svg" xmlns:xlink="http://www.w3.org/1999/xlink" x="0px" y="0px"
	 width="400px" height="400px" viewBox="0 0 400 400" enable-background="new 0 0 400 400" xml:space="preserve">
<path d="M292.688,155.878c0.421-2.442,0.784-4.897,1.063-7.368c2.503-22.18-1.352-43.606-10.093-64.003
	c-9.699-22.636-24.57-41.369-44.539-55.952c-24.741-18.068-52.514-26.447-78.873-26.211C131.9,3.253,109.37,9.674,88.82,22.548
	c-30.032,18.816-49.972,45.289-59.507,79.449c-6.058,21.7-6.445,43.437-0.4,65.312c6.543,23.681,16.32,46.036,27.092,67.988
	c15.471,31.532,32.74,62.094,51.229,91.938c14.078,22.723,28.689,45.119,43.189,67.578c4.849,7.509,13.075,7.421,18.114,0.059
	c1.657-2.42,3.235-4.896,4.861-7.341c3.153-4.741,10.103-14.261,13.903-19.881c19.819,14.467,44.216,23.02,70.577,23.02
	c66.153,0,119.973-53.819,119.973-119.973C377.851,216.645,341.918,170.833,292.688,155.878z M162.139,367.827
	c-0.765,1.155-1.558,2.291-2.757,4.049c-6.68-10.354-13.042-20.071-19.258-29.881c-23.213-36.636-45.192-73.985-64.538-112.824
	c-10.658-21.397-20.284-43.234-26.865-66.323c-6.019-21.117-4.899-41.934,2.192-62.464c9.628-27.876,27.554-49.052,53.235-63.438
	c18.818-10.54,39.186-15.206,60.766-14.108c29.117,1.481,54.208,12.517,74.981,32.841c18.271,17.876,29.083,39.711,33.144,65.03
	c1.701,10.604,1.298,20.862-0.422,30.918c-4.831-0.595-9.749-0.906-14.739-0.906c-66.154,0-119.974,53.821-119.974,119.974
	c0,32.441,12.948,61.912,33.942,83.527C168.317,359.158,163.267,366.124,162.139,367.827z M257.878,365.847
	c-52.467,0-95.151-42.685-95.151-95.15c0-52.469,42.684-95.152,95.151-95.152s95.15,42.684,95.15,95.152
	C353.028,323.162,310.345,365.847,257.878,365.847z"/>
<g>
	<path d="M270.938,211.967v50.505h48.42v21.776h-48.42v50.968h-22.703v-50.968h-48.42v-21.776h48.42v-50.505H270.938z"/>
</g>
<g>
	<path d="M156.939,159.951c-23.854,0-43.26-19.406-43.26-43.26s19.407-43.26,43.26-43.26c23.854,0,43.26,19.407,43.26,43.26
		S180.793,159.951,156.939,159.951z M156.939,91.888c-13.676,0-24.803,11.126-24.803,24.803s11.126,24.803,24.803,24.803
		c13.676,0,24.803-11.126,24.803-24.803S170.615,91.888,156.939,91.888z"/>
</g>
</svg>
