<?xml version="1.0" encoding="utf-8"?>
<!-- Generator: Adobe Illustrator 16.0.0, SVG Export Plug-In . SVG Version: 6.00 Build 0)  -->
<!DOCTYPE svg PUBLIC "-//W3C//DTD SVG 1.1//EN" "http://www.w3.org/Graphics/SVG/1.1/DTD/svg11.dtd">
<svg version="1.1" id="Layer_1" xmlns="http://www.w3.org/2000/svg" xmlns:xlink="http://www.w3.org/1999/xlink" x="0px" y="0px"
	 width="256px" height="256px" viewBox="0 0 256 256" enable-background="new 0 0 256 256" xml:space="preserve">
<path fill-rule="evenodd" clip-rule="evenodd" d="M256,45.926c0-24.187-19.607-43.794-43.795-43.794
	c-11.246,0-21.499,4.244-29.255,11.211C166.38,5.44,147.837,1,128.254,1C57.969,1,0.992,57.977,0.992,128.262
	c0,70.284,56.977,127.261,127.262,127.261c70.284,0,127.261-56.977,127.261-127.261c0-18.71-4.054-36.468-11.307-52.467
	C251.516,67.97,256,57.476,256,45.926z M212.205,89.72c8.649,0,16.705-2.518,23.496-6.845c0.81,1.189,1.56,2.454,2.263,3.772
	c4.131,10.879,6.693,22.532,7.402,34.682c0.354,33.596-13.438,73.8-35.166,88.461c-10.044-31.533-30.016-53.258-63.029-62.925
	c14.712-8.914,22.871-21.233,22.458-38.195c-0.281-11.546-4.983-21.288-13.583-28.989c-17.433-15.612-44.522-13.12-59.027,5.119
	c-13.21,16.61-13.403,45.8,13.733,62.045c-32.746,9.496-52.993,31.116-63.277,63.149C8.841,173.296-0.981,108.199,34.967,59.134
	C72.049,8.52,135.245,1.534,175.762,21.641c-4.641,6.951-7.351,15.3-7.351,24.285C168.411,70.112,188.019,89.72,212.205,89.72z
	 M181.138,179.291c8.495,9.543,17.857,26.602,21.559,38.818c-2.583,1.395,0.007-0.583-2.583,1.395
	c-20.973,16.007-44.618,24.124-71.173,24.449c-26.333-0.296-50.154-8.358-71.256-24.508c-1.395-1.068-0.739-0.388-2.607-1.864
	c10.546-32.108,30.052-55.444,64.385-60.243C145.413,153.711,163.948,159.979,181.138,179.291z M97.633,110.163
	c-0.023-17.328,13.946-31.373,31.261-31.43c17.276-0.058,31.401,13.988,31.434,31.256c0.032,17.27-14.022,31.403-31.263,31.438
	C111.781,141.463,97.656,127.412,97.633,110.163z M212.271,11.187c19.126-0.039,34.91,15.604,34.999,34.682
	c0.087,19.332-15.727,35.18-35.049,35.12c-19.083-0.059-34.758-15.812-34.755-34.93C177.47,26.962,193.176,11.225,212.271,11.187z"
	/>
<polygon points="218.654,42.801 218.654,24.071 209.493,24.071 209.493,42.801 191.481,42.801 191.481,51.644 209.493,51.644 
	209.493,70.534 218.654,70.534 218.654,51.644 236.67,51.644 236.67,42.801 "/>
</svg>
