<?xml version="1.0" encoding="utf-8"?>
<!-- Generator: Adobe Illustrator 16.0.0, SVG Export Plug-In . SVG Version: 6.00 Build 0)  -->
<!DOCTYPE svg PUBLIC "-//W3C//DTD SVG 1.1//EN" "http://www.w3.org/Graphics/SVG/1.1/DTD/svg11.dtd">
<svg version="1.1" id="Layer_1" xmlns="http://www.w3.org/2000/svg" xmlns:xlink="http://www.w3.org/1999/xlink" x="0px" y="0px"
	 width="400px" height="400px" viewBox="0 0 400 400" enable-background="new 0 0 400 400" xml:space="preserve">
<path stroke="#11D2E3" stroke-width="3" stroke-miterlimit="10" d="M200.461,8.504c106.315,0,192.5,86.185,192.5,192.5
	c0,106.314-86.185,192.5-192.5,192.5c-106.315,0-192.5-86.186-192.5-192.5C7.961,94.689,94.146,8.504,200.461,8.504z"/>
<path fill-rule="evenodd" clip-rule="evenodd" fill="#11D2E3" d="M296.885,255.45c0,23.374-42.252,41.435-96.385,41.435
	c-54.132,0-96.384-18.061-96.384-41.435c0-18.297,26.28-34.036,66.485-39.428c-11.487-21.484-22.621-45.841-22.621-59.416
	c0-28.686,22.975-52.491,50.867-52.491s50.867,23.374,50.867,52.491c0,18.69-20.536,55.639-22.424,59.18
	C269.188,220.587,296.885,236.523,296.885,255.45z M241.492,156.607c0-24.632-18.844-44.307-42.645-44.307
	c-23.368,0-42.645,19.675-42.645,44.307c0,20.934,31.983,74.682,42.645,92.311C204.592,239.867,241.492,178.642,241.492,156.607z
	 M223.042,223.617c-10.701,19.32-24.155,40.45-24.155,40.45s-13.729-21.76-23.998-40.293c-35.799,4.131-62.551,17.707-62.551,31.676
	c0,15.977,35.249,33.21,88.162,33.21c52.912,0,88.162-17.194,88.201-33.21C288.701,240.892,260.809,227.513,223.042,223.617z
	 M177.525,151.688c0-11.922,9.441-20.933,21.322-20.933s21.322,9.443,21.322,21.326c0,11.884-9.441,20.934-21.322,20.934
	S177.525,163.611,177.525,151.688z M212.026,152.081c0.394-7.397-5.743-13.142-13.139-13.142c-7.396,0-13.141,5.745-13.141,13.142
	c0,6.965,5.744,13.143,13.141,13.143C206.283,165.224,212.026,159.479,212.026,152.081z"/>
</svg>
