<?xml version="1.0" encoding="utf-8"?>
<!-- Generator: Adobe Illustrator 16.0.0, SVG Export Plug-In . SVG Version: 6.00 Build 0)  -->
<!DOCTYPE svg PUBLIC "-//W3C//DTD SVG 1.1//EN" "http://www.w3.org/Graphics/SVG/1.1/DTD/svg11.dtd">
<svg version="1.1" id="Layer_1" xmlns="http://www.w3.org/2000/svg" xmlns:xlink="http://www.w3.org/1999/xlink" x="0px" y="0px"
	 width="400px" height="400px" viewBox="0 0 400 400" enable-background="new 0 0 400 400" xml:space="preserve">
<g>
	<path fill-rule="evenodd" clip-rule="evenodd" d="M264.814,224.34c11.979,1.794,23.404,2.248,34.071,5.33
		c37.53,10.845,63.291,46.137,62.326,83.931c-1.046,40.969-27.419,74.325-66.56,84.183c-33.672,8.48-70.496-4.803-90.785-32.928
		c-1.953-2.71-3.897-3.762-7.261-3.751c-37.931,0.129-75.862,0.092-113.794,0.077c-20.772-0.008-34.59-13.681-34.596-34.346
		c-0.03-97.649-0.039-195.299-0.017-292.948C48.204,13.885,62.254-0.06,82.288-0.067c49.53-0.016,99.06,0.001,148.589-0.003
		c19.719-0.002,33.901,13.939,33.917,33.628c0.053,62.069,0.02,124.139,0.021,186.208
		C264.814,221.616,264.814,223.466,264.814,224.34z M66.44,64.946c0,72.817,0,145.178,0,217.574c0.65,0.187,1.083,0.418,1.516,0.419
		c40.447,0.027,80.896,0.069,121.341-0.099c1.375-0.006,3.369-1.865,4.014-3.327c5.995-13.588,14.2-25.625,26.216-34.383
		c8.374-6.104,17.706-10.895,27.03-16.526c0-53.829,0-108.639,0-163.658C186.469,64.946,126.643,64.946,66.44,64.946z
		 M273.764,382.155c38.048,0.16,68.946-30.512,69.28-68.771c0.332-38.121-30.881-69.626-68.993-69.644
		c-38.169-0.017-69.391,31.186-69.419,69.376C204.605,351.039,235.602,381.993,273.764,382.155z M246.821,46.427
		c0-3.954,0.004-7.395-0.001-10.835c-0.015-12.092-5.416-17.621-17.41-17.638c-25.863-0.037-51.729-0.018-77.593-0.015
		c-23.2,0.002-46.399-0.023-69.598,0.035c-8.35,0.021-14.729,4.611-15.654,11.979c-0.671,5.338-0.131,10.828-0.131,16.474
		C126.589,46.427,186.404,46.427,246.821,46.427z M66.647,301.174c-0.211,0.666-0.38,0.949-0.381,1.236
		c-0.033,7.987-0.072,15.976-0.063,23.964c0.014,11.021,5.765,16.802,16.809,16.81c34.46,0.023,68.92,0.014,103.381-0.001
		c1.627,0,3.254-0.169,5.406-0.288c-4.686-13.875-6.462-27.521-4.365-41.721C146.984,301.174,106.928,301.174,66.647,301.174z"/>
	<path fill-rule="evenodd" clip-rule="evenodd" d="M282.906,324.953c0,6.416,0.079,12.832-0.021,19.244
		c-0.099,6.246-3.883,10.328-9.219,10.181c-5.062-0.139-8.806-4.298-8.844-10.182c-0.079-12.829-0.093-25.658,0.008-38.486
		c0.047-5.896,3.845-9.844,9.076-9.865c5.269-0.021,8.869,3.826,8.974,9.867C282.99,312.123,282.905,318.539,282.906,324.953z"/>
	<path fill-rule="evenodd" clip-rule="evenodd" d="M274.087,288.843c-5,0.081-9.045-3.697-9.238-8.631
		c-0.197-4.974,4.059-9.336,9.094-9.323c4.932,0.014,8.861,3.956,8.9,8.934C282.884,284.854,279.089,288.761,274.087,288.843z"/>
	<path fill-rule="evenodd" clip-rule="evenodd" d="M156.798,335.019c-8.56,0.083-15.286-6.46-15.336-14.915
		c-0.048-8.145,6.612-14.981,14.757-15.15c8.295-0.173,15.278,6.677,15.338,15.051C171.617,328.207,164.998,334.938,156.798,335.019
		z"/>
</g>
<path d="M124.23,145.288h-17.286c-13.39,0-24.283-10.894-24.283-24.283v-17.286c0-13.39,10.893-24.283,24.283-24.283h17.286
	c13.39,0,24.284,10.893,24.284,24.283v17.286C148.514,134.394,137.62,145.288,124.23,145.288z M106.944,95.075
	c-4.766,0-8.643,3.877-8.643,8.644v17.286c0,4.766,3.877,8.643,8.643,8.643h17.286c4.766,0,8.643-3.877,8.643-8.643v-17.286
	c0-4.766-3.877-8.644-8.643-8.644H106.944z"/>
<path d="M203.37,145.288h-17.287c-13.389,0-24.282-10.894-24.282-24.283v-17.286c0-13.39,10.894-24.283,24.282-24.283h17.287
	c13.39,0,24.283,10.893,24.283,24.283v17.286C227.653,134.394,216.76,145.288,203.37,145.288z M186.083,95.075
	c-4.765,0-8.643,3.877-8.643,8.644v17.286c0,4.766,3.878,8.643,8.643,8.643h17.287c4.766,0,8.643-3.877,8.643-8.643v-17.286
	c0-4.766-3.877-8.644-8.643-8.644H186.083z"/>
<path d="M124.23,224.311h-17.286c-13.39,0-24.283-10.896-24.283-24.283v-17.287c0-13.389,10.893-24.283,24.283-24.283h17.286
	c13.39,0,24.284,10.894,24.284,24.283v17.287C148.514,213.415,137.62,224.311,124.23,224.311z M106.944,174.098
	c-4.766,0-8.643,3.877-8.643,8.643v17.287c0,4.766,3.877,8.642,8.643,8.642h17.286c4.766,0,8.643-3.876,8.643-8.642v-17.287
	c0-4.766-3.877-8.643-8.643-8.643H106.944z"/>
<path d="M203.37,224.311h-17.287c-13.389,0-24.282-10.896-24.282-24.283v-17.287c0-13.389,10.894-24.283,24.282-24.283h17.287
	c13.39,0,24.283,10.894,24.283,24.283v17.287C227.653,213.415,216.76,224.311,203.37,224.311z M186.083,174.098
	c-4.765,0-8.643,3.877-8.643,8.643v17.287c0,4.766,3.878,8.642,8.643,8.642h17.287c4.766,0,8.643-3.876,8.643-8.642v-17.287
	c0-4.766-3.877-8.643-8.643-8.643H186.083z"/>
</svg>
