<?xml version="1.0" encoding="utf-8"?>
<!-- Generator: Adobe Illustrator 16.0.0, SVG Export Plug-In . SVG Version: 6.00 Build 0)  -->
<!DOCTYPE svg PUBLIC "-//W3C//DTD SVG 1.1//EN" "http://www.w3.org/Graphics/SVG/1.1/DTD/svg11.dtd">
<svg version="1.1" id="Layer_1" xmlns="http://www.w3.org/2000/svg" xmlns:xlink="http://www.w3.org/1999/xlink" x="0px" y="0px"
	 width="256px" height="256px" viewBox="0 0 256 256" enable-background="new 0 0 256 256" xml:space="preserve">
<path fill="#43C4DC" d="M127.5,255C58.078,255,1.599,198.521,1.599,129.1C1.599,59.677,58.078,3.198,127.5,3.198
	c69.422,0,125.9,56.479,125.9,125.902C253.4,198.521,196.922,255,127.5,255z M127.5,15.198
	c-62.805,0-113.901,51.096-113.901,113.902c0,62.805,51.096,113.9,113.901,113.9c62.805,0,113.9-51.096,113.9-113.9
	C241.4,66.294,190.305,15.198,127.5,15.198z M112.301,204.207c-6.937,0-13.467-2.691-18.388-7.579
	c-10.209-10.143-10.265-26.698-0.126-36.905l29.968-30.178L93.786,99.369c-10.139-10.21-10.082-26.766,0.127-36.906
	c4.923-4.888,11.453-7.58,18.389-7.58c7.004,0,13.58,2.737,18.516,7.706l48.231,48.567c10.072,10.139,10.072,26.637,0,36.775
	l-48.23,48.567C125.882,201.471,119.306,204.207,112.301,204.207z M112.302,66.884c-3.747,0-7.274,1.454-9.934,4.094
	c-5.514,5.477-5.545,14.42-0.068,19.935l38.366,38.632l-38.366,38.634c-5.477,5.514-5.445,14.457,0.069,19.937
	c2.657,2.638,6.184,4.092,9.931,4.092c3.785,0,7.338-1.479,10.004-4.163l48.23-48.567c5.441-5.477,5.441-14.387,0.001-19.863
	l-48.231-48.567C119.639,68.362,116.086,66.884,112.302,66.884z"/>
</svg>
