<?xml version="1.0" encoding="utf-8"?>
<!-- Generator: Adobe Illustrator 16.0.0, SVG Export Plug-In . SVG Version: 6.00 Build 0)  -->
<!DOCTYPE svg PUBLIC "-//W3C//DTD SVG 1.1//EN" "http://www.w3.org/Graphics/SVG/1.1/DTD/svg11.dtd">
<svg version="1.1" id="Layer_1" xmlns="http://www.w3.org/2000/svg" xmlns:xlink="http://www.w3.org/1999/xlink" x="0px" y="0px"
	 width="256px" height="256px" viewBox="0 0 256 256" enable-background="new 0 0 256 256" xml:space="preserve">
<g>
	<path fill-rule="evenodd" clip-rule="evenodd" d="M124.019,62.021c0-5.313-0.238-10.301,0.08-15.253
		c0.228-3.555-0.803-5.456-4.095-7.286c-8.281-4.604-10.646-14.475-5.962-22.357c4.597-7.738,14.084-10.371,22.13-6.01
		c5.818,3.153,8.417,8.439,8.551,14.79c0.131,6.181-3.205,10.632-8.334,13.791c-1.25,0.77-2.646,1.301-4.271,2.084
		c0,6.553,0,13.181,0,20.242C129.422,62.021,127.041,62.021,124.019,62.021z M128.234,17.269c-4.229,0.017-8.32,4.227-8.219,8.459
		c0.096,4.049,4.061,7.915,8.168,7.965c4.279,0.052,8.269-4.067,8.148-8.413C136.217,21.136,132.292,17.253,128.234,17.269z"/>
	<path fill-rule="evenodd" clip-rule="evenodd" d="M72.783,87.138c-4.124-4.135-8.073-7.92-11.803-11.912
		c-1.818-1.946-3.331-2.344-6.016-1.417c-7.951,2.746-16.739-1.156-20.068-8.438c-3.326-7.272-0.659-16.341,6.076-20.659
		c6.785-4.351,16.52-3.028,21.674,3.422c3.567,4.463,5.128,9.794,2.612,15.33c-1.215,2.673-0.555,4.158,1.36,5.943
		c4.129,3.849,8.085,7.885,12.25,11.98C76.712,83.425,74.806,85.226,72.783,87.138z M58.092,58.224
		c-0.026-4.492-3.775-8.204-8.238-8.158c-4.334,0.045-7.982,3.905-7.954,8.418c0.028,4.542,3.722,8.259,8.146,8.193
		C54.319,66.615,58.118,62.625,58.092,58.224z"/>
	<path fill-rule="evenodd" clip-rule="evenodd" d="M53.6,140.981c-4.895,0-9.552,0.241-14.171-0.071
		c-4.171-0.281-6.848,0.734-9.071,4.744c-3.558,6.415-10.6,8.852-17.585,7.149c-5.938-1.446-10.877-6.813-11.849-12.87
		c-1.202-7.497,1.677-13.889,7.871-17.479c8.116-4.703,17.959-1.998,22.45,6.793c1.625,3.182,3.457,3.785,6.517,3.684
		c5.147-0.171,10.305-0.047,15.837-0.047C53.6,135.512,53.6,137.9,53.6,140.981z M16.663,128.769
		c-4.645,0.122-7.913,3.684-7.726,8.421c0.176,4.465,3.562,7.774,7.961,7.781c4.489,0.008,8.156-3.703,8.154-8.252
		C25.05,132.282,21.216,128.648,16.663,128.769z"/>
	<path fill-rule="evenodd" clip-rule="evenodd" d="M223.334,140.981c-3.617,0-6.935,0-10.252,0c-3.293,0-6.587,0-10.208,0
		c0-2.802,0-5.174,0-8.097c3.517,0,6.798,0,10.081,0c3.318,0,6.637,0,9.846,0c7.082-11.521,12.682-14.503,21.664-11.653
		c6.969,2.21,11.91,9.202,11.5,16.269c-0.414,7.139-6.05,13.776-12.94,15.24C234.371,154.579,228.178,150.959,223.334,140.981z
		 M239.729,128.667c-4.341-0.126-8.503,3.88-8.457,8.14c0.044,4.025,3.985,8.055,7.997,8.176c4.256,0.127,8.403-3.911,8.428-8.207
		C247.721,132.697,243.879,128.787,239.729,128.667z"/>
	<path fill-rule="evenodd" clip-rule="evenodd" d="M73.166,186.428c1.695,1.801,3.467,3.686,5.31,5.644
		c-4.258,4.294-8.366,8.166-12.095,12.374c-1.008,1.137-1.593,3.519-1.143,4.939c2.922,9.232-1.7,18.916-10.62,21.601
		c-8.666,2.608-18.08-2.437-20.595-11.036c-2.653-9.07,2.742-18.638,12.077-20.746c2.643-0.597,5.93-0.681,8.297,0.387
		c3.611,1.628,5.399,0.169,7.597-2.159C65.414,193.809,69.083,190.421,73.166,186.428z M49.902,206.964
		c-4.592,0.001-8.021,3.563-7.967,8.275c0.053,4.662,3.109,7.748,7.746,7.823c4.735,0.076,8.309-3.296,8.354-7.884
		C58.079,210.591,54.487,206.963,49.902,206.964z"/>
	<path fill-rule="evenodd" clip-rule="evenodd" d="M183.64,87.459c-2.088-2.155-3.818-3.94-6.524-6.734
		c3.87-3.469,7.572-7.02,11.531-10.257c2.809-2.296,3.517-4.555,2.258-8.124c-2.241-6.355,0.119-11.972,4.847-16.168
		c5.147-4.569,11.421-5.195,17.738-2.416c6.265,2.756,9.313,7.953,9.435,14.632c0.2,11.085-10.865,19.16-21.284,15.391
		c-2.976-1.076-4.55-0.414-6.427,1.625C191.504,79.441,187.632,83.322,183.64,87.459z M206.637,50.036
		c-3.936-0.016-8.471,4.539-8.425,8.459c0.045,3.786,4.257,8.062,8.097,8.221c3.98,0.165,8.485-4.182,8.525-8.224
		C214.877,54.161,210.895,50.053,206.637,50.036z"/>
	<path fill-rule="evenodd" clip-rule="evenodd" d="M220.646,102.525c-1.045-2.538-1.845-4.48-2.8-6.799
		c2.474-1.06,4.688-2.009,7.414-3.177c1.004,2.35,1.873,4.385,2.896,6.784C225.639,100.403,223.413,101.349,220.646,102.525z"/>
	<path fill-rule="evenodd" clip-rule="evenodd" d="M87.183,47.192c-1.096-2.569-2.042-4.786-3.143-7.368
		c2.211-1.008,4.234-1.93,6.624-3.019c1.103,2.54,2.121,4.887,3.265,7.523C91.576,45.327,89.539,46.192,87.183,47.192z"/>
	<path fill-rule="evenodd" clip-rule="evenodd" d="M32.81,164.075c-2.76,1.18-4.842,2.069-7.401,3.164
		c-0.962-2.151-1.866-4.172-3.012-6.733c2.473-1.053,4.759-2.024,7.512-3.196C30.902,159.627,31.767,161.643,32.81,164.075z"/>
	<path fill-rule="evenodd" clip-rule="evenodd" d="M231.043,167.238c-2.587-1.091-4.783-2.016-7.439-3.136
		c1.016-2.425,1.877-4.483,2.842-6.786c2.527,1.07,4.902,2.074,7.488,3.17C232.946,162.791,232.067,164.845,231.043,167.238z"/>
	<path fill-rule="evenodd" clip-rule="evenodd" d="M228.24,174.121c-1.146,2.615-1.991,4.547-2.994,6.836
		c-2.405-1.002-4.627-1.926-7.436-3.095c0.843-2.062,1.611-3.942,2.689-6.58C222.902,172.164,225.332,173.055,228.24,174.121z"/>
	<path fill-rule="evenodd" clip-rule="evenodd" d="M36.906,194.739c-1.048-2.53-1.848-4.462-2.806-6.775
		c2.484-1.069,4.726-2.034,7.41-3.19c0.972,2.25,1.864,4.315,2.921,6.762C41.948,192.593,39.715,193.543,36.906,194.739z"/>
	<path fill-rule="evenodd" clip-rule="evenodd" d="M100.906,41.423c-1.153-2.729-2.034-4.813-3.15-7.455
		c2.192-0.961,4.219-1.849,6.719-2.944c1.076,2.481,2.088,4.814,3.244,7.479C105.501,39.453,103.473,40.323,100.906,41.423z"/>
	<path fill-rule="evenodd" clip-rule="evenodd" d="M70.219,45.486c2.458-1.021,4.386-1.821,6.748-2.801
		c1.08,2.469,2.037,4.657,3.218,7.358c-2.209,0.983-4.237,1.885-6.729,2.994C72.391,50.552,71.388,48.212,70.219,45.486z"/>
	<path fill-rule="evenodd" clip-rule="evenodd" d="M186.076,45.59c-1.166,2.729-2.059,4.818-3.139,7.35
		c-2.174-0.856-4.197-1.653-6.797-2.677c1.061-2.564,2.02-4.879,3.127-7.554C181.672,43.726,183.723,44.594,186.076,45.59z"/>
	<path fill-rule="evenodd" clip-rule="evenodd" d="M36.853,78.792c2.723,1.144,4.813,2.021,7.509,3.154
		c-0.913,2.257-1.741,4.305-2.735,6.763c-2.477-1.004-4.824-1.957-7.515-3.048C35.013,83.402,35.834,81.344,36.853,78.792z"/>
	<path fill-rule="evenodd" clip-rule="evenodd" d="M211.995,81.988c2.482-1.064,4.693-2.013,7.317-3.138
		c0.99,2.118,1.919,4.107,3.115,6.666c-2.51,1.084-4.799,2.072-7.563,3.266C213.854,86.391,213.006,84.381,211.995,81.988z"/>
	<path fill-rule="evenodd" clip-rule="evenodd" d="M93.831,229.12c-1.177,2.735-2.137,4.968-3.218,7.481
		c-2.232-0.926-4.284-1.777-6.707-2.782c0.996-2.446,1.891-4.643,3.021-7.417C89.198,227.297,91.235,228.099,93.831,229.12z"/>
	<path fill-rule="evenodd" clip-rule="evenodd" d="M32.824,109.488c-1.067,2.532-1.836,4.358-2.835,6.728
		c-2.406-0.979-4.626-1.882-7.437-3.025c0.905-2.315,1.719-4.399,2.675-6.844C27.875,107.442,30.253,108.425,32.824,109.488z"/>
	<path fill-rule="evenodd" clip-rule="evenodd" d="M28.192,174.316c2.719-1.191,4.951-2.168,7.473-3.273
		c0.953,2.191,1.849,4.253,2.907,6.687c-2.459,1.108-4.668,2.104-7.312,3.296C30.281,178.883,29.349,176.846,28.192,174.316z"/>
	<path fill-rule="evenodd" clip-rule="evenodd" d="M80.186,223.466c-1.06,2.498-2.017,4.755-3.133,7.386
		c-2.318-0.926-4.365-1.743-6.767-2.703c1.107-2.688,2.031-4.931,3.123-7.583C75.777,221.579,77.855,222.469,80.186,223.466z"/>
	<path fill-rule="evenodd" clip-rule="evenodd" d="M162.443,44.418c1.084-2.621,2.019-4.881,3.111-7.525
		c2.264,0.958,4.322,1.83,6.773,2.867c-1.084,2.58-2.02,4.806-3.15,7.496C166.848,46.274,164.803,45.413,162.443,44.418z"/>
	<path fill-rule="evenodd" clip-rule="evenodd" d="M222.404,187.939c-1.127,2.602-1.964,4.535-2.919,6.742
		c-2.536-1.055-4.911-2.044-7.479-3.112c0.978-2.326,1.844-4.387,2.838-6.752C217.452,185.895,219.659,186.806,222.404,187.939z"/>
	<path fill-rule="evenodd" clip-rule="evenodd" d="M107.461,235.194c-1.152,2.672-2.053,4.762-3.118,7.233
		c-2.301-0.977-4.373-1.855-6.74-2.859c1.063-2.511,2.007-4.741,3.153-7.447C103.106,233.198,105.204,234.16,107.461,235.194z"/>
	<path fill-rule="evenodd" clip-rule="evenodd" d="M226.5,116.285c-0.988-2.263-1.84-4.211-2.926-6.694
		c2.348-1.054,4.516-2.027,7.332-3.292c1.019,2.231,1.931,4.229,3.069,6.722C231.426,114.134,229.076,115.16,226.5,116.285z"/>
	<path fill-rule="evenodd" clip-rule="evenodd" d="M155.506,41.479c-2.656-1.187-4.588-2.048-6.769-3.021
		c1.062-2.503,2.013-4.747,3.103-7.314c2.215,0.872,4.143,1.63,6.715,2.643C157.525,36.384,156.59,38.743,155.506,41.479z"/>
	<path fill-rule="evenodd" clip-rule="evenodd" d="M31.135,92.546c2.804,1.199,4.9,2.096,7.406,3.167
		c-1.018,2.384-1.898,4.444-2.887,6.761c-2.514-1.067-4.625-1.963-7.265-3.083C29.285,97.156,30.109,95.102,31.135,92.546z"/>
	<path fill-rule="evenodd" clip-rule="evenodd" d="M168.736,154.842c-1.596-9.863-6.088-18.443-14.634-25
		c-4.002-3.07-8.612-5.348-12.919-7.971c17.907-15.497,20.906-33.02,7.85-46.265c-11.697-11.866-31.475-11.521-42.338,0.789
		c-9.737,11.034-12.158,32.908,9.24,45.705c-20.976,8.292-29.668,23.674-28.968,45.162c0.309,9.481,0.038,18.98,0.057,28.473
		c0.013,6.292,0.85,7.123,7.299,7.127c6.14,0.004,12.28,0.001,18.42-0.001c1.887,23.43,21.486,41.86,45.402,41.86
		c25.165,0,45.565-20.4,45.565-45.564C203.71,177.64,188.791,159.618,168.736,154.842z M107.594,95.388
		c0.116-11.526,9.545-20.494,21.434-20.387c10.514,0.096,19.793,9.678,19.836,20.484c0.045,11.271-9.348,20.616-20.697,20.594
		C116.8,116.058,107.48,106.683,107.594,95.388z M94.316,194.17c0.869-14.279,0.411-28.538,2.923-42.252
		c2.818-15.379,18.302-24.416,35.049-22.942c12.844,1.13,25.064,11.898,27.922,24.667c-0.686-0.03-1.373-0.052-2.066-0.052
		c-23.479,0-42.803,17.761-45.288,40.579H94.316z M158.145,237.279c-21.055,0-38.123-17.068-38.123-38.123
		c0-21.056,17.068-38.124,38.123-38.124c21.056,0,38.124,17.068,38.124,38.124C196.269,220.211,179.2,237.279,158.145,237.279z"/>
	<g>
		<path d="M162.684,178.916v17.297h16.41v7.721h-16.41v17.381h-8.438v-17.381h-16.327v-7.721h16.327v-17.297H162.684z"/>
	</g>
</g>
</svg>
