<?xml version="1.0" encoding="utf-8"?>
<!-- Generator: Adobe Illustrator 16.0.0, SVG Export Plug-In . SVG Version: 6.00 Build 0)  -->
<!DOCTYPE svg PUBLIC "-//W3C//DTD SVG 1.1//EN" "http://www.w3.org/Graphics/SVG/1.1/DTD/svg11.dtd">
<svg version="1.1" id="Layer_1" xmlns="http://www.w3.org/2000/svg" xmlns:xlink="http://www.w3.org/1999/xlink" x="0px" y="0px"
	 width="256px" height="256px" viewBox="0 0 256 256" enable-background="new 0 0 256 256" xml:space="preserve">
<g>
	<path fill-rule="evenodd" clip-rule="evenodd" d="M186.004,139.386c4.373,1.437,9.008,2.652,13.366,4.516
		c2.307,0.988,5.893,3.218,5.796,4.688c-0.184,2.875-1.876,7.134-4.127,8.119c-6.85,3.003-14.205,4.938-21.479,6.854
		c-4.171,1.099-8.326,0.813-11.591,5.06c-6.554,8.521-2.819,21.394,7.792,23.177c15.468,2.599,31.008,5.042,46.615,6.473
		c18.086,1.657,32.602,16.104,32.864,34.198c0.084,5.796-0.011,11.595,0.026,17.391c0.024,4.073-1.903,6.15-6.012,6.139
		c-1.822-0.005-3.645,0.001-5.466,0.001c-78.007,0-156.012,0.001-234.016-0.001c-8.001,0-9.001-0.874-8.862-8.716
		c0.126-7.096-0.252-14.327,0.979-21.251c2.729-15.368,15.538-25.978,30.974-27.659c15.597-1.701,31.134-3.994,46.665-6.249
		c6.817-0.989,9.872-4.273,11.097-10.838c1.367-7.319-0.454-13.883-5.776-16.289c-3.779-1.707-8.422-1.391-12.562-2.438
		c-5.242-1.328-10.482-2.834-15.482-4.858c-2.1-0.851-4.006-2.963-5.256-4.967c-2.477-3.976-0.607-7.43,4.402-8.841
		c4.873-1.372,9.76-2.69,14.407-3.968c-2.306-9.325-5.298-17.837-6.322-26.577c-1.025-8.748-4.02-16.442-7.556-24.311
		c-12.23-27.208-5.446-50.321,19.486-66.609c8.811-5.756,17.71-11.772,27.354-15.773c18.772-7.787,37.611-6.81,55.996,2.599
		c13.021,6.663,26.62,12.101,41.702,10.246c4.039-0.497,7.793-3.092,11.763-4.486c2.256-0.792,5.378-2.229,6.847-1.324
		c1.652,1.018,2.755,4.414,2.577,6.655c-0.736,9.31-5.729,16.351-13.109,21.786c-2.113,1.556-4.39,2.89-6.912,4.534
		c7.406,18.802,1.557,35.726-7.187,52.496c-2.09,4.007-1.518,9.333-2.564,13.965C190.515,121.627,188.305,130.063,186.004,139.386z
		 M10.906,245.757c78.434,0,156.295,0,234.449,0c0-4.288,0.037-8.24-0.008-12.192c-0.142-12.71-8.153-22.781-20.661-24.785
		c-14.78-2.369-29.674-4.024-44.981-6.05c1.286,12.488-4.799,20.706-15.325,25.4c-24.146,10.769-48.642,11.696-72.677-0.156
		c-5.06-2.494-9.633-7.092-12.873-11.795c-2.399-3.482-2.275-8.703-3.32-13.348c-14.273,1.884-28.996,3.634-43.653,5.823
		c-11.263,1.683-19.665,10.391-20.857,21.521C10.458,235.219,10.906,240.368,10.906,245.757z M173.533,60.88
		c-12.471,14.125-27.991,19.577-45.594,19.569c-17.593-0.008-32.958-5.827-45.006-19.114c-15.857,19.358-11.54,56.549-1.767,74.64
		c5.748-2.837,11.425-5.869,17.295-8.467c4.787-2.119,9.696-4.698,14.75-5.257c4.484-0.495,9.251,2.251,13.878,2.201
		c4.593-0.049,9.323-3.051,13.715-2.51c6.211,0.766,12.282,3.306,18.202,5.626c5.751,2.254,11.234,5.19,17.326,8.06
		C184.764,109.994,188.987,85.483,173.533,60.88z M164.148,56.324c-2.61,0-4.051-0.057-5.485,0.01
		c-3.928,0.186-8.424,1.304-9.544-4.271c-0.698-3.474,2.752-5.243,9.273-5.772c13.503-1.094,27.083-2.174,39.285-8.872
		c3.915-2.15,7.38-5.123,11.051-7.718c-0.216-0.417-0.433-0.834-0.649-1.251c-17.241,3.539-32.989-1.558-48.477-8.102
		c-3.951-1.669-7.776-3.66-11.794-5.141c-17.815-6.566-34.816-4.586-50.554,5.891c-15.099,10.051-15.241,29.448-0.38,39.872
		c12.211,8.565,25.902,11.139,40.572,8.72C147.28,68.067,156.139,64.47,164.148,56.324z M100.793,181.387
		c-1.078,7.231-3.762,13.223-9.875,16.798c-3.078,1.799-5.732,3.368-4.573,7.404c0.878,3.061,1.441,6.533,3.312,8.899
		c1.944,2.459,5.081,4.31,8.06,5.558c20.173,8.451,40.505,8.524,60.666,0.045c10.079-4.24,12.164-8.369,11.245-18.387
		c-3.613-3.146-7.236-5.415-9.608-8.613c-2.446-3.295-3.673-7.495-5.438-11.313C127.866,193.229,124.433,193.229,100.793,181.387z
		 M69.135,151.88c0.535,0.144,1.768,0.672,3.038,0.787c11.015,0.996,22.038,1.911,33.057,2.862
		c5.423,0.468,9.987-1.506,14.178-4.765c6.753-5.253,9.543-5.581,16.356-0.651c5.959,4.311,12.327,6.012,19.545,5.405
		c5.438-0.456,10.92-0.426,16.342-0.998c5.741-0.606,11.437-1.669,18.48-2.731c-9.093-3.79-16.735-6.845-24.265-10.154
		c-6.038-2.652-11.787-6.019-17.941-8.321c-5.723-2.14-11.71-3.69-16.892,2.122c-0.92,1.032-4.801,0.939-6.076-0.12
		c-5.927-4.934-11.858-3.998-18.07-1.093C94.226,140.147,81.564,146.067,69.135,151.88z M157.427,165.123
		c-11.77,1.3-21.317-1.438-29.496-8.649c-8.213,7.818-17.857,10.037-29.343,8.373C115.646,184.593,139.858,184.726,157.427,165.123z
		 M63.125,77.721c4.032-7.544,8.497-15.875,12.931-24.223c0.519-0.978,1.313-2.075,1.235-3.059
		c-0.396-5.023-1.036-10.027-1.578-14.922C62.835,43.707,55.566,63.929,63.125,77.721z M193.02,78.624
		c3.146-9.379,4.244-18.725-0.46-28.141c-4.106,1.181-7.812,2.246-10.939,3.145C185.429,61.98,189.172,70.191,193.02,78.624z"/>
	<path fill-rule="evenodd" clip-rule="evenodd" d="M101.334,104.021c-3.873-0.233-8.898,0.654-8.942-5.116
		c-0.047-6.041,5.22-4.636,8.913-5.028c3.445-0.367,6.948-0.967,10.346-0.641c1.723,0.166,4.143,1.862,4.647,3.394
		c0.483,1.469-0.954,3.695-1.836,5.441c-0.522,1.033-1.597,1.792-2.442,2.657c-1.681,1.726-3.379,4.806-5.063,4.801
		c-1.977-0.006-3.946-2.697-5.918-4.223C101.138,104.878,101.235,104.45,101.334,104.021z"/>
	<path fill-rule="evenodd" clip-rule="evenodd" d="M155.991,105.242c-1.965,1.547-3.897,4.225-5.907,4.287
		c-1.642,0.051-3.37-3.034-5.076-4.712c-0.693-0.681-1.587-1.212-2.11-1.997c-1.252-1.879-3.517-4.127-3.163-5.741
		c0.361-1.643,3.313-3.722,5.224-3.823c4.896-0.26,9.913,0.116,14.737,1.012c1.623,0.301,4.02,3.04,3.896,4.477
		c-0.159,1.819-2.331,3.696-4.032,5.046c-0.804,0.638-2.534,0.109-3.846,0.109C155.806,104.348,155.898,104.795,155.991,105.242z"/>
</g>
</svg>
