<?xml version="1.0" encoding="utf-8"?>
<!-- Generator: Adobe Illustrator 16.0.0, SVG Export Plug-In . SVG Version: 6.00 Build 0)  -->
<!DOCTYPE svg PUBLIC "-//W3C//DTD SVG 1.1//EN" "http://www.w3.org/Graphics/SVG/1.1/DTD/svg11.dtd">
<svg version="1.1" id="Layer_1" xmlns="http://www.w3.org/2000/svg" xmlns:xlink="http://www.w3.org/1999/xlink" x="0px" y="0px"
	 width="256px" height="256px" viewBox="0 0 256 256" enable-background="new 0 0 256 256" xml:space="preserve">
<path fill-rule="evenodd" clip-rule="evenodd" d="M249.896,241.966h-0.118c-2.754,0-4.989-2.23-4.989-4.982
	c0-2.751,2.235-4.981,4.989-4.981h0.118c2.755,0,4.988,2.23,4.988,4.981C254.884,239.735,252.65,241.966,249.896,241.966z
	 M233.769,181.227v45.795c0,1.745-0.29,3.422-0.811,4.98h3.488c2.754,0,4.989,2.23,4.989,4.981c0,2.752-2.235,4.982-4.989,4.982
	H19.896c-2.755,0-4.988-2.23-4.988-4.982c0-2.751,2.233-4.981,4.988-4.981h3.487c-0.523-1.559-0.809-3.235-0.809-4.98l-0.002-45.795
	c-5.338-2.139-9.146-7.597-9.146-13.979v-39.848c0-8.239,6.341-14.945,14.134-14.945h23.284V77.752c0-2.7,1.071-5.15,2.804-6.97
	c-7.841-9.398-4.005-23.964,10.968-41.28c0.946-1.097,2.325-1.726,3.774-1.726c1.451,0,2.83,0.629,3.776,1.726
	c3.151,3.644,8.932,10.94,12.254,18.875c4.738,11.316,2.157,18.37-1.357,22.519c1.669,1.806,2.7,4.212,2.7,6.856v34.702h24.946
	V62.812c0-2.703,1.069-5.153,2.802-6.973c-7.838-9.398-4.002-23.965,10.97-41.281c0.947-1.095,2.326-1.726,3.774-1.726
	c1.45,0,2.83,0.631,3.778,1.726c3.147,3.645,8.929,10.942,12.252,18.879c4.74,11.313,2.158,18.367-1.356,22.516
	c1.668,1.804,2.7,4.211,2.7,6.859v49.643h24.944V77.756c0-2.704,1.07-5.153,2.806-6.973c-7.844-9.394-4.007-23.964,10.969-41.28
	c0.945-1.095,2.325-1.726,3.772-1.726c1.45,0,2.829,0.631,3.775,1.726c3.151,3.644,8.933,10.944,12.256,18.878
	c4.736,11.313,2.157,18.367-1.356,22.515c1.668,1.806,2.7,4.212,2.7,6.86v34.698h23.281c7.791,0,14.134,6.706,14.134,14.945v39.848
	C242.913,173.634,239.105,179.092,233.769,181.227z M32.55,213.243h15.484c2.754,0,4.988,2.229,4.988,4.98
	c0,2.752-2.234,4.982-4.988,4.982H32.55v3.815c0,2.7,1.902,4.977,4.154,4.98h182.931c2.253-0.004,4.151-2.28,4.151-4.98v-31.709
	h-15.479c-2.755,0-4.989-2.23-4.989-4.981c0-2.752,2.234-4.982,4.989-4.982h15.479v-4.122c-5.337-2.135-9.145-7.593-9.145-13.979
	v-14.824c0-3.297-2.37-6.085-5.172-6.085c-2.807,0-5.177,2.788-5.177,6.085v1.273c0,8.852-6.797,16.053-15.148,16.053
	c-8.356,0-15.15-7.201-15.15-16.053v-1.273c0-3.297-2.37-6.085-5.176-6.085c-2.803,0-5.173,2.788-5.173,6.085v10.491
	c0,8.848-6.797,16.049-15.149,16.049c-8.356,0-15.153-7.201-15.153-16.049v-10.491c0-3.297-2.369-6.085-5.172-6.085
	c-2.806,0-5.174,2.788-5.174,6.085v1.273c0,8.852-6.797,16.053-15.152,16.053c-8.354,0-15.151-7.201-15.151-16.053v-1.273
	c0-3.297-2.368-6.085-5.174-6.085c-2.803,0-5.172,2.788-5.172,6.085v20.455c0,8.848-6.797,16.048-15.152,16.048
	s-15.152-7.2-15.152-16.048v-20.455c0-3.297-2.368-6.085-5.172-6.085s-5.174,2.788-5.174,6.085v14.824
	c0,6.387-3.808,11.845-9.146,13.979V213.243z M68.371,40.721c-5.339,7.095-12.257,18.558-6.511,24.295
	c1.669,1.668,3.969,2.593,6.474,2.608h0.063c2.487,0,4.82-0.939,6.568-2.648C80.151,59.914,74.372,48.854,68.371,40.721z
	 M60.819,77.756h0.002v34.698h14.967V77.756c0-0.084-0.086-0.168-0.169-0.168h-7.218c-0.001,0-0.005,0-0.009,0h-0.119h-7.285
	C60.906,77.587,60.819,77.671,60.819,77.756z M128.236,25.777c-5.339,7.094-12.257,18.557-6.511,24.294
	c1.669,1.669,3.969,2.594,6.475,2.608h0.066c2.487,0,4.816-0.939,6.563-2.645C140.019,44.97,134.237,33.914,128.236,25.777z
	 M120.688,62.812v49.643h14.967V62.812c0-0.08-0.089-0.168-0.169-0.168h-7.216c-0.004,0-0.007,0-0.011,0h-0.117h-7.287
	C120.773,62.643,120.688,62.731,120.688,62.812z M188.102,40.721c-5.337,7.095-12.259,18.558-6.51,24.295
	c1.669,1.668,3.969,2.593,6.474,2.608h0.065c2.487,0,4.817-0.939,6.566-2.645C199.885,59.914,194.103,48.858,188.102,40.721z
	 M180.554,77.756L180.554,77.756v34.698h14.966V77.756c0-0.084-0.085-0.168-0.168-0.168h-7.217c-0.004,0-0.008,0-0.012,0h-0.116
	h-7.285C180.642,77.587,180.554,77.671,180.554,77.756z M232.936,127.399c0-2.7-1.904-4.981-4.156-4.981H27.563
	c-2.254,0-4.158,2.282-4.158,4.981v39.848c0,2.699,1.904,4.982,4.158,4.982c2.253,0,4.158-2.283,4.158-4.982v-14.824
	c0-8.848,6.795-16.048,15.15-16.048s15.152,7.2,15.152,16.048v20.455c0,3.297,2.37,6.085,5.174,6.085
	c2.804,0,5.172-2.788,5.172-6.085v-20.455c0-8.848,6.797-16.048,15.151-16.048c8.354,0,15.151,7.2,15.151,16.048v1.273
	c0,3.301,2.37,6.089,5.174,6.089s5.172-2.788,5.172-6.089v-1.273c0-8.848,6.797-16.048,15.152-16.048
	c8.357,0,15.15,7.2,15.15,16.048v10.491c0,3.298,2.37,6.085,5.176,6.085c2.803,0,5.173-2.787,5.173-6.085v-10.491
	c0-8.848,6.797-16.048,15.149-16.048c8.356,0,15.154,7.2,15.154,16.048v1.273c0,3.301,2.37,6.089,5.172,6.089
	c2.807,0,5.172-2.788,5.172-6.089v-1.273c0-8.848,6.798-16.048,15.153-16.048c8.353,0,15.15,7.2,15.15,16.048v14.824
	c0,2.699,1.903,4.982,4.159,4.982c2.252,0,4.156-2.283,4.156-4.982V127.399z M62.367,213.243h0.118c2.755,0,4.989,2.229,4.989,4.98
	c0,2.752-2.234,4.982-4.989,4.982h-0.118c-2.754,0-4.988-2.23-4.988-4.982C57.379,215.473,59.613,213.243,62.367,213.243z
	 M85.169,197.059h6.485c2.755,0,4.989,2.229,4.989,4.981c0,2.751-2.234,4.981-4.989,4.981h-6.485c-2.755,0-4.989-2.23-4.989-4.981
	C80.181,199.288,82.415,197.059,85.169,197.059z M118.096,182.862h9.477c2.754,0,4.989,2.23,4.989,4.981
	c0,2.752-2.234,4.981-4.989,4.981h-9.477c-2.755,0-4.989-2.229-4.989-4.981C113.107,185.093,115.341,182.862,118.096,182.862z
	 M132.313,213.243h6.484c2.755,0,4.989,2.229,4.989,4.98c0,2.752-2.234,4.982-4.989,4.982h-6.484c-2.756,0-4.989-2.23-4.989-4.982
	C127.323,215.473,129.557,213.243,132.313,213.243z M160.249,192.326h6.486c2.755,0,4.987,2.23,4.987,4.982
	c0,2.751-2.232,4.981-4.987,4.981h-6.486c-2.755,0-4.988-2.23-4.988-4.981C155.261,194.557,157.494,192.326,160.249,192.326z
	 M191.43,213.243h11.475c2.754,0,4.989,2.229,4.989,4.98c0,2.752-2.235,4.982-4.989,4.982H191.43c-2.755,0-4.989-2.23-4.989-4.982
	C186.44,215.473,188.675,213.243,191.43,213.243z M193.972,195.313h-0.118c-2.755,0-4.988-2.23-4.988-4.981
	c0-2.752,2.233-4.982,4.988-4.982h0.118c2.758,0,4.988,2.23,4.988,4.982C198.96,193.082,196.729,195.313,193.972,195.313z
	 M6.563,241.966H6.446c-2.755,0-4.989-2.23-4.989-4.982c0-2.751,2.234-4.981,4.989-4.981h0.117c2.755,0,4.988,2.23,4.988,4.981
	C11.551,239.735,9.318,241.966,6.563,241.966z"/>
</svg>
