<?xml version="1.0" encoding="utf-8"?>
<!-- Generator: Adobe Illustrator 16.0.0, SVG Export Plug-In . SVG Version: 6.00 Build 0)  -->
<!DOCTYPE svg PUBLIC "-//W3C//DTD SVG 1.1//EN" "http://www.w3.org/Graphics/SVG/1.1/DTD/svg11.dtd">
<svg version="1.1" id="Layer_1" xmlns="http://www.w3.org/2000/svg" xmlns:xlink="http://www.w3.org/1999/xlink" x="0px" y="0px"
	 width="400px" height="400px" viewBox="0 0 400 400" enable-background="new 0 0 400 400" xml:space="preserve">
<path fill-rule="evenodd" clip-rule="evenodd" fill="#231F20" d="M399.441,261.392c0,30.429,0.03,60.857-0.015,91.286
	c-0.03,15.365-6.187,27.847-18.284,37.271c-8.166,6.37-17.561,9.455-27.924,9.462c-29.191,0.023-58.398,0.016-87.598,0.016
	c-72.764,0-145.537,0-218.308,0c-22.211,0-40.747-14.671-45.651-36.316c-0.733-3.208-1.069-6.584-1.069-9.868
	C0.532,261.284,0.532,169.318,0.563,77.361C0.57,55.043,16.35,36.056,38.3,31.974c3.59-0.665,7.324-0.661,10.99-0.776
	c4.133-0.118,8.272-0.022,12.633-0.022c0-10.299,0-20.408,0-30.604c10.219,0,20.324,0,30.597,0c0,10.113,0,20.255,0,30.501
	c71.68,0,143.184,0,214.812,0c0-10.132,0-20.24,0-30.47c10.257,0,20.399,0,30.71,0c0,10.127,0,20.274,0,30.573
	c1.787,0,3.407-0.039,5.025,0.004c5.721,0.164,11.511-0.165,17.14,0.641c14.374,2.058,25.242,9.753,32.788,22.096
	c4.498,7.378,6.455,15.478,6.446,24.116C399.427,139.149,399.441,200.267,399.441,261.392z M368.753,106.311
	c0-9.822,0.063-19.64-0.038-29.462c-0.068-7.562-5.362-13.817-12.823-14.68c-4.637-0.538-9.379-0.24-14.084-0.301
	c-1.206-0.019-2.421-0.008-3.788-0.008c0,10.322,0,20.469,0,30.616c-10.273,0-20.378,0-30.604,0c0-10.185,0-20.293,0-30.501
	c-71.727,0-143.238,0-214.856,0c0,10.216,0,20.324,0,30.482c-10.258,0-20.393,0-30.704,0c0-10.242,0-20.389,0-30.558
	c-5.637,0-11.105-0.02-16.574,0.027c-0.955,0.004-1.932,0.24-2.857,0.492c-6.751,1.86-11.158,7.607-11.181,14.745
	c-0.046,14.985-0.015,29.967-0.008,44.952c0,0.344,0.054,0.68,0.084,1.016c112.519,0,224.938,0,337.434,0
	C368.753,117.447,368.753,111.879,368.753,106.311z M368.753,155.643c0-0.5,0-1.008,0-1.611c-112.618,0-225.029,0-337.525,0
	c0,0.461,0,0.817,0,1.168c0,65.971-0.008,131.945,0.03,197.92c0.008,1.757,0.298,3.589,0.833,5.255
	c2.078,6.514,7.813,10.356,15.191,10.356c62.538,0.016,125.075,0,187.612,0c39.273,0,78.547,0.016,117.819-0.03
	c1.856,0,3.796-0.253,5.575-0.787c6.522-1.979,10.464-7.813,10.464-15.269C368.753,286.978,368.753,221.316,368.753,155.643z
	 M307.491,184.678c10.22,0,20.317,0,30.497,0c0,10.173,0,20.275,0,30.505c-10.119,0-20.247,0-30.497,0
	C307.491,205.078,307.491,194.939,307.491,184.678z M337.942,276.56c-10.097,0-20.225,0-30.49,0c0-10.204,0-20.309,0-30.49
	c10.167,0,20.271,0,30.49,0C337.942,256.183,337.942,266.316,337.942,276.56z M246.138,246.093c10.097,0,20.239,0,30.497,0
	c0,10.219,0,20.324,0,30.497c-10.173,0-20.271,0-30.497,0C246.138,266.478,246.138,256.343,246.138,246.093z M246.084,184.724
	c10.15,0,20.293,0,30.527,0c0,10.139,0,20.271,0,30.49c-10.149,0-20.247,0-30.527,0
	C246.084,205.032,246.084,194.932,246.084,184.724z M184.776,246.093c10.09,0,20.225,0,30.49,0c0,10.212,0,20.31,0,30.497
	c-10.165,0-20.262,0-30.49,0C184.776,266.485,184.776,256.35,184.776,246.093z M184.761,184.678c10.204,0,20.309,0,30.49,0
	c0,10.173,0,20.275,0,30.505c-10.113,0-20.248,0-30.49,0C184.761,205.078,184.761,194.939,184.761,184.678z M215.212,337.943
	c-10.096,0-20.24,0-30.497,0c0-10.219,0-20.323,0-30.504c10.174,0,20.279,0,30.497,0
	C215.212,317.559,215.212,327.694,215.212,337.943z M123.399,246.093c10.097,0,20.232,0,30.498,0c0,10.212,0,20.324,0,30.497
	c-10.166,0-20.271,0-30.498,0C123.399,266.478,123.399,256.343,123.399,246.093z M123.362,184.735c10.112,0,20.24,0,30.497,0
	c0,10.089,0,20.229,0,30.493c-10.204,0-20.309,0-30.497,0C123.362,205.063,123.362,194.962,123.362,184.735z M62.039,246.093
	c10.097,0,20.232,0,30.489,0c0,10.219,0,20.324,0,30.497c-10.166,0-20.271,0-30.489,0C62.039,266.478,62.039,256.343,62.039,246.093
	z M92.521,337.928c-10.113,0-20.248,0-30.497,0c0-10.089,0-20.231,0-30.497c10.211,0,20.308,0,30.497,0
	C92.521,317.597,92.521,327.701,92.521,337.928z M153.889,337.975c-10.166,0-20.263,0-30.49,0c0-10.121,0-20.264,0-30.497
	c10.105,0,20.24,0,30.49,0C153.889,317.689,153.889,327.793,153.889,337.975z"/>
</svg>
