<?xml version="1.0" encoding="utf-8"?>
<!-- Generator: Adobe Illustrator 16.0.0, SVG Export Plug-In . SVG Version: 6.00 Build 0)  -->
<!DOCTYPE svg PUBLIC "-//W3C//DTD SVG 1.1//EN" "http://www.w3.org/Graphics/SVG/1.1/DTD/svg11.dtd">
<svg version="1.1" id="Layer_1" xmlns="http://www.w3.org/2000/svg" xmlns:xlink="http://www.w3.org/1999/xlink" x="0px" y="0px"
	 width="256px" height="256px" viewBox="0 0 256 256" enable-background="new 0 0 256 256" xml:space="preserve">
<path fill-rule="evenodd" clip-rule="evenodd" d="M221.677,240.941H34.318C15.472,240.941,0,224.938,0,205.792V93.066
	c0-19.145,15.472-34.861,34.318-34.861l24.899-0.144L85.8,18.915c1.546-2.287,4.08-3.856,6.895-3.856h69.341
	c2.815,0,5.489,1.57,7.036,4l25.74,39.004l26.864,0.144c18.852,0,34.323,15.716,34.323,34.861v112.726
	C256,224.938,240.528,240.941,221.677,240.941z M238.981,205.792V93.066c0-9.714-7.876-17.716-17.44-17.716l-31.513-0.287
	c-2.669,0-5.344-1.572-6.89-3.856l-25.601-38.863H97.197L70.61,71.492c-1.546,2.286-4.08,3.858-6.895,3.858H34.318
	c-9.564,0-17.441,8.001-17.441,17.716v112.726c0,9.719,7.877,18,17.441,18h187.358c9.564,0,17.446-8.281,17.446-18H238.981z
	 M208.738,115.783c-6.472,0-11.674-5.285-11.674-11.857s5.202-11.86,11.674-11.86s11.675,5.288,11.675,11.86
	S215.21,115.783,208.738,115.783z M208.738,98.638c-2.815,0-5.202,2.43-5.202,5.288c0,2.855,2.246,5.285,5.202,5.285
	c2.951,0,5.203-2.43,5.203-5.285C213.941,101.067,211.554,98.638,208.738,98.638z M208.738,107.21c-1.786,0-3.233-1.471-3.233-3.285
	c0-1.814,1.447-3.288,3.233-3.288s3.233,1.473,3.233,3.288C211.972,105.739,210.524,107.21,208.738,107.21z M128.705,200.218
	c-32.918,0-59.782-27.287-59.782-60.718c0-33.432,26.724-60.721,59.782-60.721c32.913,0,59.777,27.29,59.777,60.717
	C188.482,172.931,161.618,200.218,128.705,200.218z M128.705,95.921c-23.636,0-42.905,19.575-42.905,43.575
	c0,24.007,19.269,43.581,42.905,43.581c23.631,0,42.9-19.574,42.9-43.581C171.605,115.496,152.336,95.921,128.705,95.921z"/>
</svg>
