<?xml version="1.0" encoding="utf-8"?>
<!-- Generator: Adobe Illustrator 16.0.0, SVG Export Plug-In . SVG Version: 6.00 Build 0)  -->
<!DOCTYPE svg PUBLIC "-//W3C//DTD SVG 1.1//EN" "http://www.w3.org/Graphics/SVG/1.1/DTD/svg11.dtd">
<svg version="1.1" id="Layer_1" xmlns="http://www.w3.org/2000/svg" xmlns:xlink="http://www.w3.org/1999/xlink" x="0px" y="0px"
	 width="400px" height="400px" viewBox="0 0 400 400" enable-background="new 0 0 400 400" xml:space="preserve">
<g>
	<path fill-rule="evenodd" clip-rule="evenodd" d="M302.798,84.047c-9.655-22.531-24.458-41.178-44.334-55.693
		c-24.627-17.985-52.271-26.325-78.509-26.091c-28.213,0.904-50.64,7.295-71.095,20.111c-29.893,18.729-49.741,45.08-59.232,79.082
		c-6.029,21.6-6.415,43.236-0.398,65.01c6.513,23.571,16.244,45.824,26.967,67.675c15.399,31.387,32.588,61.807,50.992,91.514
		c14.013,22.617,28.556,44.909,42.99,67.265c4.827,7.475,13.015,7.388,18.031,0.059c1.649-2.409,3.22-4.874,4.838-7.307
		c3.447-5.183,6.873-10.38,10.275-15.589c-5.342-2.33-10.109-5.438-14.795-9.187c-0.779-0.623-1.392-1.372-1.867-2.195
		c-1.604,2.453-3.2,4.913-4.819,7.358c-0.762,1.15-1.551,2.28-2.745,4.03c-6.648-10.306-12.982-19.979-19.169-29.743
		c-23.105-36.466-44.983-73.644-64.24-112.303c-10.608-21.299-20.19-43.035-26.741-66.017c-5.992-21.019-4.877-41.741,2.182-62.176
		c9.584-27.748,27.427-48.826,52.99-63.145c18.731-10.491,39.004-15.135,60.485-14.042c28.982,1.474,53.958,12.459,74.635,32.689
		c18.188,17.793,28.949,39.528,32.99,64.73c3.398,21.188-1.598,40.995-8.799,60.558c-2.962,8.043-6.191,15.961-9.624,23.783
		c0.51,0.054,1.024,0.139,1.546,0.265c4.346,1.059,8.375,2.305,12.475,4.129c1.742,0.773,3.028,2.126,3.886,3.745
		c3.154-7.123,6.239-14.278,9.3-21.436c5.915-13.834,10.14-28.367,11.833-43.372C315.334,125.677,311.498,104.349,302.798,84.047z"
		/>
	<path fill="#231F20" d="M179.411,71.114l-0.339,0.001c-16.792,0.091-32.557,6.747-44.391,18.744
		c-11.695,11.856-18.061,27.453-17.925,43.917c0.284,34.333,28.169,62.265,62.161,62.265l0.537-0.002
		c34.416-0.296,62.309-28.337,62.18-62.508C241.503,99.113,213.591,71.114,179.411,71.114z M221.769,133.661
		c-0.089,23.441-19.183,42.509-42.591,42.508c-23.42-0.014-42.513-19.097-42.56-42.539c-0.022-11.341,4.418-22.049,12.506-30.152
		c8.044-8.061,18.659-12.5,29.891-12.5l0.315,0.001C202.819,91.155,221.857,110.303,221.769,133.661z"/>
</g>
<path d="M257.616,389.79c-55.084,0-99.899-44.815-99.899-99.898c0-55.085,44.815-99.899,99.899-99.899s99.898,44.814,99.898,99.899
	C357.515,344.975,312.7,389.79,257.616,389.79z M257.616,210.662c-43.688,0-79.23,35.542-79.23,79.229s35.543,79.23,79.23,79.23
	s79.229-35.543,79.229-79.23S301.304,210.662,257.616,210.662z"/>
<path d="M302.539,284.095c-0.024-0.131-0.05-0.261-0.073-0.401c-0.104-0.624-0.19-1.252-0.279-1.878l-0.019-0.125
	c-0.229-1.645-0.467-3.344-0.936-5.127c-5.134-19.605-22.852-33.3-43.083-33.3c-2.272,0-4.573,0.175-6.837,0.521
	c-17.175,2.622-31.582,15.553-36.138,32.328c-0.999,0.003-1.993,0.009-2.993,0.027c-1.357,0.026-2.408,0.444-2.953,0.661
	l-4.046,1.285v7.396l1.768,1.521l2.987,3.64c2.197,2.683,4.396,5.36,6.604,8.034c1.489,1.801,3.505,2.794,5.675,2.794
	c2.198,0,4.209-1.007,5.66-2.835c2.936-3.7,5.972-7.573,9.284-11.839c1.433-1.848,2.184-4.857,0.637-7.41
	c-1.215-2.019-3.311-2.944-4.999-3.18c4.311-9.393,13.848-15.935,24.193-16.269c7.137-0.254,13.403,1.837,18.584,6.169
	c8.126,6.796,11.514,15.533,10.067,25.967c-0.965,6.966-4.34,12.808-10.034,17.362c-6.381,5.104-13.74,7.063-21.888,5.813
	c-5.74-0.877-10.843-3.454-15.17-7.663c-1.691-1.642-3.842-2.548-6.058-2.548c-2.177,0-4.244,0.868-5.825,2.444
	c-1.61,1.604-2.485,3.705-2.463,5.919c0.021,2.294,1.003,4.485,2.763,6.172c8.8,8.43,19.264,12.707,31.098,12.707
	c1.501,0,3.042-0.069,4.587-0.209c8.587-0.775,16.424-3.982,23.292-9.533c8.618-6.966,14.004-15.991,16.007-26.82
	c0.204-1.108,0.35-2.176,0.499-3.272c0.06-0.442,0.118-0.884,0.184-1.323l0.06-6.222L302.539,284.095z"/>
</svg>
