<?xml version="1.0" encoding="utf-8"?>
<!-- Generator: Adobe Illustrator 16.0.0, SVG Export Plug-In . SVG Version: 6.00 Build 0)  -->
<!DOCTYPE svg PUBLIC "-//W3C//DTD SVG 1.1//EN" "http://www.w3.org/Graphics/SVG/1.1/DTD/svg11.dtd">
<svg version="1.1" id="Layer_1" xmlns="http://www.w3.org/2000/svg" xmlns:xlink="http://www.w3.org/1999/xlink" x="0px" y="0px"
	 width="256px" height="256px" viewBox="0 0 256 256" enable-background="new 0 0 256 256" xml:space="preserve">
<g>
	<g>
		<path fill-rule="evenodd" clip-rule="evenodd" d="M255.745,45.102c-0.044-14.846-10.018-24.438-24.602-24.434
			c-57.635,0.021-115.269,0.007-172.903,0.003c-12.473,0-22.735,8.969-24.477,21.406c-0.526,3.756,0.991,6.4,3.909,6.813
			c2.754,0.391,4.612-1.549,5.196-5.398c0.026-0.171,0.173-0.324,0.38-0.686c0.767,0.625,1.521,1.204,2.235,1.826
			c31.964,27.952,63.922,55.908,95.888,83.853c3.845,3.362,5.205,3.352,9.036-0.004c31.072-27.184,62.141-54.372,93.212-81.556
			c0.825-0.722,1.707-1.386,2.889-2.342V175.7c-1.537-1.115-2.558-1.826-3.544-2.576c-16.833-12.817-33.663-25.641-50.494-38.46
			c-5.063-3.859-10.109-7.743-15.208-11.555c-2.598-1.945-5.384-1.657-6.977,0.562c-1.631,2.274-1.036,4.796,1.621,6.89
			c0.228,0.182,0.474,0.345,0.708,0.525c21.036,16.024,42.076,32.05,63.109,48.079c0.948,0.725,1.859,1.499,3.439,2.775h-23.445
			c-9.751,0.003-19.502,0.017-29.256-0.004c-2.242-0.004-4.293,0.658-4.848,2.942c-0.349,1.421-0.146,3.589,0.732,4.549
			c1.021,1.104,3.053,1.723,4.647,1.733c16.772,0.118,33.549,0.09,50.322,0.068c10.724-0.015,18.421-7.516,18.443-18.369
			C255.837,130.275,255.876,87.687,255.745,45.102z M241.716,36.371c-31.278,27.376-62.57,54.738-93.823,82.143
			c-1.395,1.222-2.285,1.567-3.885,0.163c-31.68-27.81-63.415-55.556-95.138-83.319c-0.511-0.448-1.02-0.902-1.823-1.613
			c3.12-2.964,6.501-3.778,10.204-3.774c31.393,0.01,62.785,0.007,94.18,0.01c27.685,0,55.375,0.018,83.063-0.014
			c3.774-0.007,6.813,1.275,9.153,4.538C242.96,35.174,242.361,35.803,241.716,36.371z M147.071,168.704
			c-9.939-4.585-18.68-2.407-25.721,6.072c-2.985,3.593-5.397,7.711-7.789,11.76c-1.043,1.769-2.161,2.525-4.142,2.536
			c-5.396,0.028-10.483-1.328-15.138-3.892c-16.949-9.319-30.073-22.682-39.638-39.59c-2.83-5.002-4.401-10.503-4.338-16.399
			c0.023-2.093,0.702-3.272,2.576-4.417c4.319-2.637,8.588-5.458,12.471-8.703c4.551-3.806,6.985-8.916,6.978-15.084
			c-0.196-1.564-0.173-3.191-0.617-4.673c-5.544-18.557-18.233-30.112-35.747-36.53c-6.839-2.505-12.939-0.505-17.929,5.121
			C11.764,71.977,7.187,79.983,3.667,88.767c-3.138,7.832-3.321,15.323-0.769,23.506c8.942,28.674,23.511,53.868,44.152,75.408
			c24.047,25.096,52.788,42.1,86.327,50.617c1.665,0.423,3.521,0.896,5.141,0.576c14.028-2.759,26.339-9.033,36.384-19.388
			c1.853-1.908,3.241-4.844,3.632-7.489c0.455-3.09,0.275-6.662-0.838-9.544C171.829,187.248,161.886,175.534,147.071,168.704z
			 M167.266,214.38c-7.807,7.197-16.815,12.094-26.985,14.72c-1.973,0.508-4.321,0.38-6.308-0.16
			c-43.508-11.816-77.319-37.241-102.021-75.21c-9.815-15.086-17.2-31.371-21.437-48.985c-0.569-2.363-0.482-5.139,0.127-7.502
			c2.58-10,7.436-18.787,14.386-26.413c2.75-3.017,5.903-3.646,9.534-2.495c1.75,0.554,3.508,1.275,5.061,2.25
			c8.137,5.106,15.107,11.514,20.289,19.722c1.34,2.122,2.289,4.567,3.042,6.982c1.321,4.236,0.37,8.309-2.925,11.076
			c-4.01,3.376-8.352,6.479-12.936,8.973c-3.117,1.695-4.67,3.824-5.327,7.135c-1.314,6.635-0.237,12.974,2.144,19.136
			c5.547,14.353,15.33,25.546,26.402,35.692c8.369,7.668,17.478,14.238,28.526,17.415c3.068,0.881,6.273,1.272,8.983,1.806
			c2.633-0.376,4.763-0.611,6.865-1.003c2.956-0.547,4.767-2.211,6.249-5.071c2.33-4.494,5.168-8.814,8.361-12.731
			c3.704-4.545,8.784-5.245,14.084-3.053c2.228,0.924,4.395,2.187,6.31,3.663c6.881,5.313,12.697,11.671,17.319,19.091
			c1.081,1.736,1.948,3.66,2.605,5.6C170.818,208.584,170.194,211.681,167.266,214.38z M81.267,161.394
			c13.034-10.366,26.047-20.759,39.005-31.225c1.056-0.853,1.633-2.31,2.705-3.888c-1.103-1.46-1.854-3.465-3.063-3.809
			c-1.613-0.462-4.056-0.256-5.329,0.735c-13.059,10.173-25.965,20.547-38.884,30.902c-2.619,2.1-2.99,4.716-1.179,6.93
			C76.256,163.163,78.763,163.384,81.267,161.394z"/>
	</g>
</g>
</svg>
