<?xml version="1.0" encoding="utf-8"?>
<!-- Generator: Adobe Illustrator 16.0.0, SVG Export Plug-In . SVG Version: 6.00 Build 0)  -->
<!DOCTYPE svg PUBLIC "-//W3C//DTD SVG 1.1//EN" "http://www.w3.org/Graphics/SVG/1.1/DTD/svg11.dtd">
<svg version="1.1" id="Layer_1" xmlns="http://www.w3.org/2000/svg" xmlns:xlink="http://www.w3.org/1999/xlink" x="0px" y="0px"
	 width="400px" height="400px" viewBox="0 0 400 400" enable-background="new 0 0 400 400" xml:space="preserve">
<g>
	<path fill-rule="evenodd" clip-rule="evenodd" d="M119.375,185.96c-28.035-20.599-43.243-48.276-41.757-83.702
		c1.074-25.596,11.574-47.295,30.388-64.791c38.15-35.478,98.173-32.855,133.651,5.601c34.39,37.277,36.775,103.333-17.667,143.683
		c5.952,1.541,11.119,2.896,16.295,4.219c21.069,5.385,40.572,14.105,58.456,26.588c2.821,1.969,7.011,2.996,10.494,2.84
		c39.913-1.781,76,24.043,86.519,62.252c10.581,38.44-6.922,79.235-42.014,97.927c-35.178,18.736-78.64,10.711-104.41-20.055
		c-5.141-6.14-10.134-8.088-17.832-8.053c-65.535,0.299-131.074,0.183-196.611,0.164c-22.385-0.007-33.184-10.796-33.194-33.044
		c-0.002-6.494,0.282-13.003-0.044-19.481c-1.689-33.662,13.272-59.062,39.048-79.091c20.405-15.854,43.808-25.241,68.676-31.374
		c3.145-0.777,6.299-1.519,9.439-2.314C118.958,187.29,119.008,186.878,119.375,185.96z M279.459,227.136
		c-7.2-3.553-13.071-6.901-19.277-9.437c-45.159-18.433-91.82-19.915-139.104-11.199c-26.714,4.923-51.612,14.66-72.69,32.446
		c-18.602,15.698-29.37,35.081-27.727,60.229c0.422,6.465,0.049,12.98,0.057,19.474c0.015,12.915,2.097,15.096,14.762,15.099
		c62.863,0.021,125.727,0.014,188.589,0.016c2.81,0,5.617,0,8.767,0C219.079,281.451,244.346,244.715,279.459,227.136z
		 M96.532,107.27c0.119,41.75,33.758,75.251,75.534,75.223c42.085-0.029,75.696-34,75.456-76.262
		c-0.238-41.644-34.114-74.92-76.048-74.703C129.688,31.746,96.413,65.377,96.532,107.27z M247.542,305.627
		c0.069,36.152,29.741,65.913,65.934,66.128c36.387,0.216,66.679-30.015,66.571-66.438c-0.104-36.158-29.854-65.939-65.988-66.063
		C277.477,239.13,247.474,269.07,247.542,305.627z"/>
	<path fill-rule="evenodd" clip-rule="evenodd" d="M326.15,305.315c7.469,7.155,13.686,13.026,19.805,19
		c4.697,4.588,5.944,9.796,0.816,14.656c-4.752,4.504-9.732,3.221-14.039-1.187c-5.975-6.117-11.883-12.302-19.209-19.899
		c-6.26,6.703-11.954,12.887-17.747,18.974c-4.565,4.797-9.841,7.361-15.291,1.79c-5.429-5.548-2.805-10.765,2.054-15.285
		c6.029-5.61,12.104-11.167,19.525-18.007c-7.526-6.872-13.886-12.574-20.126-18.404c-4.704-4.396-6.472-9.545-1.472-14.65
		c5.006-5.109,10.152-3.44,14.654,1.197c5.946,6.128,11.811,12.332,19.148,20.007c6.488-7.161,12.153-13.491,17.908-19.738
		c4.354-4.727,9.49-6.653,14.639-1.704c5.569,5.354,3.341,10.641-1.547,15.277C339.279,293.02,333.245,298.65,326.15,305.315z"/>
</g>
</svg>
