<?xml version="1.0" encoding="utf-8"?>
<!-- Generator: Adobe Illustrator 16.0.0, SVG Export Plug-In . SVG Version: 6.00 Build 0)  -->
<!DOCTYPE svg PUBLIC "-//W3C//DTD SVG 1.1//EN" "http://www.w3.org/Graphics/SVG/1.1/DTD/svg11.dtd">
<svg version="1.1" id="Layer_1" xmlns="http://www.w3.org/2000/svg" xmlns:xlink="http://www.w3.org/1999/xlink" x="0px" y="0px"
	 width="256px" height="256px" viewBox="0 0 256 256" enable-background="new 0 0 256 256" xml:space="preserve">
<g>
	<path fill-rule="evenodd" clip-rule="evenodd" d="M92.066,32.24c7.33-21.617,18.272-30.998,35.456-30.739
		c16.457,0.248,27.58,10.178,33.988,30.74c12.397,0,24.973,0.086,37.549-0.038c6.114-0.06,11.778,1.077,17.046,4.34
		c18.9,11.709,18.46,40.633-1.037,51.336c-3.087,1.695-3.618,3.476-3.613,6.498c0.066,43.315,0.05,85.631,0.043,128.946
		c-0.002,20.141-11.993,32.168-32.078,32.172c-35.348,0.008-70.698,0.018-106.047-0.004c-18.798-0.012-31.185-12.334-31.194-31.053
		c-0.024-43.648-0.038-86.295,0.052-129.942c0.007-3.289-0.781-5.066-3.966-6.79c-11.301-6.119-16.94-20.5-13.752-33.5
		c3.057-12.467,14.414-21.649,27.493-21.875c11.613-0.2,23.233-0.075,34.85-0.092C88.647,32.238,90.441,32.24,92.066,32.24z
		 M197.701,92.342c-47.611,0-94.49,0-141.733,0c0,1.973,0,3.604,0,5.236c0,42.16-0.009,83.32,0.005,125.48
		c0.004,13.092,5.612,18.635,18.836,18.639c34.524,0.012,69.049,0.008,103.574,0.002c13.891-0.002,19.314-5.377,19.315-19.158
		c0.008-41.828,0.003-82.654,0.003-124.483C197.701,96.262,197.701,94.465,197.701,92.342z M127.021,78.069c1.659,0,3.318,0,4.978,0
		c22.399-0.001,44.799,0.07,67.198-0.032c12.171-0.056,19.084-8.843,16.366-20.458c-1.843-7.879-7.588-11.784-17.734-11.791
		c-47.288-0.031-94.576-0.019-141.864,0.003c-1.983,0.001-4.019,0.022-5.941,0.443c-5.941,1.302-10.193,4.677-11.811,10.733
		c-3.131,11.72,3.892,21.008,16.135,21.064C78.571,78.145,102.796,78.066,127.021,78.069z M146.475,32.063
		c-0.432-9.088-9.986-16.921-20.177-16.71c-9.693,0.201-18.866,8.188-19.044,16.71C120.327,32.063,133.396,32.063,146.475,32.063z"
		/>
	<path fill-rule="evenodd" clip-rule="evenodd" d="M96.813,178.131c0.001,12.271-0.021,24.543,0.013,36.814
		c0.012,4.197-1.187,7.604-5.697,8.699c-4.563,1.107-8.074-2.352-8.092-8.021c-0.052-17.248-0.02-34.494-0.02-51.742
		c0-7.627-0.04-15.256,0.015-22.883c0.038-5.344,2.31-8.18,6.467-8.295c4.517-0.125,7.228,2.688,7.277,8.115
		C96.887,153.256,96.811,165.693,96.813,178.131z"/>
	<path fill-rule="evenodd" clip-rule="evenodd" d="M170.651,178.332c0,12.271,0.023,24.545-0.01,36.816
		c-0.015,5.41-2.558,8.67-6.651,8.713c-4.115,0.045-7.091-3.277-7.104-8.443c-0.065-24.875-0.074-49.748,0.009-74.623
		c0.018-5.426,2.77-8.229,7.299-8.088c4.15,0.129,6.423,2.959,6.443,8.314C170.683,153.457,170.651,165.895,170.651,178.332z"/>
	<path fill-rule="evenodd" clip-rule="evenodd" d="M119.885,178.707c-0.002-12.441,0-24.881-0.003-37.322
		c-0.001-4.146,1.046-7.648,5.74-8.58c4.917-0.971,8.138,2.395,8.149,8.6c0.036,21.729,0.01,43.457,0.008,65.186
		c-0.001,3.152,0.097,6.307-0.02,9.455c-0.177,4.781-2.683,7.594-6.685,7.727c-4.202,0.141-7.105-2.783-7.15-7.746
		C119.812,203.586,119.887,191.146,119.885,178.707z"/>
</g>
</svg>
