<?xml version="1.0" encoding="utf-8"?>
<!-- Generator: Adobe Illustrator 16.0.0, SVG Export Plug-In . SVG Version: 6.00 Build 0)  -->
<!DOCTYPE svg PUBLIC "-//W3C//DTD SVG 1.1//EN" "http://www.w3.org/Graphics/SVG/1.1/DTD/svg11.dtd">
<svg version="1.1" id="Layer_1" xmlns="http://www.w3.org/2000/svg" xmlns:xlink="http://www.w3.org/1999/xlink" x="0px" y="0px"
	 width="400px" height="400px" viewBox="0 0 400 400" enable-background="new 0 0 400 400" xml:space="preserve">
<path fill-rule="evenodd" clip-rule="evenodd" fill="#231F20" d="M392.207,378.963h-0.184c-4.303,0-7.793-3.483-7.793-7.781
	s3.49-7.781,7.793-7.781h0.184c4.304,0,7.793,3.483,7.793,7.781S396.511,378.963,392.207,378.963z M365.453,284.084v71.535
	c0,2.728-0.453,5.346-1.267,7.781h5.449c4.304,0,7.793,3.483,7.793,7.781s-3.489,7.781-7.793,7.781H31.367
	c-4.303,0-7.793-3.483-7.793-7.781s3.49-7.781,7.793-7.781h5.447c-0.817-2.436-1.264-5.054-1.264-7.781l-0.003-71.535
	c-8.337-3.341-14.285-11.867-14.285-21.838V200c0-12.87,9.904-23.345,22.078-23.345h36.372v-54.207
	c0-4.218,1.673-8.045,4.381-10.887c-12.249-14.681-6.257-37.435,17.133-64.484c1.479-1.713,3.633-2.696,5.896-2.696
	c2.266,0,4.42,0.983,5.899,2.696c4.922,5.693,13.953,17.09,19.142,29.484c7.4,17.678,3.369,28.697-2.12,35.177
	c2.607,2.819,4.217,6.578,4.217,10.71v54.207h38.968V99.11c0-4.223,1.67-8.051,4.378-10.893
	c-12.246-14.681-6.252-37.435,17.136-64.484c1.479-1.71,3.633-2.696,5.896-2.696s4.418,0.986,5.901,2.696
	c4.917,5.693,13.947,17.093,19.139,29.49c7.403,17.672,3.37,28.691-2.12,35.172c2.607,2.819,4.218,6.578,4.218,10.715v77.545h38.965
	v-54.201c0-4.223,1.673-8.051,4.384-10.893c-12.251-14.675-6.258-37.435,17.133-64.484c1.479-1.71,3.633-2.696,5.896-2.696
	s4.418,0.985,5.896,2.696c4.922,5.693,13.952,17.096,19.144,29.49c7.398,17.672,3.37,28.691-2.12,35.171
	c2.607,2.819,4.218,6.578,4.218,10.715v54.201h36.369c12.171,0,22.078,10.475,22.078,23.345v62.246
	C379.738,272.223,373.79,280.749,365.453,284.084z M51.133,334.097H75.32c4.303,0,7.793,3.483,7.793,7.781s-3.49,7.781-7.793,7.781
	H51.133v5.96c0,4.217,2.971,7.775,6.489,7.781h285.753c3.519-0.006,6.486-3.564,6.486-7.781v-49.531h-24.181
	c-4.304,0-7.793-3.484-7.793-7.782c0-4.297,3.489-7.781,7.793-7.781h24.181v-6.44c-8.337-3.335-14.285-11.861-14.285-21.838v-23.155
	c0-5.151-3.701-9.506-8.079-9.506c-4.384,0-8.086,4.354-8.086,9.506v1.988c0,13.827-10.617,25.075-23.665,25.075
	c-13.053,0-23.665-11.248-23.665-25.075v-1.988c0-5.151-3.702-9.506-8.086-9.506c-4.377,0-8.079,4.354-8.079,9.506v16.389
	c0,13.82-10.618,25.069-23.665,25.069c-13.054,0-23.672-11.249-23.672-25.069v-16.389c0-5.151-3.701-9.506-8.079-9.506
	c-4.384,0-8.083,4.354-8.083,9.506v1.988c0,13.827-10.618,25.075-23.668,25.075s-23.668-11.248-23.668-25.075v-1.988
	c0-5.151-3.699-9.506-8.083-9.506c-4.377,0-8.079,4.354-8.079,9.506v31.951c0,13.821-10.618,25.069-23.668,25.069
	s-23.668-11.248-23.668-25.069v-31.951c0-5.151-3.699-9.506-8.079-9.506c-4.381,0-8.083,4.354-8.083,9.506v23.155
	c0,9.977-5.948,18.503-14.288,21.838V334.097z M107.087,64.603c-8.34,11.082-19.147,28.989-10.171,37.951
	c2.607,2.607,6.2,4.051,10.114,4.074h0.097c3.885,0,7.53-1.467,10.26-4.137C125.49,94.583,116.462,77.307,107.087,64.603z
	 M95.292,122.454h0.003v54.201h23.379v-54.201c0-0.132-0.135-0.264-0.264-0.264h-11.274c-0.003,0-0.009,0-0.014,0h-0.187h-11.38
	C95.427,122.19,95.292,122.322,95.292,122.454z M200.603,41.258c-8.34,11.082-19.147,28.989-10.171,37.951
	c2.607,2.607,6.2,4.051,10.114,4.074h0.103c3.885,0,7.524-1.467,10.251-4.131C219.008,71.238,209.978,53.968,200.603,41.258z
	 M188.811,99.11v77.545h23.379V99.11c0-0.126-0.138-0.264-0.264-0.264h-11.271c-0.006,0-0.012,0-0.017,0h-0.184h-11.383
	C188.945,98.846,188.811,98.984,188.811,99.11z M294.119,64.603c-8.338,11.082-19.15,28.989-10.171,37.951
	c2.606,2.607,6.199,4.051,10.113,4.074h0.104c3.885,0,7.523-1.467,10.257-4.131C312.523,94.583,303.493,77.313,294.119,64.603z
	 M282.326,122.454L282.326,122.454v54.201h23.379v-54.201c0-0.132-0.132-0.264-0.264-0.264H294.17c-0.005,0-0.011,0-0.017,0h-0.184
	h-11.38C282.464,122.19,282.326,122.322,282.326,122.454z M364.152,200c0-4.217-2.974-7.781-6.492-7.781H43.343
	c-3.521,0-6.495,3.564-6.495,7.781v62.246c0,4.218,2.974,7.782,6.495,7.782s6.495-3.564,6.495-7.782v-23.155
	c0-13.821,10.615-25.069,23.666-25.069s23.668,11.248,23.668,25.069v31.951c0,5.151,3.702,9.507,8.083,9.507s8.08-4.355,8.08-9.507
	v-31.951c0-13.821,10.618-25.069,23.668-25.069s23.668,11.248,23.668,25.069v1.988c0,5.157,3.702,9.512,8.083,9.512
	c4.38,0,8.079-4.354,8.079-9.512v-1.988c0-13.821,10.618-25.069,23.668-25.069c13.053,0,23.665,11.248,23.665,25.069v16.389
	c0,5.151,3.702,9.506,8.086,9.506c4.378,0,8.079-4.354,8.079-9.506v-16.389c0-13.821,10.618-25.069,23.665-25.069
	c13.054,0,23.672,11.248,23.672,25.069v1.988c0,5.157,3.701,9.512,8.079,9.512c4.384,0,8.079-4.354,8.079-9.512v-1.988
	c0-13.821,10.618-25.069,23.672-25.069c13.047,0,23.665,11.248,23.665,25.069v23.155c0,4.218,2.974,7.782,6.498,7.782
	c3.519,0,6.492-3.564,6.492-7.782V200z M97.71,334.097h0.184c4.303,0,7.793,3.483,7.793,7.781s-3.49,7.781-7.793,7.781H97.71
	c-4.303,0-7.793-3.483-7.793-7.781S93.407,334.097,97.71,334.097z M133.329,308.815h10.131c4.303,0,7.793,3.483,7.793,7.781
	s-3.49,7.781-7.793,7.781h-10.131c-4.303,0-7.793-3.483-7.793-7.781S129.025,308.815,133.329,308.815z M184.762,286.64h14.804
	c4.303,0,7.793,3.483,7.793,7.781s-3.49,7.781-7.793,7.781h-14.804c-4.303,0-7.793-3.483-7.793-7.781S180.459,286.64,184.762,286.64
	z M206.97,334.097h10.131c4.303,0,7.793,3.483,7.793,7.781s-3.49,7.781-7.793,7.781H206.97c-4.304,0-7.793-3.483-7.793-7.781
	S202.666,334.097,206.97,334.097z M250.61,301.423h10.131c4.303,0,7.793,3.484,7.793,7.782c0,4.297-3.49,7.781-7.793,7.781H250.61
	c-4.304,0-7.793-3.484-7.793-7.781C242.817,304.907,246.307,301.423,250.61,301.423z M299.316,334.097h17.924
	c4.303,0,7.793,3.483,7.793,7.781s-3.49,7.781-7.793,7.781h-17.924c-4.304,0-7.793-3.483-7.793-7.781
	S295.013,334.097,299.316,334.097z M303.287,306.088h-0.184c-4.303,0-7.793-3.484-7.793-7.782c0-4.297,3.49-7.781,7.793-7.781h0.184
	c4.309,0,7.793,3.484,7.793,7.781C311.08,302.604,307.596,306.088,303.287,306.088z M8.977,378.963H8.793
	c-4.303,0-7.793-3.483-7.793-7.781s3.49-7.781,7.793-7.781h0.184c4.303,0,7.793,3.483,7.793,7.781S13.28,378.963,8.977,378.963z"/>
</svg>
