<?xml version="1.0" encoding="utf-8"?>
<!-- Generator: Adobe Illustrator 16.0.0, SVG Export Plug-In . SVG Version: 6.00 Build 0)  -->
<!DOCTYPE svg PUBLIC "-//W3C//DTD SVG 1.1//EN" "http://www.w3.org/Graphics/SVG/1.1/DTD/svg11.dtd">
<svg version="1.1" id="Layer_1" xmlns="http://www.w3.org/2000/svg" xmlns:xlink="http://www.w3.org/1999/xlink" x="0px" y="0px"
	 width="256px" height="256px" viewBox="0 0 256 256" enable-background="new 0 0 256 256" xml:space="preserve">
<g>
	<path fill-rule="evenodd" clip-rule="evenodd" d="M120.913,255.867c-28.672,0-56.346,0.047-85.019-0.021
		c-13.627-0.032-24.721-5.116-30.827-17.792c-2.219-4.607-3.483-10.146-3.506-15.267c-0.245-54.196-0.204-108.393-0.126-162.59
		C1.464,40.731,14.688,27.383,34.143,27.18c17.897-0.188,35.799-0.067,53.699-0.028c4.775,0.01,8.037,2.634,7.718,6.384
		c-0.379,4.456-3.355,6.108-7.553,6.106C70.604,39.633,53.2,39.567,35.798,39.68c-11.523,0.075-18.708,5.065-21.008,14.458
		c-0.542,2.214-0.577,4.593-0.579,6.896c-0.03,53.534-0.043,107.066-0.01,160.602c0.009,14.025,7.474,21.44,21.506,21.445
		c57.511,0.021,114.021,0.018,171.533,0.002c14.486-0.004,21.9-7.536,21.915-22.194c0.016-16.573,0.002-33.148,0.006-49.721
		c0.002-1.326-0.45-2.997,0.177-3.906c1.461-2.11,3.285-5.126,5.277-5.39c2.009-0.267,4.695,2.047,6.498,3.824
		c0.932,0.919,0.789,3.126,0.793,4.75c0.051,17.072,0.123,34.144,0.004,51.214c-0.112,16.366-9.198,28.97-23.71,32.711
		c-3.953,1.02-8.167,1.417-12.264,1.435C177.596,255.925,149.255,255.868,120.913,255.867z"/>
	<path fill-rule="evenodd" clip-rule="evenodd" d="M219.509,1.536c4.627,1.596,9.852,2.313,13.766,4.963
		c9.498,6.43,18.241,13.92,20.965,25.953c1.99,8.793-0.061,16.735-5.698,23.731c-1.347,1.671-2.863,3.216-4.385,4.736
		c-35.835,35.855-71.64,71.742-107.616,107.455c-2.665,2.645-6.363,4.786-9.968,5.855c-15.831,4.69-31.799,8.925-47.729,13.277
		c-7.516,2.052-11.017-1.551-8.914-9.196c4.556-16.561,9.105-33.124,13.852-49.629c0.697-2.423,2.039-4.962,3.801-6.733
		c36.583-36.747,73.26-73.4,109.945-110.046C203.495,5.942,210.585,2.385,219.509,1.536z M192.02,36.558
		c-30.349,30.349-60.987,60.989-91.368,91.369c9.514,9.508,19.293,19.281,28.802,28.783c30.359-30.36,61.001-61.002,91.394-91.396
		C211.35,55.84,201.543,46.059,192.02,36.558z M201.984,25.683c10.107,10.107,19.872,19.871,29.727,29.726
		c6.005-5.241,12.966-11.172,9.939-20.829c-2.882-9.2-9.973-15.946-18.974-18.858C213.128,12.63,207.126,19.713,201.984,25.683z
		 M115.706,164.251c-7.542-7.536-15.101-15.088-22.594-22.575c-2.66,9.626-5.518,19.97-8.636,31.25
		C95.839,169.769,106.185,166.896,115.706,164.251z"/>
</g>
</svg>
