<?xml version="1.0" encoding="utf-8"?>
<!-- Generator: Adobe Illustrator 16.0.0, SVG Export Plug-In . SVG Version: 6.00 Build 0)  -->
<!DOCTYPE svg PUBLIC "-//W3C//DTD SVG 1.1//EN" "http://www.w3.org/Graphics/SVG/1.1/DTD/svg11.dtd">
<svg version="1.1" id="Layer_1" xmlns="http://www.w3.org/2000/svg" xmlns:xlink="http://www.w3.org/1999/xlink" x="0px" y="0px"
	 width="256px" height="256px" viewBox="0 0 256 256" enable-background="new 0 0 256 256" xml:space="preserve">
<path fill-rule="evenodd" clip-rule="evenodd" d="M255.219,131.626c-0.124,5.639-4.763,10.111-10.36,9.987
	c-2.091-0.048-4.02-0.729-5.608-1.856c-2.668-1.896-4.386-5.048-4.308-8.583c0.051-2.151,0.03-4.341-0.055-6.493
	c-0.219-5.639,4.14-10.388,9.73-10.609c5.601-0.219,10.313,4.167,10.536,9.806C255.253,126.446,255.272,129.054,255.219,131.626z
	 M242.409,101.832c-3.172,1.058-6.494,0.452-9.037-1.352c-1.71-1.218-3.068-2.977-3.777-5.132c-0.674-2.053-1.42-4.109-2.214-6.111
	c-2.083-5.242,0.452-11.185,5.65-13.279c5.199-2.093,11.098,0.455,13.178,5.694c0.948,2.384,1.837,4.834,2.639,7.273
	C250.609,94.281,247.725,100.053,242.409,101.832z M217.288,53.757l-34.413,3.104c-3.859,0.348-5.211-1.989-3.012-5.197
	l7.925-11.535C150.896,15.354,103.729,16.98,68.987,41.09c-0.12,0.085-0.24,0.171-0.362,0.257
	c-9.859,6.905-18.702,15.619-26.01,26.064C9.011,115.46,20.479,182.093,68.184,215.942c3.271,2.319,6.638,4.438,10.088,6.349
	c0.01,0.004,0.021,0.011,0.028,0.019c1.881,1.033,3.82,2.019,5.762,2.938c0.105,0.049,0.192,0.107,0.29,0.159
	c8.248,3.893,16.945,6.688,26.01,8.327c5.511,0.992,9.178,6.302,8.189,11.859c-0.988,5.549-6.256,9.245-11.767,8.246
	c-18.17-3.281-35.088-10.412-50.283-21.197c-5.806-4.12-11.197-8.673-16.154-13.601c-0.013-0.013-0.033-0.023-0.048-0.04
	c-0.043-0.044-0.087-0.092-0.13-0.135c-18.45-18.409-30.764-42.069-35.288-68.364c-0.444-2.576-0.8-5.152-1.083-7.726
	c-0.029-0.163-0.065-0.321-0.078-0.485c-0.275-2.56-0.476-5.156-0.592-7.719c-0.001-0.089,0.003-0.175,0-0.26
	C1.949,108.08,8.834,82.316,23.11,60.032c0.096-0.164,0.178-0.329,0.286-0.489c0.862-1.341,1.764-2.682,2.678-3.993
	c0.56-0.797,1.13-1.598,1.703-2.377c0.139-0.189,0.292-0.36,0.437-0.534c17.3-23.297,41.547-39.621,69.336-46.809
	c0.118-0.034,0.243-0.076,0.365-0.106c0.02-0.003,0.037-0.007,0.063-0.011c3.156-0.804,6.356-1.499,9.602-2.063
	c32.229-5.629,64.698,1.351,91.769,19.656l7.941-11.562c2.203-3.206,4.853-2.757,5.886,1.002l9.244,33.541
	C223.457,50.044,221.147,53.408,217.288,53.757z M148.301,233.641c2.104-0.391,4.221-0.854,6.303-1.376
	c5.437-1.364,10.938,1.968,12.289,7.442c1.359,5.471-1.953,11.018-7.386,12.38c-2.481,0.621-5.006,1.173-7.515,1.642
	c-2.791,0.524-5.532-0.164-7.685-1.693c-2.091-1.481-3.63-3.757-4.134-6.488C139.159,240.002,142.796,234.672,148.301,233.641z
	 M193.211,176.729c-1.27,0-2.557-0.298-3.761-0.925l-74.757-38.929V54.537c0-4.564,3.672-8.266,8.21-8.266
	c4.526,0,8.197,3.702,8.197,8.266v72.275l65.884,34.31c4.027,2.095,5.602,7.076,3.521,11.134
	C199.048,175.096,196.182,176.729,193.211,176.729z M182.061,221.098c1.86-1.078,3.708-2.228,5.495-3.419
	c4.673-3.108,10.961-1.816,14.052,2.893c3.082,4.708,1.799,11.045-2.871,14.154c-2.131,1.417-4.327,2.785-6.542,4.072
	c-3.538,2.05-7.783,1.717-10.911-0.5c-1.166-0.829-2.18-1.916-2.938-3.243C175.546,230.165,177.209,223.921,182.061,221.098z
	 M213.74,192.85c3.362-4.512,9.713-5.434,14.199-2.042c4.474,3.388,5.385,9.789,2.024,14.303c-1.535,2.063-3.155,4.101-4.813,6.062
	c-3.422,4.051-9.314,4.742-13.55,1.731c-0.257-0.177-0.503-0.369-0.747-0.574c-4.26-3.658-4.771-10.106-1.145-14.402
	C211.099,196.285,212.454,194.577,213.74,192.85z M228.017,166.72c0.767-2.021,1.479-4.088,2.118-6.144
	c1.677-5.387,7.367-8.383,12.711-6.693c5.342,1.688,8.315,7.418,6.642,12.801c-0.763,2.445-1.608,4.905-2.519,7.311
	c-1.994,5.273-7.853,7.917-13.087,5.906c-0.812-0.308-1.557-0.716-2.233-1.197C227.948,176.078,226.335,171.175,228.017,166.72z"/>
</svg>
