<?xml version="1.0" encoding="utf-8"?>
<!-- Generator: Adobe Illustrator 16.0.0, SVG Export Plug-In . SVG Version: 6.00 Build 0)  -->
<!DOCTYPE svg PUBLIC "-//W3C//DTD SVG 1.1//EN" "http://www.w3.org/Graphics/SVG/1.1/DTD/svg11.dtd">
<svg version="1.1" id="Layer_1" xmlns="http://www.w3.org/2000/svg" xmlns:xlink="http://www.w3.org/1999/xlink" x="0px" y="0px"
	 width="400px" height="400px" viewBox="0 0 400 400" enable-background="new 0 0 400 400" xml:space="preserve">
<g>
	<g>
		<path fill-rule="evenodd" clip-rule="evenodd" d="M399.899,300.193c-0.64-7.284-5.174-10.738-12.037-11.449
			c-2.546-0.264-5.138-0.071-7.71-0.071c-75.517,0-151.039-0.055-226.556,0.107c-5.777,0.01-8.734-1.172-11.286-7.214
			c-7.273-17.215-20.518-27.826-39.386-30.038c-19.544-2.292-38.18,3.521-46.052,21.126c-7.847,17.561-19.66,16.475-33.503,16.034
			c-2.891-0.097-5.788,0.011-8.679-0.016c-8.09-0.07-13.893,2.881-14.583,11.81c-0.609,7.836,4.838,13.015,14.243,13.354
			c8.344,0.31,16.729,0.427,25.058-0.04c6.203-0.346,9.216,1.389,12.016,7.654c8.466,18.935,23.491,29.535,44.571,29.678
			c25.107,0.173,40.401-13.685,49.506-37.216h10.951c74.233,0,148.468,0.005,222.701-0.02c3.521-0.005,7.178,0.243,10.53-0.599
			C396.212,311.656,400.548,307.659,399.899,300.193z M96.801,326.792c-13.548,0.056-25.113-11.515-25.291-25.302
			c-0.183-14.339,11.443-26.122,25.57-25.919c13.746,0.203,24.783,11.661,24.763,25.717
			C121.828,315.09,110.396,326.73,96.801,326.792z M12.205,112.277c2.875,0.243,5.782,0.061,8.679,0.061
			c34.055,0.005,68.116,0,102.481,0c1.055,2.638,1.861,5.068,2.973,7.355c9.242,19.051,24.002,30.028,45.499,30.14
			c21.471,0.111,36.941-10.398,45.615-29.694c2.992-6.66,6.355-7.954,12.777-7.923c47.893,0.229,95.791,0.127,143.689,0.122
			c4.818,0,9.683,0.355,14.451-0.147c6.853-0.725,11.251-4.483,11.564-11.849c0.315-7.426-4.083-11.276-10.601-12.904
			c-2.734-0.686-5.752-0.325-8.639-0.325c-50.794-0.015-101.583-0.091-152.373,0.102c-5.509,0.016-8.121-1.486-10.53-6.898
			c-8.598-19.335-23.597-30.236-45.114-30.444c-21.938-0.213-37.418,10.602-46.138,30.318c-2.694,6.091-5.803,7.045-11.448,7.01
			c-31.499-0.203-63.004-0.106-94.508-0.092c-3.211,0.005-6.533-0.385-9.612,0.294c-7.025,1.557-11.535,5.676-10.87,13.564
			C0.721,108.306,5.296,111.694,12.205,112.277z M172.375,74.22c13.639,0.147,24.768,11.504,24.925,25.428
			c0.157,13.862-10.748,25.392-24.449,25.854c-13.914,0.466-25.758-11.144-25.895-25.387C146.814,85.86,158.39,74.062,172.375,74.22
			z M369.643,188.043c-6.554,0.674-9.268-2.003-11.935-7.893c-8.785-19.407-24.222-29.719-45.636-29.582
			c-21.051,0.132-35.68,10.88-45.018,29.415c-1.258,2.506-2.15,5.194-3.262,7.923H20.396c-2.891,0-5.848-0.335-8.664,0.142
			c-7.111,1.197-11.844,4.971-11.666,12.874c0.167,7.42,4.809,10.92,11.489,12.031c2.82,0.467,5.772,0.152,8.663,0.152
			c80.97,0.006,161.94,0.006,243.67,0.006c1.081,2.668,1.883,4.777,2.771,6.842c15.019,34.766,61.73,42.902,83.308,12.098
			c10.733-15.323,20.365-21.405,37.84-19.301c6.873,0.827,12.063-4.245,12.108-12.143c0.045-7.877-4.86-11.793-11.981-12.539
			C381.893,187.434,375.685,187.414,369.643,188.043z M313.081,226.183c-13.821,0.375-25.65-11.419-25.762-25.682
			c-0.107-13.761,11.042-25.332,24.758-25.676c13.807-0.35,25.768,11.514,25.838,25.635
			C337.991,213.979,326.559,225.816,313.081,226.183z"/>
	</g>
</g>
</svg>
