<?xml version="1.0" encoding="utf-8"?>
<!-- Generator: Adobe Illustrator 16.0.0, SVG Export Plug-In . SVG Version: 6.00 Build 0)  -->
<!DOCTYPE svg PUBLIC "-//W3C//DTD SVG 1.1//EN" "http://www.w3.org/Graphics/SVG/1.1/DTD/svg11.dtd">
<svg version="1.1" id="Layer_1" xmlns="http://www.w3.org/2000/svg" xmlns:xlink="http://www.w3.org/1999/xlink" x="0px" y="0px"
	 width="256px" height="256px" viewBox="0 0 256 256" enable-background="new 0 0 256 256" xml:space="preserve">
<path fill-rule="evenodd" clip-rule="evenodd" d="M254.635,113.055c-1.299,1.781-3.311,2.723-5.354,2.723
	c-1.359,0-2.733-0.419-3.91-1.287L128.383,28.483L11.396,114.491c-2.954,2.17-7.1,1.53-9.264-1.437
	c-2.162-2.967-1.521-7.131,1.432-9.302L124.47,14.867c2.329-1.714,5.497-1.714,7.831,0l120.901,88.886
	C256.155,105.923,256.797,110.088,254.635,113.055z M35.602,116c3.66,0,6.628,2.979,6.628,6.653v105.919h53.016v-57.815
	c0-18.348,14.866-33.275,33.137-33.275c18.272,0,33.139,14.924,33.139,33.275v57.815h53.017V122.653
	c0-3.674,2.967-6.658,6.629-6.658c3.657,0,6.628,2.983,6.628,6.658v112.576c0,3.674-2.967,6.653-6.628,6.653h-66.271
	c-3.49,0-6.339-2.707-6.604-6.143c-0.013-0.154-0.025-0.322-0.025-0.511v-64.473c0-11.011-8.92-19.969-19.885-19.969
	c-10.962,0-19.882,8.958-19.882,19.969v64.473c0,0.192-0.011,0.36-0.027,0.516c-0.264,3.436-3.115,6.138-6.601,6.138h-66.27
	c-3.66,0-6.626-2.979-6.626-6.653V122.653C28.976,118.979,31.942,116,35.602,116z"/>
</svg>
