<?xml version="1.0" encoding="utf-8"?>
<!-- Generator: Adobe Illustrator 16.0.0, SVG Export Plug-In . SVG Version: 6.00 Build 0)  -->
<!DOCTYPE svg PUBLIC "-//W3C//DTD SVG 1.1//EN" "http://www.w3.org/Graphics/SVG/1.1/DTD/svg11.dtd">
<svg version="1.1" id="Layer_1" xmlns="http://www.w3.org/2000/svg" xmlns:xlink="http://www.w3.org/1999/xlink" x="0px" y="0px"
	 width="256px" height="256px" viewBox="0 0 256 256" enable-background="new 0 0 256 256" xml:space="preserve">
<g>
	<path fill-rule="evenodd" clip-rule="evenodd" d="M53.861,63.245c-0.733-16.5,13.246-25.459,25.351-21.264
		c3.815,1.322,7.554,4.244,10.159,7.399c5.911,7.165,5.192,22.247-0.869,29.289c-5.579,6.482-12.747,8.133-20.793,5.958
		c-7.329-1.981-12.621-8.617-13.452-16.394C54.08,66.576,53.991,64.908,53.861,63.245z M62.309,64.114
		c0.021,0.386,0.03,1.636,0.161,2.875c0.538,5.061,3.986,9.006,8.628,9.928c5.167,1.026,10.482-0.847,12.173-5.624
		c1.369-3.868,1.473-8.396,1.214-12.573c-0.336-5.441-5.411-9.419-10.886-9.424C66.579,49.291,62.301,54.577,62.309,64.114z"/>
	<path fill-rule="evenodd" clip-rule="evenodd" d="M122.398,63.041c-0.678-16.123,12.963-25.018,25.601-21.208
		c4.938,1.488,8.451,4.68,11.044,9.002c4.948,8.253,3.281,23.064-3.269,29.223c-6.11,5.747-13.359,6.954-20.904,4.086
		c-7.323-2.782-11.429-8.574-12.151-16.526C122.581,66.095,122.504,64.567,122.398,63.041z M153.396,63.245
		c0.006-8.973-4.75-14.432-12.132-13.926c-6.063,0.417-10.194,5.288-10.427,12.297c-0.309,9.322,2.975,14.577,9.636,15.42
		C148.381,78.039,153.391,72.693,153.396,63.245z"/>
	<path fill-rule="evenodd" clip-rule="evenodd" d="M23.311,134.372c1.152,1.586,3.188,3.173,3.185,4.755
		c-0.002,1.348-2.57,3.933-3.617,3.75c-1.644-0.286-3.755-2.242-4.158-3.866c-0.299-1.209,1.793-3.008,2.82-4.547
		C22.132,134.434,22.721,134.402,23.311,134.372z"/>
	<g>
		<path d="M86.953,200.458C86.95,200.034,86.95,200.469,86.953,200.458L86.953,200.458z"/>
		<path d="M155.482,201.261C155.479,200.416,155.481,201.903,155.482,201.261L155.482,201.261z"/>
		<path d="M172.197,202.504C172.197,192.432,172.152,201.371,172.197,202.504L172.197,202.504z"/>
		<path d="M43.505,203.648C43.506,202.043,43.505,198.576,43.505,203.648L43.505,203.648z"/>
		<path d="M172.317,197.658c0,0.009-0.002,0.019-0.002,0.028c-0.062,4.376-0.098,5.299-0.118,4.817c0,0.066,0,0.125,0,0.191
			c0,1.462,0,2.923,0,4.278c-3.114,0-5.57,0-8.135,0c0-22.444,0-5.377,0-27.74c0.377,0,0.749,0,1.126,0
			c-0.335-2.227-0.511-4.505-0.511-6.824c0-0.707,0.021-1.408,0.053-2.108c-0.298,0-0.59,0-0.89,0c0-7.476,0-14.813,0-22.147
			c0-2.227-0.049-4.454,0.012-6.68c0.085-3.102-0.078-6.317-4.095-6.395c-4-0.074-4.32,3.035-4.294,6.206
			c0.064,7.79,0.021,15.583,0.021,23.373c0,4.588,0,9.174,0,13.79c-5.034-0.896-8.932-5.212-9.064-10.889
			c-0.242-10.43-0.326-20.877,0.041-31.297c0.275-7.789,5.993-13.894,13.759-14.269c10.678-0.516,21.418-0.535,32.097-0.025
			c4.536,0.216,8.299,2.269,10.786,5.454c2.319-0.364,4.696-0.558,7.118-0.558c0.75,0,1.497,0.021,2.24,0.057
			c-2.458-5.235-6.82-9.21-12.89-11.96c-2.056-0.931-4.353-1.332-6.749-2.039c3.964-7.167,4.132-14.524,2.401-21.808
			c-2.129-8.955-10.961-14.889-20.104-14.191c-9.603,0.733-17.468,7.665-18.021,17.129c-0.369,6.319,0.845,12.73,1.292,18.38
			c-5.281,3.056-11.044,6.388-17.156,9.924c-3.748-5.077-9.721-8.234-16.767-9.488c5.554-12.744,3.919-24.664-4.106-31.547
			c-6.459-5.54-15.712-5.995-23.29-1.146c-9.296,5.948-11.078,15.533-6.349,31.79c-6.065,3.502-11.929,6.887-18.02,10.404
			c-3.826-5.027-9.583-8.318-16.955-9.417c3.693-6.448,3.797-13.067,2.872-19.743c-1.276-9.222-9.627-16.38-18.817-16.36
			c-10.02,0.023-18.371,6.872-19.784,16.305c-1.022,6.821-0.527,13.491,2.763,19.753C6.708,117.3,0.886,124.964,0.887,141.265
			c0,8.495-0.107,16.992,0.041,25.483c0.137,7.814,3.679,13.891,10.277,18.041c2.204,1.388,4.706,2.299,7.23,3.504
			c0,20.016-0.007,0.786,0.005,20.835c0.004,5.272,1.132,6.42,6.302,6.432c8.356,0.021,16.712,0.006,25.068,0.006
			c10.408,0,10.408,0,10.408-10.275c0-5.182,0-7.373,0-8.212c0-0.013,0-0.136,0-0.466c0-0.816,0-2.901,0-7.738
			c4.88-3.037,9.288-5.778,13.226-8.229c3.482,2.124,6.81,4.728,10.575,6.248c2.506,1.014,2.984,2.161,2.976,4.491
			c-0.026,7.869-0.039,9.057-0.043,9.074c0.003,0.55,0.009,2.555,0.015,8.889c0.004,4.972,1.214,6.198,6.101,6.211
			c9.608,0.025,19.219,0.014,28.827,0.006c5.829-0.005,6.841-0.993,6.844-6.731c0.009-18.94-0.034,1.396,0.083-17.544
			c0.01-1.329,0.811-3.186,1.853-3.878c3.753-2.488,7.766-4.582,11.444-6.69c4.085,2.526,8.5,5.257,13.364,8.263
			c0,0.82,0,2.347,0,3.873c0,5.903-0.001,7.874-0.002,8.405c0.001,0.655,0.007,2.722,0.013,8.304c0.007,4.707,1.26,5.976,5.899,5.99
			c10.166,0.033,20.333-0.02,30.499,0.025c1.026,0.005,1.89-0.14,2.62-0.41C185.385,211.816,177.632,205.622,172.317,197.658z
			 M178.741,85.443c6.085,1.314,9.137,6.281,8.984,14.511c-0.133,7.17-3.508,11.756-9.459,12.856
			c-7.945,1.468-13.282-4.12-13.245-13.864C164.454,88.004,172.719,84.143,178.741,85.443z M27.66,98.774
			c0.469-2.296,0.605-4.726,1.473-6.858c2.033-4.995,7.535-7.64,12.666-6.447c5.742,1.334,8.831,5.978,8.878,13.344
			c0.049,7.696-2.96,12.416-8.743,13.887C35.134,114.429,27.234,109.957,27.66,98.774z M51.603,206.935c-2.552,0-5.1,0-8.098,0
			c0-1.366,0-2.441,0-3.286c-0.001,1.281-0.002,1.373-0.007-5.018c0-1.249,0.358-2.824-0.252-3.672
			c-0.942-1.312-2.576-2.921-3.917-2.921s-2.975,1.608-3.918,2.918c-0.611,0.848-0.255,2.423-0.255,3.672
			c-0.004,6.155-0.006,6.297-0.007,5.15c0,0.812,0,1.831,0,3.097c-2.693,0-5.24,0-8.08,0c0-22.119,0-5.06,0-27.608
			c8.039,0,16.155,0,24.534,0C51.603,201.524,51.603,184.454,51.603,206.935z M69.345,166.773
			c-0.092,5.818-3.443,10.084-9.127,11.93c0-13.034-0.024-25.689,0.018-38.345c0.011-3.077-1.006-5.396-4.378-5.298
			c-3.127,0.094-4.026,2.382-4.012,5.253c0.046,9.863,0.018,19.729,0.018,29.928c-8.312,0-16.421,0-25.071,0
			c0-4.769-0.061-9.591,0.021-14.41c0.053-3.147-0.692-5.816-4.369-5.721c-3.412,0.088-4.057,2.688-4.031,5.647
			c0.067,7.594,0.022,15.188,0.022,22.907c-5.578-1.706-8.983-5.754-9.095-11.383c-0.203-10.152-0.262-20.315,0.01-30.464
			c0.219-8.188,5.912-14.459,14.09-14.858c10.539-0.512,21.141-0.523,31.679-0.013c8.367,0.404,14.022,6.781,14.212,15.196
			C69.555,147.016,69.502,156.899,69.345,166.773z M99.626,88.848c3.137-3.425,7.811-4.528,12.206-2.878
			c5.134,1.925,7.439,6.178,7.369,13.597c-0.073,7.81-3.755,12.582-10.316,13.368c-0.138,0.017-0.275,0.048-0.413,0.06
			c-4.615,0.403-8.709-1.993-10.792-6.318C95.268,101.665,96.265,92.52,99.626,88.848z M120.042,207.006c-2.504,0-4.96,0-8.012,0
			c0-1.456,0-2.926,0-4.396c0-0.053,0-0.1,0-0.152c-0.018,1.152,0-11.306,0,0c0.005-0.317,0.012-1.672,0.023-4.854
			c0.01-2.945-0.563-5.58-3.978-5.708c-3.672-0.138-4.435,2.507-4.423,5.674c0.01,2.904,0.017,4.256,0.021,4.676
			c0-0.028,0-0.059,0-0.087c0-11.717,0.018,1.783,0,0.087c0,1.48,0,2.966,0,4.774c-3.029,0-5.484,0-8.145,0
			c0-22.402,0-5.338,0-27.815c8.143,0,16.155,0,24.514,0C120.042,201.473,120.042,184.499,120.042,207.006z M137.877,166.662
			c-0.083,5.812-3.284,9.999-9.133,12.143c0-12.195,0-24.015,0-35.835c0-1.113,0.008-2.227-0.008-3.339
			c-0.038-2.804-1.404-4.628-4.247-4.581c-2.86,0.047-4.101,1.961-4.1,4.739c0.004,8.625,0,17.253-0.002,25.878
			c0,1.499,0,2.996,0,4.692c-8.431,0-16.448,0-25.07,0c0-2.996,0-6,0-9.001c-0.001-7.096-0.025-14.193,0.008-21.29
			c0.014-2.935-1.137-5.047-4.243-5.012c-3.122,0.035-4.144,2.225-4.135,5.128c0.034,11.269,0.013,22.54,0.012,33.81
			c0,1.498,0,2.996,0,4.567c-5.452-1.345-9.019-5.694-9.118-11.57c-0.169-10.016-0.235-20.039,0.021-30.051
			c0.215-8.378,5.94-14.617,14.397-15.021c10.402-0.498,20.865-0.497,31.268,0.01c8.417,0.409,14.113,6.706,14.319,15.098
			C138.091,146.9,138.018,156.785,137.877,166.662z"/>
		<path d="M35.149,203.778C35.148,198.313,35.147,202.227,35.149,203.778L35.149,203.778z"/>
	</g>
	<path fill-rule="evenodd" clip-rule="evenodd" d="M210.221,126.865c-25.153,0-45.543,20.391-45.543,45.544
		s20.39,45.544,45.543,45.544s45.544-20.391,45.544-45.544S235.374,126.865,210.221,126.865z M210.221,209.597
		c-20.538,0-37.187-16.649-37.187-37.188c0-20.537,16.648-37.188,37.187-37.188c20.539,0,37.187,16.65,37.187,37.188
		C247.407,192.947,230.76,209.597,210.221,209.597z"/>
	<g>
		<path fill="#010101" d="M214.114,148.909v18.897h18.117v8.146h-18.117v19.071h-8.496v-19.071h-18.115v-8.146h18.115v-18.897
			H214.114z"/>
	</g>
</g>
</svg>
