<?xml version="1.0" encoding="utf-8"?>
<!-- Generator: Adobe Illustrator 16.0.0, SVG Export Plug-In . SVG Version: 6.00 Build 0)  -->
<!DOCTYPE svg PUBLIC "-//W3C//DTD SVG 1.1//EN" "http://www.w3.org/Graphics/SVG/1.1/DTD/svg11.dtd">
<svg version="1.1" id="Layer_1" xmlns="http://www.w3.org/2000/svg" xmlns:xlink="http://www.w3.org/1999/xlink" x="0px" y="0px"
	 width="400px" height="400px" viewBox="0 0 400 400" enable-background="new 0 0 400 400" xml:space="preserve">
<path fill-rule="evenodd" clip-rule="evenodd" fill="#231F20" d="M398.488,313.808c0,48.196-87.123,85.437-198.744,85.437
	S1,362.004,1,313.808c0-37.729,54.188-70.183,137.093-81.3c-23.687-44.3-46.645-94.524-46.645-122.516
	c0-59.149,47.374-108.236,104.888-108.236c57.514,0,104.888,48.196,104.888,108.236c0,38.54-42.344,114.728-46.238,122.029
	C341.379,241.919,398.488,274.78,398.488,313.808z M284.27,109.992c0-50.792-38.855-91.36-87.933-91.36
	c-48.185,0-87.934,40.569-87.934,91.36c0,43.165,65.95,153.995,87.934,190.345C208.181,281.676,284.27,155.429,284.27,109.992z
	 M246.227,248.169c-22.066,39.838-49.808,83.406-49.808,83.406s-28.311-44.867-49.484-83.083
	c-73.818,8.518-128.981,36.512-128.981,65.315c0,32.942,72.684,68.479,181.791,68.479c109.105,0,181.789-35.456,181.871-68.479
	C381.615,283.787,324.101,256.2,246.227,248.169z M152.37,99.85c0-24.584,19.469-43.164,43.967-43.164s43.967,19.472,43.967,43.975
	c0,24.504-19.469,43.165-43.967,43.165S152.37,124.435,152.37,99.85z M223.512,100.661c0.812-15.252-11.842-27.099-27.093-27.099
	s-27.096,11.847-27.096,27.099c0,14.362,11.844,27.1,27.096,27.1S223.512,115.915,223.512,100.661z"/>
</svg>
