<?xml version="1.0" encoding="utf-8"?>
<!-- Generator: Adobe Illustrator 16.0.0, SVG Export Plug-In . SVG Version: 6.00 Build 0)  -->
<!DOCTYPE svg PUBLIC "-//W3C//DTD SVG 1.1//EN" "http://www.w3.org/Graphics/SVG/1.1/DTD/svg11.dtd">
<svg version="1.1" id="Layer_1" xmlns="http://www.w3.org/2000/svg" xmlns:xlink="http://www.w3.org/1999/xlink" x="0px" y="0px"
	 width="256px" height="256px" viewBox="0 0 256 256" enable-background="new 0 0 256 256" xml:space="preserve">
<g>
	<path fill-rule="evenodd" clip-rule="evenodd" d="M245.326,133.484c-0.956,33.398-8.516,56.102-24.115,75.625
		c-26.273,32.885-60.764,48.787-102.71,44.554c-43.511-4.393-75.323-27.555-93.878-67.102
		C4.031,142.677,13.953,90.246,49.027,56.444c6.011-5.793,12.917-10.716,19.721-15.608c5.947-4.278,10.005-3.875,12.88,0.378
		c2.81,4.153,1.277,8.063-4.84,11.941C58.435,64.795,44.47,80.33,36.637,100.647c-14.358,37.24-9.522,72.369,16.224,102.765
		c27.39,32.34,63.268,43.638,104.117,32.028c39.897-11.34,64.764-38.729,71.57-79.877c7.195-43.5-9.358-77.586-45.711-102.223
		c-0.955-0.646-1.952-1.238-2.854-1.951c-3.377-2.675-4.685-5.938-2.383-9.929c2.084-3.614,6.483-4.958,10.271-2.335
		c7.43,5.145,15.078,10.212,21.569,16.427C233.941,79.011,245.354,108.127,245.326,133.484z"/>
	<path fill-rule="evenodd" clip-rule="evenodd" d="M137.078,43.174c0,2.884,0,4.852,0,6.818c0,39.388,0.006,78.775-0.015,118.162
		c-0.001,2.135,0.021,4.309-0.348,6.399c-0.652,3.724-3.059,5.772-6.854,5.83c-4.019,0.063-6.545-2.009-7.228-5.979
		c-0.332-1.93-0.318-3.936-0.318-5.907c-0.018-39.551-0.013-79.104-0.013-118.656c0-1.955,0-3.91,0-6.678
		c-3.593,0-6.815,0.019-10.039-0.005c-3.699-0.028-7.469-0.979-8.268-4.817c-0.551-2.643,0.249-6.208,1.743-8.523
		c5.261-8.16,11.019-16.005,16.711-23.883c4.73-6.547,9.885-6.472,14.578,0.111c5.543,7.78,11.262,15.454,16.401,23.495
		c1.562,2.444,2.477,6.18,1.871,8.924c-0.899,4.083-5.005,4.71-8.826,4.708C143.551,43.173,140.624,43.174,137.078,43.174z"/>
</g>
</svg>
