<?xml version="1.0" encoding="utf-8"?>
<!-- Generator: Adobe Illustrator 16.0.0, SVG Export Plug-In . SVG Version: 6.00 Build 0)  -->
<!DOCTYPE svg PUBLIC "-//W3C//DTD SVG 1.1//EN" "http://www.w3.org/Graphics/SVG/1.1/DTD/svg11.dtd">
<svg version="1.1" id="Layer_1" xmlns="http://www.w3.org/2000/svg" xmlns:xlink="http://www.w3.org/1999/xlink" x="0px" y="0px"
	 width="400px" height="400px" viewBox="0 0 400 400" enable-background="new 0 0 400 400" xml:space="preserve">
<g>
	<path fill-rule="evenodd" clip-rule="evenodd" d="M108.475,147.743c0-17.479,0.153-33.985-0.037-50.486
		c-0.255-22.079,5.601-41.955,19.309-59.609C151.315,7.293,191.922-5.618,229.83,5.721c36.537,10.927,62.947,44.103,64.971,82.61
		c0.854,16.258,0.375,32.585,0.492,48.882c0.022,3.171,0.004,6.341,0.004,9.417c11.855,1.18,22.965,1.034,33.426,3.565
		c28.195,6.824,46.326,29.792,47.301,59.256c0.619,18.65,0.309,36.339,0.105,55.007c-0.117,10.757-5.941,17.36-14.813,17.722
		c-9.186,0.374-15.908-6.304-16.158-17.279c-0.389-17.181-0.683-33.398-0.004-50.559c0.85-21.439-15.641-35.605-35.352-35.416
		c-72.01,0.697-144.032,0.681-216.042,0.009c-19.48-0.183-35.454,14-35.167,34.72c0.556,40.296,0.028,79.605,0.217,119.911
		c0.102,21.731,12.581,34.183,34.398,34.226c72.312,0.138,144.623,0.115,216.936,0.012c20.554-0.03,31.474-9.743,34.854-30.254
		c1.909-11.577,7.917-17.131,17.3-15.992c9.734,1.18,14.73,8.682,13.494,20.266c-3.518,32.99-28.306,56.747-61.879,56.996
		c-74.678,0.556-149.366,0.592-224.043-0.007c-35.556-0.284-61.592-26.698-62.123-62.29c-0.631-42.37-0.649-83.764,0.002-126.133
		c0.563-36.576,27.205-61.729,64.775-62.63C97.483,147.641,102.444,147.743,108.475,147.743z M263.459,147.519
		c0-20.955,1.49-41.164-0.351-61.065c-2.78-30.068-26.463-50.875-57.316-53.124c-29.387-2.141-56.894,16.061-63.449,44.587
		c-3.258,14.174-2.084,29.395-2.632,44.154c-0.314,8.443-0.057,16.906-0.057,25.448C181.653,147.519,222.22,147.519,263.459,147.519
		z"/>
	<path fill-rule="evenodd" clip-rule="evenodd" d="M115.079,258.476c8.448,0.16,15.268,6.962,15.325,15.288
		c0.061,8.646-7.219,15.708-16.009,15.53c-8.421-0.167-15.263-7.008-15.333-15.327C98.986,265.333,106.25,258.31,115.079,258.476z"
		/>
	<path fill-rule="evenodd" clip-rule="evenodd" d="M188.67,273.953c-0.077,8.729-7.333,15.63-16.134,15.338
		c-8.395-0.278-15.083-7.184-15.038-15.527c0.047-8.703,7.273-15.55,16.126-15.279C182.167,258.745,188.743,265.507,188.67,273.953z
		"/>
	<path fill-rule="evenodd" clip-rule="evenodd" d="M306.206,273.599c0.156,8.299-6.553,15.357-14.918,15.692
		c-8.797,0.353-16.166-6.488-16.337-15.164c-0.161-8.289,6.541-15.312,14.927-15.641C298.8,258.136,306.041,264.838,306.206,273.599
		z"/>
	<path fill-rule="evenodd" clip-rule="evenodd" d="M246.839,273.887c-0.014,8.509-6.537,15.211-14.994,15.404
		c-8.861,0.204-15.85-6.61-15.847-15.449c0.005-8.854,6.989-15.595,15.912-15.36C240.505,258.706,246.854,265.259,246.839,273.887z"
		/>
</g>
</svg>
