<?xml version="1.0" encoding="utf-8"?>
<!-- Generator: Adobe Illustrator 16.0.0, SVG Export Plug-In . SVG Version: 6.00 Build 0)  -->
<!DOCTYPE svg PUBLIC "-//W3C//DTD SVG 1.1//EN" "http://www.w3.org/Graphics/SVG/1.1/DTD/svg11.dtd">
<svg version="1.1" id="Layer_1" xmlns="http://www.w3.org/2000/svg" xmlns:xlink="http://www.w3.org/1999/xlink" x="0px" y="0px"
	 width="400px" height="400px" viewBox="0 0 400 400" enable-background="new 0 0 400 400" xml:space="preserve">
<g>
	<path fill-rule="evenodd" clip-rule="evenodd" d="M199.808,399.346c-56.67,0-113.341,0.122-170.01-0.157
		c-6.92-0.034-13.808-2.365-20.75-3.358c-5.888-0.843-7.484-3.94-7.475-9.777c0.072-49.838-0.211-99.675-0.332-149.513
		c-0.063-26.11-0.284-52.226,0.263-78.324c0.089-4.266,2.729-9.754,6.014-12.467c17.834-14.725,36.392-28.574,54.301-43.214
		c2.896-2.367,5.172-7.128,5.347-10.895c0.635-13.618,0.163-27.286,0.275-40.933c0.132-16.057,7.521-23.513,23.411-23.585
		c20.176-0.092,40.363,0.331,60.521-0.269c5.128-0.153,10.708-2.488,15.123-5.314c7.21-4.616,13.519-10.612,20.417-15.746
		c9.771-7.274,17.798-7.153,27.689,0.01c0.241,0.174,0.514,0.323,0.704,0.54c16.795,18.983,38.116,23.746,62.434,20.958
		c10.543-1.208,21.34-0.244,32.02-0.193c17.05,0.082,24.15,7.268,24.234,24.57c0.063,13.351-0.383,26.722,0.266,40.042
		c0.183,3.76,2.501,8.494,5.406,10.867c17.68,14.449,36.027,28.086,53.612,42.647c3.508,2.905,6.61,8.633,6.625,13.07
		c0.252,75.946-0.061,151.896-0.056,227.844c0,5.711-1.414,9-7.487,9.741c-7.541,0.922-15.022,3.263-22.54,3.301
		C313.149,399.477,256.479,399.346,199.808,399.346z M386.104,164.141c-8.173,6.273-15.174,11.583-22.108,16.983
		c-27.146,21.143-54.268,42.314-81.398,63.479c-0.936,0.73-1.841,1.499-2.784,2.215c-3.938,2.987-8.701,4.821-11.188-0.491
		c-1.125-2.403,0.862-8.096,3.265-10.028c19.174-15.434,38.803-30.302,58.26-45.384c16.538-12.821,33.033-25.696,50.341-39.163
		c-15.722-12.261-30.392-23.702-46.486-36.253c0,12.777,0.004,23.145-0.001,33.514c-0.002,5.044,0.819,10.286-0.313,15.064
		c-0.785,3.31-4.273,5.978-6.554,8.931c-2.27-2.882-4.902-5.563-6.657-8.731c-0.882-1.591-0.173-4.069-0.173-6.146
		c0-35.012,0.015-70.024-0.009-105.037c-0.007-11.371-1.061-12.553-11.908-12.559c-71.804-0.036-143.609-0.035-215.414,0
		C82.362,40.54,81.141,41.79,81.13,52.258c-0.038,35.606-0.013,71.211-0.021,106.817c0,2.374,0.727,5.202-0.302,7.01
		c-1.527,2.686-4.323,4.649-6.579,6.918c-2.236-2.327-5.444-4.301-6.452-7.073c-1.146-3.157-0.352-7.026-0.355-10.586
		c-0.012-12.616-0.004-25.233-0.004-39.87c-16.377,12.788-31.099,24.283-46.365,36.205c4.104,3.298,7.047,5.738,10.065,8.08
		c31.876,24.72,63.766,49.425,95.645,74.143c1.874,1.452,4.465,2.63,5.333,4.56c1.047,2.329,1.783,6.527,0.535,7.747
		c-1.754,1.713-5.543,2.109-8.303,1.77c-2.061-0.251-3.91-2.504-5.784-3.958c-32.114-24.899-64.211-49.82-96.337-74.705
		c-1.971-1.527-4.151-2.784-6.853-4.579c0,70.386,0,139.562,0,210.11c3.161-2.362,5.245-3.864,7.272-5.44
		c53.163-41.321,106.327-82.64,159.476-123.979c15.448-12.014,21.72-12.07,36.96-0.211
		c52.202,40.624,104.406,81.246,156.619,121.854c3.147,2.448,6.396,4.768,10.425,7.762
		C386.104,304.134,386.104,234.961,386.104,164.141z M376.504,385.244c-2.517-2.278-3.673-3.472-4.972-4.48
		c-54.777-42.6-109.615-85.12-164.28-127.861c-5.464-4.272-9.217-2.992-14.028,0.752c-54.057,42.075-108.228,84.005-162.349,125.999
		c-1.845,1.431-3.479,3.135-6.175,5.591C142.571,385.244,258.617,385.244,376.504,385.244z M217.414,26.602
		c-15.11-15.367-17.326-17.804-32.691,0C195.461,26.602,206.199,26.602,217.414,26.602z"/>
	<path fill-rule="evenodd" clip-rule="evenodd" d="M199.782,86.886c-20.158,0.004-40.317,0.039-60.475-0.019
		c-5.003-0.015-11.218,0.643-11.384-6.553c-0.167-7.212,5.873-6.903,11.01-6.904c41.206-0.007,82.414-0.136,123.617,0.223
		c3.671,0.032,9.738,2.541,10.499,5.131c2.033,6.917-3.755,8.092-9.232,8.102C242.472,86.905,221.126,86.881,199.782,86.886z"/>
	<path fill-rule="evenodd" clip-rule="evenodd" d="M200.053,126.863c-20.456,0-40.913-0.004-61.371,0.003
		c-4.872,0.001-10.474,0.151-10.785-6.312c-0.346-7.208,5.573-7.221,10.758-7.223c41.507-0.022,83.016-0.021,124.524,0
		c4.902,0.003,10.36,0.154,10.353,6.761c-0.008,6.555-5.361,6.775-10.327,6.773C242.153,126.859,221.104,126.863,200.053,126.863z"
		/>
	<path fill-rule="evenodd" clip-rule="evenodd" d="M237.243,166.466c-9.162,0.002-18.369,0.532-27.455-0.29
		c-3.147-0.284-5.992-3.931-8.973-6.041c2.852-2.243,5.647-6.336,8.569-6.428c18.597-0.591,37.23-0.591,55.825,0.003
		c2.893,0.093,5.656,4.219,8.48,6.482c-2.989,2.09-5.842,5.703-8.993,5.986C255.609,166.995,246.401,166.466,237.243,166.466z"/>
</g>
</svg>
