<?xml version="1.0" encoding="utf-8"?>
<!-- Generator: Adobe Illustrator 16.0.0, SVG Export Plug-In . SVG Version: 6.00 Build 0)  -->
<!DOCTYPE svg PUBLIC "-//W3C//DTD SVG 1.1//EN" "http://www.w3.org/Graphics/SVG/1.1/DTD/svg11.dtd">
<svg version="1.1" id="Layer_1" xmlns="http://www.w3.org/2000/svg" xmlns:xlink="http://www.w3.org/1999/xlink" x="0px" y="0px"
	 width="256px" height="256px" viewBox="0 0 256 256" enable-background="new 0 0 256 256" xml:space="preserve">
<g>
	<path d="M176.609,91.032c-0.782-0.542-1.729-0.604-2.372-0.604c-0.397,0-0.813,0.028-1.225,0.057
		c-0.345,0.024-0.685,0.049-1.004,0.049c-33.54-0.009-40.812-0.009-74.348-0.001c-0.326,0-0.677-0.029-1.033-0.056
		c-0.431-0.034-0.865-0.066-1.275-0.066c-0.642,0-1.583,0.067-2.334,0.642c-1.063,0.813-3.553,2.961-3.71,5.344
		c-0.157,2.382,3.023,4.714,3.664,5.158c0.78,0.54,1.724,0.603,2.365,0.603c0.396,0,0.813-0.027,1.225-0.057
		c0.344-0.025,0.685-0.049,1.009-0.049c10.279,0.007-5.711,0.008,4.567,0.008l36.988-0.001c10.932,0,21.862,0,32.798-0.007
		c0.326,0,0.676,0.028,1.03,0.056c0.429,0.034,0.862,0.066,1.271,0.066c0.642,0,1.582-0.067,2.336-0.642
		c1.064-0.814,3.559-2.964,3.717-5.342C180.437,93.804,177.249,91.474,176.609,91.032z"/>
	<path d="M176.481,43.991l-0.214-0.189c-0.681-0.605-1.606-0.605-1.909-0.605c-0.352,0-0.733,0.034-1.114,0.072
		c-0.29,0.027-0.578,0.058-0.837,0.058l-50.757-0.003l-24.486,0.003c-0.261,0-0.55-0.031-0.841-0.059
		c-0.381-0.037-0.767-0.072-1.117-0.072c-0.304,0-1.229,0-1.906,0.607l-0.205,0.182c-1.591,1.421-3.572,3.189-3.772,5.285
		c-0.239,2.527,3.74,4.947,4.194,5.215c0.839,0.494,1.796,0.551,2.443,0.551c0.444,0,0.907-0.032,1.368-0.065
		c0.393-0.028,0.783-0.057,1.156-0.057c9.547,0.005-7.174,0.006,2.374,0.006h41.604c9.547,0,19.094-0.001,28.646-0.006
		c0.37,0,0.76,0.029,1.153,0.057c0.461,0.033,0.924,0.065,1.368,0.065c0.646,0,1.604-0.057,2.441-0.552
		c0.455-0.27,4.442-2.702,4.198-5.227C180.066,47.164,178.078,45.404,176.481,43.991z"/>
	<path d="M63.432,30.33c-9.492-0.319-18.53,8.646-18.764,18.546c-0.118,4.94,1.705,9.616,5.129,13.167
		c3.586,3.718,8.502,5.803,13.843,5.87l0.229,0.001c0,0,0,0,0.001,0c10.031,0,18.271-8.236,18.37-18.36
		C82.346,38.988,74.258,30.723,63.432,30.33z M63.818,40.86v1.311c1.771,0,3.468,0.735,4.776,2.068
		c1.334,1.361,2.081,3.204,2.046,5.055c-0.069,3.583-3.508,6.971-7.077,6.971l-0.123-0.001c-3.854-0.08-6.833-3.25-6.783-7.217
		c0.049-3.89,3.108-6.846,7.115-6.876L63.818,40.86L63.818,40.86z"/>
	<path d="M76.761,130.015c-3.528-3.45-8.363-5.351-13.676-5.351c-9.976,0.027-18.411,8.586-18.419,18.689
		c-0.008,10.201,8.834,18.862,19.311,18.917h0.086c0.001,0,0,0,0.001,0c9.849,0,18.174-8.654,18.179-18.898
		C82.245,138.218,80.298,133.474,76.761,130.015z M56.648,143.329c0.035-3.935,3.05-7.016,6.865-7.016H63.6
		c1.742,0.021,3.528,0.843,4.903,2.251c1.37,1.406,2.141,3.204,2.117,4.934c-0.055,3.883-3.51,7.041-7.628,6.882
		C59.221,150.245,56.613,147.346,56.648,143.329z M64.063,160.953C64.063,160.953,64.063,160.953,64.063,160.953l0,0.005
		L64.063,160.953z"/>
	<path d="M64.639,77.717c-2.514,0-5.568,2.367-6.517,4.402c-0.599,1.283-0.603,2.645-0.012,3.833
		c0.732,1.473,2.304,2.565,4.313,2.996l0.786,0.165c0.873,0.179,1.698,0.349,2.485,0.6c3.132,0.998,5.264,4.222,4.855,7.338
		c-0.457,3.482-3.228,5.99-6.741,6.098c-3.992,0.112-6.155-1.927-7.241-6.925c-1.02-4.697-3.647-5.683-5.671-5.683
		c-0.501,0-1.034,0.062-1.584,0.183c-3.39,0.749-5.042,3.505-4.535,7.563c1.201,9.594,9.33,16.831,18.908,16.831
		c0.303,0,0.605-0.008,0.911-0.022c9.938-0.476,17.688-8.793,17.646-18.935C82.201,86.135,74.33,77.861,64.639,77.717z"/>
	<path d="M212.68,125.176l0.002-18.596c0.004-38.378,0.008-59.242,0.004-97.62c-0.001-6.695-1.818-8.529-8.451-8.53
		C134.338,0.422,90.708,0.422,20.808,0.43c-6.836,0.001-8.605,1.813-8.606,8.815c-0.004,69.753-0.005,121.994,0.001,191.746
		c0.001,6.893,1.798,8.678,8.744,8.679l39.856,0.001l41.427-0.001c5.226,13.14,14.115,24.372,25.755,32.525
		c12.164,8.521,26.471,13.026,41.376,13.026c39.834,0,72.241-32.407,72.241-72.241C241.603,160.34,230.804,138.782,212.68,125.176z
		 M200.919,100.306L200.921,118c-9.784-4.756-20.648-7.261-31.56-7.261c-21.971,0-42.433,9.807-56.24,26.927l-15.286-0.001
		c-8.544,0,9.181,0.001,0.632,0.006c-0.37,0-0.76-0.029-1.152-0.057c-0.46-0.033-0.923-0.065-1.366-0.065
		c-0.648,0-1.607,0.058-2.447,0.555c-0.453,0.269-4.422,2.695-4.175,5.229c0.205,2.097,2.192,3.86,3.788,5.277l0.2,0.177
		c0.679,0.605,1.598,0.605,1.901,0.605c0.351,0,0.737-0.036,1.119-0.074c0.291-0.029,0.58-0.061,0.842-0.061h8.304
		c-5.477,10.358-8.36,21.969-8.36,33.724c0,4.979,0.525,9.99,1.564,14.921l-74.39-0.006V12.46h176.618v4.495
		C200.913,50.577,200.917,66.685,200.919,100.306z M169.361,244.277c-33.799,0-61.296-27.498-61.296-61.297
		s27.498-61.296,61.296-61.296s61.297,27.497,61.297,61.296S203.16,244.277,169.361,244.277z"/>
</g>
<g>
	<path d="M208.448,170.271l-4.365-0.74c-0.39-1.08-0.828-2.144-1.314-3.175l2.572-3.597c2.238-3.146,1.879-7.393-0.847-10.095
		l-5.249-5.248c-1.484-1.485-3.453-2.303-5.539-2.303c-1.646,0-3.215,0.506-4.536,1.457l-3.61,2.571
		c-1.112-0.525-2.248-0.992-3.39-1.396l-0.722-4.278c-0.637-3.791-3.89-6.544-7.733-6.544h-7.416c-3.847,0-7.099,2.751-7.733,6.537
		l-0.758,4.445c-1.071,0.391-2.129,0.837-3.162,1.33l-3.546-2.552c-1.328-0.957-2.906-1.464-4.564-1.464
		c-2.113,0-4.082,0.82-5.537,2.299l-5.268,5.253c-2.72,2.718-3.075,6.962-0.847,10.092l2.613,3.669
		c-0.482,1.038-0.915,2.105-1.298,3.19l-4.277,0.722c-3.792,0.636-6.545,3.888-6.545,7.733v7.416c0,3.845,2.75,7.098,6.537,7.732
		l4.445,0.758c0.392,1.071,0.837,2.13,1.331,3.163l-2.543,3.539c-2.238,3.146-1.88,7.391,0.847,10.092l5.248,5.248
		c1.485,1.485,3.453,2.303,5.539,2.303c1.645,0,3.215-0.504,4.536-1.457l3.67-2.611c0.965,0.448,1.965,0.859,2.991,1.228
		l0.727,4.365c0.636,3.791,3.889,6.543,7.733,6.543h7.435c3.844,0,7.098-2.751,7.732-6.538l0.74-4.365
		c1.082-0.391,2.145-0.83,3.176-1.315l3.583,2.563c1.332,0.959,2.91,1.467,4.566,1.467c2.089,0,4.055-0.819,5.539-2.304l5.251-5.247
		c2.716-2.72,3.071-6.965,0.844-10.094l-2.573-3.614c0.495-1.053,0.938-2.114,1.316-3.17l4.361-0.726
		c3.79-0.637,6.543-3.89,6.543-7.735v-7.38C215.006,174.18,212.27,170.911,208.448,170.271z M195.373,188.197
		c-0.615,2.375-1.552,4.629-2.787,6.706c-0.996,1.695-0.906,3.828,0.229,5.439l3.294,4.641l-2.669,2.668l-4.607-3.28
		c-1.541-1.109-3.799-1.215-5.472-0.23c-2.061,1.227-4.309,2.16-6.671,2.772c-1.946,0.486-3.399,2.068-3.699,4.014l-0.945,5.596
		h-3.757l-0.932-5.596c-0.33-1.95-1.774-3.524-3.675-4.008c-2.267-0.586-4.48-1.494-6.577-2.696
		c-1.632-0.934-3.954-0.803-5.398,0.261l-4.676,3.327l-2.665-2.666l3.278-4.597c1.135-1.612,1.22-3.756,0.211-5.472
		c-1.264-2.106-2.212-4.356-2.819-6.707c-0.517-1.88-2.084-3.308-3.995-3.637l-5.652-0.964v-3.759l5.547-0.932
		c1.965-0.335,3.546-1.792,4.027-3.71c0.602-2.394,1.521-4.651,2.729-6.711c0.997-1.701,0.897-3.833-0.248-5.423l-3.326-4.674
		l2.667-2.667l4.597,3.278c1.569,1.105,3.782,1.204,5.471,0.211c2.111-1.267,4.362-2.212,6.706-2.819
		c1.881-0.516,3.309-2.082,3.639-3.995l0.963-5.651h3.76l0.933,5.545c0.332,1.967,1.789,3.548,3.708,4.028
		c2.418,0.608,4.729,1.556,6.866,2.817c1.656,0.974,3.859,0.888,5.456-0.238l4.582-3.294l2.659,2.66l-3.281,4.61
		c-1.15,1.601-1.244,3.745-0.231,5.469c1.229,2.063,2.164,4.313,2.774,6.673c0.486,1.945,2.068,3.397,4.013,3.697l5.594,0.945
		l-0.011,3.756l-5.604,0.934C197.428,184.852,195.857,186.296,195.373,188.197z"/>
	<path d="M170.173,160.88c-11.48,0-20.822,9.341-20.822,20.823c0,11.48,9.342,20.821,20.822,20.821
		c11.481,0,20.823-9.341,20.823-20.821C190.996,170.221,181.654,160.88,170.173,160.88z M170.173,192.515
		c-5.962,0-10.813-4.851-10.813-10.812c0-5.964,4.851-10.813,10.813-10.813c5.963,0,10.814,4.85,10.814,10.813
		C180.987,187.664,176.136,192.515,170.173,192.515z"/>
</g>
</svg>
