<?xml version="1.0" encoding="utf-8"?>
<!-- Generator: Adobe Illustrator 16.0.0, SVG Export Plug-In . SVG Version: 6.00 Build 0)  -->
<!DOCTYPE svg PUBLIC "-//W3C//DTD SVG 1.1//EN" "http://www.w3.org/Graphics/SVG/1.1/DTD/svg11.dtd">
<svg version="1.1" id="Layer_1" xmlns="http://www.w3.org/2000/svg" xmlns:xlink="http://www.w3.org/1999/xlink" x="0px" y="0px"
	 width="256px" height="256px" viewBox="0 0 256 256" enable-background="new 0 0 256 256" xml:space="preserve">
<g>
	<path fill-rule="evenodd" clip-rule="evenodd" d="M130.132,202.735c0.09,11.217-8.666,20.093-20.039,20.313
		c-11.296,0.218-20.427-8.879-20.46-20.386c-0.033-11.069,8.716-20.231,19.521-20.443
		C120.64,181.994,130.037,191.185,130.132,202.735z M120.737,202.608c-0.08-5.74-5.157-10.798-10.791-10.747
		c-5.983,0.052-11.02,5.261-10.821,11.193c0.19,5.695,5.018,10.472,10.56,10.447C115.8,213.475,120.821,208.527,120.737,202.608z"/>
	<path fill-rule="evenodd" clip-rule="evenodd" d="M235.6,202.631c0.049,11.385-9.083,20.546-20.463,20.529
		c-11.273-0.014-20.578-9.354-20.517-20.588c0.061-10.827,9.378-20.392,19.815-20.338C226.328,182.293,235.55,191.183,235.6,202.631
		z M215.188,213.633c6.066-0.07,10.914-4.923,10.948-10.96c0.034-5.874-5.188-10.939-11.143-10.812
		c-6.184,0.134-10.647,4.91-10.49,11.226C204.653,209.132,209.283,213.701,215.188,213.633z"/>
</g>
<g>
	<path fill-rule="evenodd" clip-rule="evenodd" d="M15.802,224.207c21.07,2.147,42.104,5.075,63.228,6.009
		c7.274,0.32,9.285-7.668,9.273-14.656c-0.033-19.01-0.006-38.026-0.003-57.04c0.003-38.833,0.028-77.664,0.002-116.497
		c-0.011-13.873-5.149-18.492-18.706-16.861c-15.415,1.855-30.822,3.766-46.224,5.731c-2.519,0.322-4.986,1.051-7.478,1.592
		c-0.104,0.853-0.208,1.705-0.313,2.557c2.274,0.64,4.542,1.803,6.824,1.833c13.387,0.176,26.779,0.136,40.169,0.063
		c5.512-0.032,10.822,0.622,10.799,7.583c-0.021,6.503-5.081,7.235-10.301,7.218c-14.461-0.045-28.924,0.109-43.383-0.04
		C7.555,51.574,1.935,46.477,1.111,35.354C0.36,25.212,5.77,18.526,17.015,16.951c18.024-2.525,36.092-4.785,54.189-6.719
		c18.444-1.969,31.755,10.466,31.806,29.623c0.117,44.456,0.031,88.911,0.029,133.367c-0.001,14.462,0.125,28.926-0.041,43.385
		c-0.218,19.096-13.514,30.924-32.41,28.784c-17.819-2.019-35.637-4.104-53.397-6.586c-12.145-1.696-17.628-9.278-15.811-20.656
		c1.39-8.703,6-13.648,14.936-13.92c16.321-0.494,32.677-0.546,48.987,0.059c2.818,0.105,7.208,3.981,7.838,6.794
		c1.125,5.016-2.923,7.595-7.934,7.618c-14.193,0.063-28.388-0.063-42.58,0.102c-2.355,0.024-4.697,1.119-7.045,1.725
		C15.655,221.752,15.729,222.979,15.802,224.207z"/>
	<path fill-rule="evenodd" clip-rule="evenodd" d="M2.346,67.429c3.418-0.562,5.972-1.332,8.53-1.346
		c17.63-0.101,35.26-0.009,52.891-0.056c5.436-0.015,9.875,1.337,9.647,7.798c-0.213,6.039-4.642,6.987-9.654,6.969
		c-17.897-0.063-35.798,0.167-53.687-0.247c-2.861-0.066-6.513-2.246-8.201-4.598C0.648,74.245,2.067,70.644,2.346,67.429z"/>
	<path fill-rule="evenodd" clip-rule="evenodd" d="M72.165,95.359c0.323,2.259,1.643,5.184,0.787,7.168
		c-0.969,2.244-3.864,5.136-5.971,5.177c-19.756,0.386-39.527,0.442-59.277-0.081c-2.257-0.061-6.001-4.144-6.151-6.541
		c-0.148-2.381,3.316-7.118,5.294-7.17c20.272-0.545,40.566-0.37,60.853-0.29C68.927,93.628,70.151,94.547,72.165,95.359z"/>
	<path fill-rule="evenodd" clip-rule="evenodd" d="M2.125,122.217c3.381-0.663,5.913-1.57,8.453-1.589
		c17.891-0.133,35.783-0.062,53.676-0.097c5.156-0.012,9.21,1.511,9.161,7.479c-0.049,6.012-4.216,7.312-9.327,7.303
		c-17.892-0.036-35.789,0.193-53.674-0.186c-2.921-0.061-6.615-2.045-8.409-4.346C0.712,129.123,1.978,125.466,2.125,122.217z"/>
	<path fill-rule="evenodd" clip-rule="evenodd" d="M72.124,149.806c0.341,2.262,1.682,5.173,0.842,7.165
		c-0.952,2.255-3.827,5.194-5.92,5.237c-19.751,0.409-39.518,0.481-59.262-0.021c-2.272-0.057-6.033-4.102-6.206-6.505
		c-0.17-2.379,3.27-7.167,5.228-7.219c20.268-0.563,40.555-0.404,60.837-0.342C68.873,148.127,70.101,149.02,72.124,149.806z"/>
	<path fill-rule="evenodd" clip-rule="evenodd" d="M72.617,177.009c0.083,3.02,1.208,6.471-0.037,8.371
		c-1.438,2.193-4.921,4.138-7.59,4.241c-11.736,0.453-23.498,0.205-35.252,0.205c-6.945-0.002-14,0.688-20.783-0.362
		c-2.9-0.447-5.238-4.54-7.83-6.977c2.573-2.456,5.081-6.954,7.731-7.041c18.945-0.606,37.919-0.365,56.885-0.238
		C67.747,175.223,69.747,176.227,72.617,177.009z"/>
</g>
<path fill-rule="evenodd" clip-rule="evenodd" d="M254.272,193.073c-4.901-19.89-24.658-33.094-44.916-29.685
	c-3.83,0.645-5.535-0.394-7.221-3.708c-6.867-13.503-13.945-26.901-21.144-40.232c-1.638-3.036-1.872-5.694-0.851-8.983
	c9.513-30.636,18.88-61.317,28.274-91.99c0.396-1.297,1.109-2.738,0.852-3.935c-0.34-1.585-1.168-3.788-2.376-4.28
	c-1.475-0.6-3.771-0.11-5.313,0.684c-1.155,0.595-1.773,2.366-2.47,3.699c-11.312,21.633-22.594,43.283-33.896,64.92
	c-0.718,1.374-1.555,2.685-2.631,4.53c-1.197-2.211-2-3.661-2.772-5.126c-11.239-21.331-22.474-42.664-33.714-63.995
	c-0.564-1.073-0.917-2.573-1.819-3.087c-1.677-0.956-4.204-2.332-5.425-1.698c-1.55,0.804-2.412,3.35-3.047,5.315
	c-0.308,0.95,0.566,2.289,0.925,3.446c9.474,30.647,18.92,61.305,28.473,91.929c0.961,3.085,0.867,5.615-0.746,8.561
	c-6.549,11.959-12.799,24.082-19.174,36.136c-1.477,2.793-3.011,5.553-4.53,8.351c-1.892-0.259-3.533-0.445-5.164-0.711
	c-1.913-0.313-3.818-0.456-5.706-0.471v9.927c3.036-0.06,6.133,0.294,9.203,1.12c5.932,1.595,6.863,1.202,9.685-4.199
	c17.586-33.665,35.166-67.337,52.755-101.002c0.758-1.449,1.581-2.863,2.374-4.294c0.234,0.096,0.468,0.191,0.703,0.288
	c-4.854,15.491-9.757,30.966-14.553,46.476c-10.115,32.718-20.151,65.458-30.265,98.176c-4.612,14.922-16.423,24.043-29.902,23.893
	v9.595c17.019-0.076,32.827-11.347,37.796-27.061c1.691-5.346,3.334-10.707,5.014-16.057c3.153-10.039,6.317-20.074,9.89-31.419
	c0.947,2.794,1.477,4.284,1.959,5.789c4.806,15,8.788,30.327,14.604,44.925c7.895,19.808,29.298,28.434,49.907,21.433
	C247.944,233.912,259.159,212.896,254.272,193.073z M152.601,102.117c-3.975-12.449-7.897-24.733-11.82-37.016
	c0.222-0.119,0.443-0.237,0.664-0.355c1.69,3.12,3.411,6.225,5.065,9.364c2.469,4.682,4.531,9.626,7.431,14.021
	C157.245,93.139,157.417,97.483,152.601,102.117z M232.051,228.346c-16.629,9.033-30.416,4.52-38.643-4.602
	c-3.435-3.807-6.121-8.754-7.738-13.648c-6.077-18.381-11.597-36.946-17.245-55.467c-0.459-1.508-0.764-3.323-0.368-4.785
	c1.846-6.813,3.963-13.553,6.405-21.73c6.117,11.582,11.625,21.998,17.12,32.421c1.696,3.218,3.484,6.395,5.008,9.692
	c1.956,4.239,4.746,5.219,9.192,3.643c11.424-4.051,21.979-2.543,31.479,5.45C252.87,192.457,249.999,218.594,232.051,228.346z"/>
</svg>
