<?xml version="1.0" encoding="utf-8"?>
<!-- Generator: Adobe Illustrator 16.0.0, SVG Export Plug-In . SVG Version: 6.00 Build 0)  -->
<!DOCTYPE svg PUBLIC "-//W3C//DTD SVG 1.1//EN" "http://www.w3.org/Graphics/SVG/1.1/DTD/svg11.dtd">
<svg version="1.1" id="Layer_1" xmlns="http://www.w3.org/2000/svg" xmlns:xlink="http://www.w3.org/1999/xlink" x="0px" y="0px"
	 width="256px" height="256px" viewBox="0 0 256 256" enable-background="new 0 0 256 256" xml:space="preserve">
<g>
	<path fill="#010101" d="M165.607,129.186c-1.344-0.046-2.822-0.069-4.518-0.069c-1.316,0-2.603,0.014-3.833,0.026
		c-0.518,0.005-1.025,0.011-1.521,0.015l1.823-3.321c2.684-4.895,5.22-9.518,7.879-14.273c0.55-0.982,1.173-2.095,1.952-2.599
		c12.765-8.245,17.979-20.586,16.405-38.838c-1.803-20.933-15.194-33.633-35.821-33.974c-8.153-0.134-16.725-0.197-26.974-0.197
		c-8.674,0-17.492,0.046-26.02,0.091c-3.797,0.021-7.594,0.041-11.389,0.056c-7.848,0.034-11.392,3.481-11.489,11.179
		c-0.158,12.457-0.138,22.85,0.062,32.708c0.241,11.835,5.468,21.344,15.535,28.26c1.068,0.734,2.234,1.621,2.793,2.641
		c2.625,4.804,5.205,9.762,7.699,14.557c0.646,1.24,1.292,2.482,1.941,3.726c-0.165,0.002-0.334,0.005-0.505,0.008
		c-0.918,0.017-1.924,0.034-2.973,0.034c-1.292,0-2.419-0.027-3.448-0.083c-9.672-0.525-18.565,2.868-24.925,9.415
		c-6.05,6.23-9.233,14.789-8.963,24.102c0.528,18.169,0.408,36.669,0.292,54.561c-0.05,7.746-0.103,15.755-0.102,23.633
		c0,0.311-0.034,0.646-0.065,0.982c-0.095,1.011-0.203,2.156,0.412,2.997c1.341,1.837,2.969,3.751,4.863,4.03
		c0.084,0.013,0.17,0.019,0.258,0.019c1.883,0,3.899-3.013,4.457-4.068c0.574-1.086,0.472-2.362,0.373-3.597
		c-0.035-0.427-0.069-0.852-0.069-1.257c0.001-7.407,0.019-14.816,0.036-22.225c0.042-18.034,0.087-36.681-0.113-55.022
		c-0.073-6.758,2.198-12.817,6.398-17.064c4.12-4.165,9.793-6.287,16.397-6.102c8.903,0.249,18.41,0.364,29.92,0.364
		c8.049,0,16.232-0.057,24.147-0.111c6.082-0.043,12.164-0.084,18.244-0.103h0.12c5.584,0,9.637,1.221,13.141,3.957
		c5.614,4.388,8.231,10.368,8.233,18.82l0.001,4.063c0.007,25.216,0.014,50.433-0.013,75.649c-0.002,1.985,0.113,4.22,1.513,5.62
		c0.844,0.846,2.052,1.273,3.592,1.273h0.084c5.079-0.05,5.074-4.565,5.072-6.99c-0.009-9.257,0.002-18.515,0.013-27.772
		c0.02-17.675,0.04-35.95-0.078-53.927C196.322,142.352,183.931,129.815,165.607,129.186z M88.879,88.693
		c0.003,2.166,0.005,4.379,0.006,6.652c-4.058-4.31-6.053-9.118-6.242-14.965c-0.257-7.958-0.205-15.772-0.15-24.047
		c0.021-3.125,0.042-6.271,0.045-9.443c0.209-0.02,0.415-0.04,0.618-0.06c0.981-0.096,1.907-0.186,2.809-0.187l9.643-0.011
		c17.056-0.02,34.114-0.041,51.173,0.011c16.92,0.052,26.687,9.95,26.794,27.156c0.04,6.214-0.233,12.757-3.967,18.449
		c-0.574,0.875-1.28,1.774-2.493,2.577l0.001-6.481c0.001-5.433,0.002-10.866-0.001-16.299c-0.004-9.771-0.776-10.561-10.337-10.562
		l-31.674-0.004c-9.221,0-18.442,0.002-27.664,0.011c-6.987,0.006-8.503,1.494-8.541,8.375
		C88.865,76.001,88.872,82.137,88.879,88.693z M99.896,82.007c0.065-3.146,0.131-6.391,0.143-9.631h56.054
		c0.015,3.34,0.1,6.687,0.182,9.935c0.208,8.214,0.404,15.973-0.422,23.766c-1.387,13.087-14.026,23.329-28.541,23.01
		c-14.294-0.287-25.938-10.594-27.084-23.975C99.578,97.511,99.733,89.98,99.896,82.007z M191.352,248.076L191.352,248.076v0.002
		V248.076z"/>
	<path fill="#010101" d="M255.795,200.15c-0.024-0.237-0.05-0.473-0.05-0.688c0.001-7.413,0.005-14.824,0.009-22.236
		c0.01-19.326,0.021-39.31-0.032-58.965c-0.029-11.133-4.811-20.145-14.21-26.785c-1.26-0.89-2.437-3.089-2.468-4.613
		c-0.138-6.573-0.127-13.265-0.116-19.736c0.009-5.698,0.019-11.591-0.072-17.389c-0.168-10.546-3.554-19.793-10.064-27.486
		c-9.01-10.642-20.644-15.814-35.567-15.814c-4.851,0-10.105,0.526-16.061,1.61c-9.288,1.69-17.048,6.474-22.442,13.832
		c-0.899,1.226-0.766,2.955-0.635,4.625c0.054,0.69,0.104,1.343,0.083,1.928l-0.043,1.116l1.113-0.092
		c0.608-0.05,1.305-0.02,1.998,0.006c0.446,0.017,0.892,0.034,1.319,0.034c1.19,0,2.516-0.118,3.308-0.993
		c7.144-7.885,16.49-11.557,29.416-11.557c1.442,0,2.978,0.044,4.566,0.131c16.938,0.929,30.29,12.176,31.748,26.742
		c1.003,10.018,0.851,20.35,0.704,30.341c-0.061,4.069-0.121,8.27-0.104,12.409h-12.376c0.525-1.424,1.099-2.847,1.657-4.233
		c1.646-4.08,3.346-8.298,3.856-12.632c0.809-6.873,0.702-13.936,0.599-20.767c-0.036-2.345-0.072-4.689-0.072-7.028
		c0.001-1.983-0.63-3.5-1.876-4.508c-1.097-0.888-2.644-1.338-4.658-1.338c-1.912,0.01-3.824,0.013-5.735,0.013l-9.785-0.009
		l-1.867,0.001c-1.16,0-2.323-0.028-3.486-0.056c-1.181-0.028-2.36-0.056-3.536-0.056c-2.331,0-4.206,0.117-5.901,0.368
		c-1.519,0.224-2.63,1.642-3.705,3.012c-0.437,0.557-0.849,1.083-1.267,1.505l-0.71,0.719l0.734,0.695
		c0.414,0.393,0.812,0.822,1.209,1.25c0.999,1.078,2.031,2.191,3.373,2.844c0.621,0.302,1.347,0.442,2.284,0.442
		c0.52,0,1.061-0.043,1.601-0.088c0.484-0.04,0.968-0.081,1.436-0.081l10.038,0.003l11.345-0.001l0.001,4.402
		c0,4.211,0.001,8.162-0.003,12.113c-0.012,14.289-3.78,19.408-17.536,23.817c-1.575,0.504-2.634,2.033-3.657,3.512
		c-0.435,0.627-0.845,1.22-1.276,1.715l-0.776,0.887l1.008,0.611c0.557,0.336,1.103,0.729,1.681,1.145
		c1.357,0.975,2.76,1.982,4.392,2.303c1.104,0.217,2.322,0.318,3.837,0.318c0.912,0,1.857-0.035,2.849-0.072
		c0.548-0.021,1.108-0.042,1.687-0.057l-3.523,6.352c-3.608,6.509-7.038,12.695-10.503,18.861c-1.187,2.113-2.205,4.174-1.646,6.156
		c0.329,1.168,1.183,2.143,2.533,2.896c0.95,0.53,1.874,0.799,2.748,0.798c2.659,0,4.286-2.34,5.527-4.629
		c5.182-9.563,10.337-18.876,15.321-27.681c0.801-1.413,1.9-2.572,2.506-2.638c1.864-0.203,3.679-0.307,5.392-0.307
		c7.748,0,13.696,2.044,17.681,6.074c3.955,4,5.916,9.951,5.827,17.688c-0.199,17.412-0.151,35.115-0.104,52.236
		c0.02,7.182,0.039,14.364,0.041,21.547c0,0.667-0.032,1.347-0.066,2.028c-0.092,1.886-0.187,3.837,0.391,5.639
		c0.56,1.754,2.937,4.456,4.947,4.456h0.047c1.629-0.033,2.905-1.776,4.139-3.462c0.216-0.294,0.425-0.58,0.626-0.841
		C255.963,201.816,255.873,200.932,255.795,200.15z M250.626,205.804L250.626,205.804v0.004V205.804z"/>
	<path fill="#010101" d="M61.588,97.117c1.533-0.054,2.795-1.324,4.016-2.551c0.504-0.506,0.979-0.984,1.448-1.355l0.801-0.635
		l-0.66-0.78c-0.359-0.424-0.707-0.859-1.056-1.294c-0.889-1.109-1.809-2.255-2.898-3.238c-0.637-0.575-1.5-0.669-2.261-0.752
		c-0.358-0.039-0.696-0.076-0.963-0.155c-6.094-1.801-13.621-5.921-14.871-15.322c-0.745-5.597-0.573-11.271-0.391-17.279
		c0.07-2.326,0.142-4.72,0.158-7.133l8.229-0.008c2.115,0,4.21,0.005,6.399,0.021c2.246,0,3.932-0.561,5.012-1.666
		c0.895-0.915,1.332-2.155,1.298-3.686c-0.042-1.953-0.933-5.23-6.414-5.23l-0.13,0c-6.096,0.059-12.196,0.083-18.292-0.007
		l-0.2-0.001c-2.276,0-3.937,0.565-5.078,1.728c-1.167,1.188-1.712,2.925-1.668,5.312c0.067,3.611,0.051,7.291,0.037,10.85
		c-0.003,0.747-0.006,1.495-0.008,2.242c-7.191-8.123-6.883-17.442-6.558-27.269c0.128-3.879,0.26-7.879-0.099-11.822
		c4.392,0.001,8.711,0.015,12.98,0.027c4.507,0.013,8.959,0.027,13.376,0.027c6.978,0,12.692-0.034,17.986-0.108
		c0.384-0.005,0.764-0.008,1.145-0.008c8.221,0,17.491,1.185,23.919,9.969c1.183,1.617,2.855,2.582,4.473,2.582
		c0.934,0,2.286-0.321,3.421-1.854c1.41-1.904,0.615-5.479,0.208-6.927c-0.395-1.403-1.598-2.501-2.661-3.471
		c-0.255-0.233-0.508-0.462-0.743-0.692c-6.757-6.589-15.088-9.93-24.847-9.93c-6.356,0.011-12.717,0.002-19.078-0.006
		C47.805,6.681,37.99,6.667,28.177,6.729c-7.695,0.05-11.007,3.465-11.074,11.421l-0.022,2.566
		c-0.059,6.795-0.121,13.822,0.053,20.734c0.298,11.865,5.455,21.62,15.326,28.994c1.075,0.803,1.943,1.823,2.379,2.799
		c1.522,3.4,2.95,6.888,4.461,10.581c0.412,1.005,0.832,2.029,1.263,3.077l-4.014-0.009c-1.117,0-2.253,0.004-3.391,0.017
		c-20.581,0.231-32.88,12.662-32.9,33.251c-0.016,18.252-0.013,36.504-0.009,54.757l0.003,23.466c0,0.273-0.033,0.566-0.063,0.858
		c-0.09,0.853-0.192,1.82,0.307,2.601c0.174,0.271,0.352,0.562,0.535,0.861c1.087,1.776,2.319,3.79,4.075,4.14
		c0.35,0.068,0.695,0.104,1.025,0.104c2.686,0,4.447-2.254,4.486-5.74c0.018-1.488,0.03-2.978,0.03-4.467
		c0.001-6.383-0.005-12.765-0.01-19.146c-0.016-18.55-0.03-37.73,0.1-56.593c0.033-4.853,0.668-8.667,1.945-11.662
		c3.284-7.708,9.749-11.857,18.693-11.998c4.128-0.066,8.258-0.056,12.389-0.045c1.506,0.003,3.013,0.007,4.52,0.007
		C52.227,97.305,56.891,97.282,61.588,97.117z"/>
	<path fill="#010101" d="M144.482,201.297c-0.007-0.498-0.015-0.996-0.045-1.483c-0.231-3.651-0.64-7.355-1.033-10.938
		c-1.289-11.721-2.623-23.843,2.142-35.534c0.699-1.716,0.602-3.552-0.264-4.911c-0.776-1.223-2.072-1.939-3.647-2.021l-0.158-0.004
		c-2.022,0-4.892,2.021-5.686,4.004c-1.196,2.99-1.94,6.148-2.66,9.201c-0.229,0.973-0.456,1.939-0.697,2.894
		c-2.326,0.265-4.052,0.449-5.37,0.449c-3.325,0-3.623-0.778-5.323-7.879c-0.114-0.476-0.197-0.979-0.281-1.482
		c-0.242-1.449-0.492-2.947-1.402-4.07c-1.353-1.669-3.951-3.42-5.8-3.139c-1.348,0.207-2.355,0.762-2.992,1.649
		c-1.116,1.556-0.844,3.768-0.502,5.72c0.308,1.75,0.651,3.503,0.994,5.256c1.022,5.219,2.078,10.615,2.11,15.879
		c0.04,6.828-0.841,13.812-1.691,20.565c-0.228,1.805-0.455,3.609-0.666,5.412l-0.028,0.235
		c-2.065,17.639-1.953,17.91,12.047,29.138c0.096,0.076,0.187,0.177,0.28,0.274c0.329,0.346,0.778,0.82,1.443,0.848
		c0.473,0.02,0.987,0.083,1.509,0.145c0.704,0.084,1.431,0.17,2.118,0.17c1.079,0,1.854-0.216,2.438-0.68
		c0.717-0.569,1.446-1.135,2.177-1.7c7.73-5.989,15.725-12.182,11.343-24.827C144.515,203.541,144.499,202.452,144.482,201.297z
		 M128.064,219.749c-6.666-3.163-7.508-4.71-6.916-11.897c0.672-8.15,1.448-16.478,2.198-24.53c0.298-3.199,0.598-6.412,0.894-9.643
		h7.272l2.416,24.951c0.064,0.661,0.106,1.329,0.149,1.995c0.095,1.48,0.192,3.013,0.527,4.506
		C136.317,212.727,134.3,217.254,128.064,219.749z"/>
	<path fill="#010101" d="M92.069,173.169c-0.401-0.434-0.803-0.866-1.191-1.306l-0.729-0.827l-0.744,0.813
		c-0.418,0.455-0.846,0.903-1.275,1.35c-1.101,1.153-2.241,2.343-3.193,3.681c-0.54,0.76-0.429,1.745-0.331,2.615
		c0.033,0.298,0.069,0.594,0.069,0.867v36.065c0.001,5.27,0.002,10.539-0.002,15.809c-0.001,1.323-0.008,2.647-0.014,3.972
		c-0.011,2.136-0.021,4.273-0.008,6.409c0.033,5.381,2.819,6.56,5.151,6.602l0.139,0.001c2.431,0,5.336-1.179,5.369-6.797
		c0.002-0.275-0.005-0.55-0.012-0.825c-0.004-0.222-0.01-0.442-0.01-0.663l-0.031-60.767c0-0.276,0.036-0.574,0.07-0.872
		c0.098-0.854,0.208-1.823-0.308-2.59C94.154,175.416,93.094,174.273,92.069,173.169z"/>
	<path fill="#010101" d="M171.329,210.183c-0.003-10.375-0.006-20.75-0.001-31.124c0.002-2.406,0.005-7.414-5.33-7.443
		c-5.3,0-5.3,4.991-5.3,7.39c0.001,20.914,0.001,41.827-0.013,62.74c-0.002,2.222-0.007,7.423,5.318,7.448h0.042
		c1.538,0,2.764-0.445,3.642-1.325c1.465-1.47,1.661-3.785,1.655-6.069c-0.019-7.13-0.017-14.258-0.015-21.387L171.329,210.183z
		 M166.046,248.201L166.046,248.201v0.002V248.201z"/>
	<path fill="#010101" d="M31.042,129.298c-2.311-0.077-3.858,0.779-4.675,2.556c-0.653,1.415-0.705,3.182-0.704,4.724
		c0.021,21.074,0.021,42.146-0.001,63.22c-0.002,2.292-0.007,7.061,4.941,7.181l0.199,0.002c1.52,0,2.728-0.438,3.589-1.305
		c1.435-1.441,1.622-3.729,1.609-5.987c-0.041-7.614-0.034-15.358-0.027-22.85l0.006-8.755l-0.006-8.735
		c-0.009-7.496-0.017-15.247,0.031-22.87C36.017,134.383,36.048,129.478,31.042,129.298z"/>
	<path fill="#010101" d="M229.64,131.864c-0.781-1.705-2.261-2.57-4.396-2.57l-0.262,0.004c-5.03,0.161-4.999,5.066-4.985,7.162
		c0.048,7.621,0.04,15.373,0.031,22.87l-0.006,8.734l0.005,8.781c0.007,7.481,0.014,15.217-0.025,22.824
		c-0.012,2.268,0.175,4.565,1.605,6.002c0.862,0.868,2.074,1.308,3.603,1.308l0.167-0.002c4.969-0.101,4.964-4.87,4.962-7.162
		c-0.022-21.072-0.021-42.146-0.001-63.219C230.338,135.047,230.286,133.274,229.64,131.864z"/>
	<path fill="#010101" d="M60.74,128.438c0.79-1.359,0.863-3.157,0.216-5.341c-0.622-2.1-1.118-4.199-1.693-6.628
		c-0.178-0.754-0.362-1.532-0.556-2.339c0.981-0.001,1.933-0.005,2.862-0.009c2.917-0.01,5.621-0.02,8.322,0.027l0.205,0.001
		c2.273,0,4.085-0.668,5.101-1.881c0.555-0.662,1.15-1.828,0.831-3.618c-0.38-2.135-3.717-4.501-5.93-4.709
		c-2.401-0.226-4.961-0.331-8.057-0.331c-2.29,0-4.616,0.058-6.864,0.115l-1.955,0.048c-2.62,0.06-4.378,0.716-5.375,2.006
		c-1.034,1.336-1.218,3.229-0.577,5.957c0.658,2.8,1.377,5.63,2.072,8.368c0.466,1.833,0.933,3.667,1.384,5.505
		c0.432,1.761,1.333,5.426,4.935,5.426c0.449,0,0.93-0.06,1.433-0.177C58.813,130.454,60.041,129.641,60.74,128.438z"/>
</g>
</svg>
