<?xml version="1.0" encoding="utf-8"?>
<!-- Generator: Adobe Illustrator 16.0.0, SVG Export Plug-In . SVG Version: 6.00 Build 0)  -->
<!DOCTYPE svg PUBLIC "-//W3C//DTD SVG 1.1//EN" "http://www.w3.org/Graphics/SVG/1.1/DTD/svg11.dtd">
<svg version="1.1" id="Layer_1" xmlns="http://www.w3.org/2000/svg" xmlns:xlink="http://www.w3.org/1999/xlink" x="0px" y="0px"
	 width="256px" height="256px" viewBox="0 0 256 256" enable-background="new 0 0 256 256" xml:space="preserve">
<path fill-rule="evenodd" clip-rule="evenodd" d="M194.21,229.539c-0.009,3.259-0.021,6.51-0.021,9.79c-7.057,0-13.823,0-21.195,0
	c0-11.107,0.015,2.932-0.015-7.979c-0.005-1.984,0.051-4.018-0.341-5.942c-1.05-5.152-3.904-7.301-8.688-6.858
	c-4.155,0.385-6.785,3.329-6.845,8.286c-0.13,10.639-0.054-3.671-0.062,6.969c-0.001,1.644,0,3.289,0,5.331
	c-29.118,0-57.946,0-87.589,0c0-3.729,0-7.637,0-11.547c-0.001-8.146,0.046-16.291-0.018-24.437
	c-0.05-6.287-2.655-9.484-7.617-9.593c-5.181-0.114-8.192,3.16-8.273,9.582c-0.14,11.137-0.042,22.275-0.058,33.413
	c0,0.802-0.12,1.604-0.207,2.685c-7.069,0-13.953,0-20.855,0c-0.186-0.61-0.455-1.079-0.452-1.546
	c0.111-20.105-0.185-40.227,0.521-60.311c0.538-15.287,14.148-27.588,29.391-28.738c9.14-0.689,16.448,0.926,22.62,8.645
	c5.983,7.482,13.448,13.785,20.274,20.595c6.845,6.827,10.129,6.798,17.101-0.164c8.82-8.81,17.552-17.715,26.518-26.375
	c1.471-1.421,3.92-2.448,5.969-2.544c8.475-0.396,16.901-0.462,24.529,4.504c8.195,5.335,13.807,12.312,14.964,21.681h16.086
	c-1.787-21.122-18.135-37.956-39.336-41.309c-5.469-0.864-11.065-0.927-16.754-1.369c43.876-33.198,34.622-84.218,14.122-107.155
	C141.188-4.82,97.947-8.351,67.628,16.436C49.097,31.586,40.392,51.69,41.45,75.656c1.055,23.871,12.619,42.236,32.356,57.124
	c-4.932,0-8.406-0.084-11.876,0.014c-22.672,0.634-44.196,19.417-45.24,41.354c-1.146,24.055-0.632,48.193-0.599,72.295
	c0.008,6.154,3.302,8.997,9.549,9.001c58.356,0.039,116.713,0.038,175.069,0.003c6.5-0.004,9.7-2.872,9.722-9.354
	c0.018-5.517,0.053-11.034,0.083-16.552H194.21z M113.343,161.918c-6.828-6.588-14.255-13.755-21.91-21.143
	c14.592,4.396,29.049,4.484,43.76-0.078C127.524,148.145,120.198,155.261,113.343,161.918z M57.264,71.406
	c0.247-31.019,25.413-55.648,56.645-55.437c30.953,0.209,55.532,25.422,55.328,56.756c-0.2,30.733-25.4,55.625-56.148,55.46
	C81.744,128.017,57.014,102.863,57.264,71.406z"/>
<polygon fill-rule="evenodd" clip-rule="evenodd" points="223.689,175.445 213.686,185.668 221.082,195.942 175.455,195.942 
	175.455,210.245 221.218,210.245 213.812,221.775 224.047,231.768 246,203.094 "/>
</svg>
