<?xml version="1.0" encoding="utf-8"?>
<!-- Generator: Adobe Illustrator 16.0.0, SVG Export Plug-In . SVG Version: 6.00 Build 0)  -->
<!DOCTYPE svg PUBLIC "-//W3C//DTD SVG 1.1//EN" "http://www.w3.org/Graphics/SVG/1.1/DTD/svg11.dtd">
<svg version="1.1" id="Layer_1" xmlns="http://www.w3.org/2000/svg" xmlns:xlink="http://www.w3.org/1999/xlink" x="0px" y="0px"
	 width="400px" height="400px" viewBox="0 0 400 400" enable-background="new 0 0 400 400" xml:space="preserve">
<g>
	<g>
		<path d="M382.558,34.801H17.186c-9.755,0-17.692,7.937-17.692,17.693v295.151c0,9.756,7.937,17.693,17.692,17.693h365.372
			c9.756,0,17.693-7.938,17.693-17.693V52.494C400.251,42.738,392.313,34.801,382.558,34.801z M382.558,347.646l-365.371,0.012
			c0,0-0.001-0.004-0.001-0.012V52.494h365.372V347.646z"/>
	</g>
</g>
<g>
	<g>
		<path d="M349.354,76.853H50.39c-4.885,0-8.846,3.961-8.846,8.847v195.525c0,4.884,3.961,8.845,8.846,8.845h298.965
			c4.884,0,8.845-3.961,8.845-8.847V85.699C358.201,80.814,354.238,76.853,349.354,76.853z M59.236,94.545h281.271v149.761
			l-55.753-55.745c-3.454-3.453-9.056-3.453-12.512,0l-33.986,33.988l-77.928-77.93c-3.454-3.452-9.055-3.453-12.51,0
			l-88.582,88.574L59.236,94.545L59.236,94.545z M59.236,272.376v-14.163l94.836-94.828l108.991,108.991H59.236z M340.51,272.378
			h-52.424v-0.002l-37.317-37.316l27.732-27.732l59.973,59.967c0.618,0.616,1.305,1.119,2.034,1.516v3.568H340.51z"/>
	</g>
</g>
<g>
	<g>
		<path d="M237.713,111.331c-18.44,0-33.446,15.004-33.446,33.445c0,18.442,15.006,33.446,33.446,33.446
			c18.441,0,33.446-15.004,33.446-33.446C271.159,126.334,256.154,111.331,237.713,111.331z M237.713,160.528
			c-8.687,0-15.753-7.065-15.753-15.752c0-8.686,7.066-15.751,15.753-15.751c8.685,0,15.753,7.066,15.753,15.751
			C253.466,153.463,246.399,160.528,237.713,160.528z"/>
	</g>
</g>
<g>
	<g>
		<path d="M127.338,310.01H50.39c-4.885,0-8.846,3.963-8.846,8.847c0,4.886,3.961,8.847,8.846,8.847h76.949
			c4.885,0,8.846-3.963,8.846-8.847S132.224,310.01,127.338,310.01z"/>
	</g>
</g>
<g>
	<g>
		<path d="M187.888,310.01h-20.183c-4.885,0-8.845,3.963-8.845,8.847s3.96,8.847,8.845,8.847h20.183
			c4.886,0,8.847-3.963,8.847-8.847S192.772,310.01,187.888,310.01z"/>
	</g>
</g>
</svg>
