<?xml version="1.0" encoding="utf-8"?>
<!-- Generator: Adobe Illustrator 16.0.0, SVG Export Plug-In . SVG Version: 6.00 Build 0)  -->
<!DOCTYPE svg PUBLIC "-//W3C//DTD SVG 1.1//EN" "http://www.w3.org/Graphics/SVG/1.1/DTD/svg11.dtd">
<svg version="1.1" id="Layer_1" xmlns="http://www.w3.org/2000/svg" xmlns:xlink="http://www.w3.org/1999/xlink" x="0px" y="0px"
	 width="400px" height="400px" viewBox="0 0 400 400" enable-background="new 0 0 400 400" xml:space="preserve">
<path fill-rule="evenodd" clip-rule="evenodd" fill="#231F20" d="M389.076,190.057c-0.67,0.084-1.256,0.166-1.924,0.166
	c-5.439,0-10.209-3.842-11.13-9.357c-6.612-38.937-25.022-74.449-53.306-102.69c-28.284-28.16-63.848-46.625-102.842-53.228
	c-6.195-1.087-10.294-6.85-9.291-13.036c1.09-6.099,6.862-10.276,12.97-9.188c43.683,7.437,83.432,27.991,115.063,59.576
	c31.631,31.583,52.219,71.274,59.664,114.891C399.367,183.288,395.184,189.139,389.076,190.057z M220.458,74.496
	c26.528,4.513,50.711,17.048,69.876,36.183c19.162,19.135,31.715,43.281,36.233,69.771c1.003,6.183-3.096,12.03-9.291,13.033
	c-0.667,0.084-1.253,0.169-1.924,0.169c-5.44,0-10.209-3.845-11.128-9.36c-3.767-21.89-14.061-41.776-29.96-57.652
	c-15.896-15.878-35.814-26.239-57.74-29.915c-6.191-1.003-10.209-6.935-9.121-13.034C208.493,77.589,214.266,73.496,220.458,74.496z
	 M217.53,266.262c2.426,1.504,5.271,2.924,8.286,4.428c2.09,1.087,4.265,2.175,6.442,3.344l26.441-26.321
	c8.451-8.438,18.328-12.867,28.619-12.867c10.378,0,20.168,4.513,28.284,12.949l45.941,46.041
	c8.451,8.358,12.886,18.302,12.886,28.662c0,10.275-4.35,20.304-12.635,28.909c-3.598,3.76-7.279,7.354-10.877,10.78
	c-5.274,5.099-10.294,9.858-14.646,15.123c-0.082,0.166-0.251,0.251-0.335,0.417c-12.717,13.788-28.952,20.724-48.283,20.724
	c-1.673,0-3.516-0.085-5.271-0.169c-28.704-1.837-54.394-12.617-73.64-21.724c-50.376-24.315-94.475-58.824-131.129-102.524
	c-30.208-36.265-50.46-70.105-64.016-106.621C8.078,152.54,0.88,129.813,2.888,105.414c1.338-15.124,7.449-28.16,18.159-38.856
	L49.498,37.9c0.084-0.084,0.084-0.084,0.169-0.166c8.367-8.022,18.241-12.285,28.45-12.285c10.209,0,19.917,4.262,28.033,12.285
	c5.44,5.011,10.711,10.36,15.734,15.54c2.51,2.673,5.186,5.347,7.781,7.938l22.844,22.811c17.573,17.549,17.573,40.275,0,57.821
	c-2.341,2.341-4.685,4.763-7.028,7.104c-6.192,6.265-12.55,12.783-19.413,19.05c5.105,11.282,12.133,22.394,22.594,35.596
	C170.251,230.082,192.76,250.555,217.53,266.262z M130.921,217.631c-12.719-16.126-21.089-29.661-27.03-44.032
	c-0.082-0.254-0.166-0.504-0.25-0.752c-1.507-4.763-2.846-11.783,4.353-18.968c0.084-0.167,0.25-0.251,0.417-0.417
	c7.279-6.518,13.976-13.203,21.005-20.388c2.428-2.341,4.769-4.764,7.198-7.186c8.868-8.859,8.868-17.047,0-25.904l-22.847-22.811
	c-2.676-2.758-5.355-5.431-7.95-8.107c-5.105-5.262-9.956-10.191-15.061-14.955c-0.084-0.084-0.169-0.169-0.25-0.251
	c-2.679-2.676-6.947-5.851-12.218-5.851c-4.268,0-8.621,2.09-12.72,5.933L37.029,82.437c-6.944,6.935-10.71,15.039-11.547,24.813
	c-1.253,15.292,1.592,31.503,9.373,52.309c12.638,34.092,31.715,65.844,60.25,100.187c34.561,41.19,76.15,73.697,123.514,96.589
	c17.322,8.273,40.417,17.967,65.27,19.555c1.257,0.082,2.595,0.082,3.852,0.082c13.055,0,23.01-4.259,31.464-13.284
	c5.187-6.102,10.711-11.532,16.151-16.713c3.597-3.51,6.943-6.684,10.209-10.193c8.533-8.856,8.533-17.631-0.085-26.151
	l-46.107-46.042c-0.085-0.084-0.085-0.084-0.169-0.166c-2.595-2.842-6.86-6.102-12.049-6.102c-5.274,0-9.793,3.426-12.635,6.268
	l-28.622,28.577c-1.42,1.42-5.772,5.766-12.717,5.766c-2.764,0-5.439-0.67-8.285-2.09c-0.335-0.166-0.671-0.417-1.006-0.586
	c-2.426-1.501-5.271-2.924-8.282-4.428c-3.35-1.671-6.862-3.426-10.294-5.598c-26.861-16.963-51.212-39.105-74.31-67.514
	L130.921,217.631z M345.563,335.781"/>
</svg>
