<?xml version="1.0" encoding="utf-8"?>
<!-- Generator: Adobe Illustrator 16.0.0, SVG Export Plug-In . SVG Version: 6.00 Build 0)  -->
<!DOCTYPE svg PUBLIC "-//W3C//DTD SVG 1.1//EN" "http://www.w3.org/Graphics/SVG/1.1/DTD/svg11.dtd">
<svg version="1.1" id="Layer_1" xmlns="http://www.w3.org/2000/svg" xmlns:xlink="http://www.w3.org/1999/xlink" x="0px" y="0px"
	 width="400px" height="400px" viewBox="0 0 400 400" enable-background="new 0 0 400 400" xml:space="preserve">
<path fill-rule="evenodd" clip-rule="evenodd" fill="#1AFF30" d="M376.943,277.693c-26.46,0-52.935-4.417-79.409-13.237
	c-6.604-2.202-15.424,0-22.043,4.417l-48.518,48.518c-61.768-30.877-112.494-83.812-145.572-145.566l48.517-48.518
	c6.619-6.619,8.827-15.438,4.41-22.057c-6.611-24.258-11.021-50.733-11.021-77.193C123.307,10.82,114.48,2,101.25,2H24.057
	C10.82,2,2,10.82,2,24.057C2,231.377,169.623,399,376.943,399C390.18,399,399,390.18,399,376.943V299.75
	C399,286.514,390.18,277.693,376.943,277.693z"/>
</svg>
