<?xml version="1.0" encoding="utf-8"?>
<!-- Generator: Adobe Illustrator 16.0.0, SVG Export Plug-In . SVG Version: 6.00 Build 0)  -->
<!DOCTYPE svg PUBLIC "-//W3C//DTD SVG 1.1//EN" "http://www.w3.org/Graphics/SVG/1.1/DTD/svg11.dtd">
<svg version="1.1" id="Layer_1" xmlns="http://www.w3.org/2000/svg" xmlns:xlink="http://www.w3.org/1999/xlink" x="0px" y="0px"
	 width="400px" height="400px" viewBox="0 0 400 400" enable-background="new 0 0 400 400" xml:space="preserve">
<g>
	<g>
		<path fill-rule="evenodd" clip-rule="evenodd" d="M398.773,68.504c-0.067-23.131-15.607-38.073-38.328-38.068
			c-89.795,0.034-179.588,0.011-269.381,0.005c-19.433,0-35.421,13.974-38.134,33.351c-0.82,5.852,1.544,9.971,6.09,10.613
			c4.291,0.609,7.186-2.414,8.094-8.41c0.042-0.266,0.271-0.504,0.593-1.069c1.195,0.975,2.369,1.877,3.482,2.846
			c49.799,43.549,99.59,87.104,149.392,130.641c5.991,5.238,8.111,5.22,14.079-0.005c48.409-42.353,96.813-84.711,145.224-127.064
			c1.284-1.124,2.657-2.159,4.501-3.648v204.28c-2.396-1.739-3.986-2.847-5.525-4.015c-26.226-19.97-52.445-39.949-78.665-59.92
			c-7.89-6.013-15.752-12.063-23.695-18.003c-4.048-3.029-8.389-2.58-10.868,0.875c-2.541,3.543-1.617,7.474,2.523,10.735
			c0.354,0.282,0.737,0.537,1.103,0.819c32.775,24.963,65.556,49.932,98.325,74.906c1.478,1.129,2.896,2.337,5.358,4.323h-36.528
			c-15.191,0.006-30.383,0.028-45.58-0.005c-3.494-0.006-6.688,1.024-7.552,4.584c-0.542,2.215-0.227,5.592,1.141,7.086
			c1.589,1.723,4.755,2.686,7.241,2.702c26.132,0.183,52.269,0.139,78.4,0.105c16.708-0.022,28.7-11.71,28.733-28.617
			C398.917,201.204,398.978,134.851,398.773,68.504z M376.916,54.901c-48.731,42.651-97.484,85.281-146.177,127.977
			c-2.169,1.905-3.56,2.442-6.051,0.255C175.332,139.806,125.89,96.579,76.464,53.323c-0.797-0.697-1.589-1.406-2.84-2.514
			c4.861-4.617,10.129-5.885,15.897-5.879c48.911,0.017,97.819,0.011,146.732,0.017c43.134,0,86.272,0.028,129.411-0.022
			c5.88-0.011,10.613,1.987,14.262,7.069C378.853,53.035,377.923,54.015,376.916,54.901z M229.461,261.074
			c-15.485-7.142-29.102-3.748-40.072,9.462c-4.65,5.597-8.41,12.013-12.136,18.319c-1.625,2.757-3.366,3.936-6.452,3.953
			c-8.407,0.044-16.333-2.071-23.585-6.063c-26.405-14.522-46.854-35.339-61.755-61.681c-4.41-7.796-6.857-16.365-6.76-25.55
			c0.036-3.261,1.094-5.099,4.014-6.882c6.729-4.108,13.381-8.503,19.43-13.558c7.089-5.93,10.882-13.891,10.871-23.502
			c-0.305-2.436-0.269-4.972-0.961-7.28c-8.636-28.911-28.407-46.915-55.693-56.914c-10.654-3.903-20.158-0.786-27.933,7.978
			c-9.774,11.018-16.905,23.491-22.389,37.177c-4.888,12.202-5.174,23.873-1.199,36.623c13.932,44.673,36.631,83.925,68.789,117.486
			c37.464,39.098,82.242,65.589,134.5,78.859c2.591,0.659,5.48,1.395,8.005,0.896c21.857-4.295,41.035-14.073,56.687-30.205
			c2.885-2.974,5.05-7.547,5.658-11.666c0.708-4.816,0.427-10.38-1.307-14.87C268.033,289.968,252.542,271.715,229.461,261.074z
			 M260.924,332.238c-12.163,11.211-26.198,18.84-42.043,22.931c-3.072,0.792-6.732,0.593-9.827-0.249
			C141.27,336.512,88.592,296.9,50.106,237.744c-15.291-23.503-26.796-48.875-33.398-76.318c-0.886-3.682-0.75-8.006,0.199-11.688
			c4.02-15.579,11.585-29.271,22.414-41.151c4.285-4.7,9.196-5.68,14.854-3.887c2.726,0.864,5.464,1.988,7.884,3.505
			c12.678,7.956,23.538,17.938,31.61,30.727c2.086,3.305,3.565,7.114,4.739,10.878c2.057,6.6,0.576,12.944-4.556,17.257
			c-6.248,5.259-13.014,10.093-20.155,13.979c-4.855,2.641-7.277,5.957-8.299,11.117c-2.049,10.337-0.371,20.214,3.338,29.813
			c8.642,22.36,23.884,39.801,41.135,55.607c13.038,11.946,27.23,22.184,44.443,27.133c4.781,1.373,9.774,1.982,13.996,2.813
			c4.102-0.587,7.421-0.952,10.696-1.562c4.606-0.853,7.427-3.443,9.735-7.899c3.629-7.005,8.053-13.736,13.028-19.838
			c5.773-7.081,13.686-8.171,21.939-4.755c3.472,1.439,6.849,3.404,9.833,5.708c10.719,8.277,19.781,18.181,26.984,29.741
			c1.683,2.706,3.033,5.702,4.058,8.725C266.46,323.208,265.486,328.03,260.924,332.238z M126.939,249.686
			c20.308-16.149,40.581-32.343,60.77-48.647c1.645-1.329,2.544-3.599,4.213-6.057c-1.719-2.275-2.887-5.398-4.772-5.936
			c-2.514-0.719-6.32-0.398-8.302,1.146c-20.346,15.851-40.454,32.011-60.582,48.144c-4.08,3.272-4.659,7.347-1.837,10.796
			C119.133,252.442,123.039,252.786,126.939,249.686z"/>
	</g>
</g>
</svg>
