<?xml version="1.0" encoding="utf-8"?>
<!-- Generator: Adobe Illustrator 16.0.0, SVG Export Plug-In . SVG Version: 6.00 Build 0)  -->
<!DOCTYPE svg PUBLIC "-//W3C//DTD SVG 1.1//EN" "http://www.w3.org/Graphics/SVG/1.1/DTD/svg11.dtd">
<svg version="1.1" id="Layer_1" xmlns="http://www.w3.org/2000/svg" xmlns:xlink="http://www.w3.org/1999/xlink" x="0px" y="0px"
	 width="400px" height="400px" viewBox="0 0 400 400" enable-background="new 0 0 400 400" xml:space="preserve">
<path fill-rule="evenodd" clip-rule="evenodd" fill="#231F20" d="M390.361,189.437c-0.672,0.084-1.26,0.168-1.938,0.168
	c-5.489,0-10.307-3.882-11.236-9.449c-6.671-39.301-25.257-75.146-53.801-103.653c-28.55-28.418-64.448-47.058-103.81-53.723
	c-6.251-1.098-10.39-6.917-9.37-13.156c1.092-6.155,6.923-10.373,13.09-9.281c44.088,7.511,84.21,28.256,116.138,60.136
	s52.703,71.942,60.226,115.97C400.752,182.604,396.528,188.507,390.361,189.437z M220.172,72.795
	c26.773,4.553,51.185,17.206,70.525,36.517c19.342,19.317,32.012,43.686,36.577,70.424c1.008,6.239-3.132,12.148-9.383,13.156
	c-0.672,0.084-1.26,0.168-1.938,0.168c-5.489,0-10.307-3.875-11.236-9.443c-3.804-22.101-14.188-42.174-30.236-58.198
	c-16.054-16.024-36.15-26.48-58.281-30.194c-6.251-1.008-10.304-7.001-9.209-13.156C208.095,75.915,213.92,71.781,220.172,72.795z
	 M217.214,266.352c2.447,1.519,5.321,2.952,8.363,4.47c2.111,1.098,4.307,2.196,6.503,3.378l26.69-26.57
	c8.53-8.52,18.495-12.988,28.886-12.988c10.475,0,20.354,4.553,28.55,13.072l46.367,46.476c8.531,8.429,13.013,18.465,13.013,28.928
	c0,10.372-4.397,20.493-12.755,29.18c-3.629,3.798-7.349,7.421-10.984,10.877c-5.315,5.146-10.384,9.952-14.781,15.268
	c-0.084,0.168-0.252,0.252-0.336,0.42c-12.839,13.918-29.223,20.919-48.737,20.919c-1.686,0-3.546-0.084-5.315-0.168
	c-28.976-1.859-54.904-12.736-74.33-21.927c-50.848-24.543-95.362-59.38-132.356-103.485
	c-30.494-36.607-50.933-70.767-64.617-107.619c-5.573-15.01-12.838-37.951-10.811-62.583c1.35-15.262,7.517-28.418,18.327-39.217
	l28.718-28.928c0.084-0.084,0.084-0.084,0.171-0.168c8.444-8.099,18.411-12.4,28.718-12.4c10.304,0,20.1,4.301,28.295,12.4
	c5.489,5.063,10.81,10.457,15.876,15.688c2.535,2.7,5.237,5.399,7.856,8.009l23.058,23.031c17.74,17.709,17.74,40.65,0,58.359
	c-2.363,2.364-4.727,4.806-7.094,7.169c-6.248,6.323-12.67,12.904-19.596,19.228c5.153,11.386,12.25,22.605,22.806,35.929
	C169.491,229.835,192.212,250.496,217.214,266.352z M129.794,217.267c-12.841-16.275-21.285-29.941-27.284-44.447
	c-0.084-0.252-0.168-0.504-0.252-0.756c-1.521-4.812-2.871-11.891,4.391-19.149c0.084-0.168,0.255-0.252,0.423-0.42
	c7.349-6.575,14.104-13.324,21.201-20.577c2.448-2.364,4.814-4.805,7.262-7.253c8.954-8.939,8.954-17.206,0-26.145l-23.058-23.025
	c-2.703-2.783-5.405-5.483-8.024-8.183C99.3,61.997,94.402,57.023,89.249,52.218c-0.084-0.09-0.168-0.174-0.252-0.258
	c-2.703-2.699-7.01-5.903-12.332-5.903c-4.307,0-8.699,2.111-12.838,5.987l-28.802,28.76c-7.01,7.001-10.813,15.184-11.656,25.052
	c-1.269,15.43,1.605,31.796,9.458,52.792c12.754,34.412,32.015,66.458,60.816,101.128c34.882,41.574,76.861,74.383,124.668,97.492
	c17.487,8.351,40.801,18.135,65.883,19.737c1.266,0.084,2.622,0.084,3.882,0.084c13.18,0,23.229-4.302,31.76-13.408
	c5.236-6.161,10.81-11.639,16.306-16.87c3.629-3.539,7.007-6.749,10.306-10.288c8.615-8.939,8.615-17.794-0.084-26.396
	l-46.541-46.476c-0.084-0.084-0.084-0.084-0.168-0.168c-2.622-2.867-6.929-6.155-12.166-6.155c-5.321,0-9.881,3.456-12.755,6.323
	l-28.886,28.844c-1.434,1.434-5.825,5.819-12.838,5.819c-2.79,0-5.489-0.672-8.363-2.105c-0.342-0.168-0.678-0.42-1.014-0.588
	c-2.447-1.518-5.321-2.952-8.362-4.476c-3.378-1.686-6.924-3.455-10.388-5.646c-27.113-17.121-51.692-39.474-75.004-68.15
	L129.794,217.267z M346.447,336.524"/>
</svg>
