<?xml version="1.0" encoding="utf-8"?>
<!-- Generator: Adobe Illustrator 16.0.0, SVG Export Plug-In . SVG Version: 6.00 Build 0)  -->
<!DOCTYPE svg PUBLIC "-//W3C//DTD SVG 1.1//EN" "http://www.w3.org/Graphics/SVG/1.1/DTD/svg11.dtd">
<svg version="1.1" id="Layer_1" xmlns="http://www.w3.org/2000/svg" xmlns:xlink="http://www.w3.org/1999/xlink" x="0px" y="0px"
	 width="256px" height="256px" viewBox="0 0 256 256" enable-background="new 0 0 256 256" xml:space="preserve">
<g>
	<path fill-rule="evenodd" clip-rule="evenodd" d="M0.5,213.636c0-12.86,0-25.718,0-38.577c0.317-0.657,0.843-1.291,0.917-1.975
		c1.422-13.088,6.249-24.931,14.544-34.965c5.803-7.018,12.896-12.972,19.514-19.501c-0.884-1.069-2.079-2.518-3.278-3.962
		C13.428,92.035,15.3,58.591,36.44,38.856c21.849-20.397,55.663-20.431,76.592,0.81c5.442,5.523,10.477,7.96,17.942,7.362
		c3.593-0.287,6.178-0.818,8.67-3.722c11.958-13.933,27.235-20.12,45.623-19.355c32.975,1.372,58.07,34.352,50.663,66.601
		c-2.551,11.111-8.074,20.458-15.94,28.905c16.446,10.937,27.776,25.039,32.949,43.671c1.094,3.937,1.904,7.952,2.846,11.93
		c0,12.859,0,25.717,0,38.577c-17.699,0-35.399,0-53.679,0c0,7.999,0,15.282,0,22.544c-49.622,0-98.657,0-148.314,0
		c0-7.699,0-14.957,0-22.544C35.612,213.636,18.055,213.636,0.5,213.636z M67.852,222.854c40.414,0,80.51,0,120.914,0
		c0-5.976,0.165-11.446-0.028-16.906c-0.802-22.59-10.672-39.993-29.898-52.057c-3.094-1.942-5.648-2.273-9.266-0.7
		c-12.362,5.375-25.667,6.985-37.956,1.579c-9.52-4.188-15.616-0.91-21.974,4.663c-3.391,2.972-6.606,6.245-9.413,9.771
		C67.726,184.909,66.397,203.313,67.852,222.854z M128.528,60.444c-23.389-0.062-42.255,18.532-42.342,41.727
		c-0.087,23.017,18.949,42.034,42.163,42.12c22.588,0.084,41.703-19.114,41.749-41.933
		C170.145,79.394,151.411,60.505,128.528,60.444z M105.468,50.998c-14.621-15.467-36.646-18.194-53.805-6.96
		C34.583,55.22,28.027,76.965,36.062,95.792c6.782,15.891,25.582,27.538,39.145,24.248C67.833,91.451,77.698,65.886,105.468,50.998z
		 M180.883,120.746c20.762-0.188,37.421-13.22,41.743-32.139c4.294-18.805-4.856-38.183-22.19-46.985
		c-16.688-8.476-37.284-4.585-49.609,9.527C178.653,66.461,188.354,89.75,180.883,120.746z M89.104,143.04
		c-3.172-7.912-8.768-9.02-16.069-9.013c-6.759,0.006-13.486-2.801-20.301-3.94c-2.652-0.446-6.039-0.639-8.178,0.611
		C18.6,145.867,11.072,170.97,14.811,199.659c13.124,0,26.249,0,39.522,0C57.204,174.979,69.047,156.162,89.104,143.04z
		 M242.187,199.833c0-6.378,0.203-12.219-0.035-18.042c-0.934-22.701-11.25-39.933-30.841-51.379
		c-2.002-1.17-5.223-0.871-7.733-0.434c-6.988,1.223-13.924,4.143-20.839,4.024c-7.584-0.132-12.558,2.019-15.825,8.906
		c20.534,13.268,32.244,32.368,35.119,56.924C215.441,199.833,228.434,199.833,242.187,199.833z"/>
</g>
</svg>
