<?xml version="1.0" encoding="utf-8"?>
<!-- Generator: Adobe Illustrator 16.0.0, SVG Export Plug-In . SVG Version: 6.00 Build 0)  -->
<!DOCTYPE svg PUBLIC "-//W3C//DTD SVG 1.1//EN" "http://www.w3.org/Graphics/SVG/1.1/DTD/svg11.dtd">
<svg version="1.1" id="Layer_1" xmlns="http://www.w3.org/2000/svg" xmlns:xlink="http://www.w3.org/1999/xlink" x="0px" y="0px"
	 width="256px" height="256px" viewBox="0 0 256 256" enable-background="new 0 0 256 256" xml:space="preserve">
<g>
	<path fill-rule="evenodd" clip-rule="evenodd" d="M107.333,57.926c9.541-12.358,22.287-17.886,37.588-18.345
		c3.954-0.119,6.654,0.796,8.395,4.63c2.104,4.638,4.837,5.475,8.837,1.323c8.24-8.554,19.041-11.127,30.42-11.669
		c1.811-0.086,4.876,0.911,5.342,2.161c1.794,4.796,5.782,5.708,9.812,7.332c10.87,4.378,17.307,20.856,13.889,33.932
		c-0.665,2.545-0.48,5.441-0.124,8.099c0.822,6.157-0.74,11.135-4.036,16.669c-4.55,7.639-10.177,15.711-8.315,25.427
		c0.5,2.597,3.678,5.34,6.305,6.742c6.703,3.576,13.898,6.221,20.699,9.631c9.308,4.667,15.606,11.934,18.08,22.294
		c2.121,8.896,0.311,11.397-8.627,11.403c-10.949,0.009-21.901,0.001-33.385,0.001c1.363,4.805,2.873,9.182,3.814,13.676
		c1.236,5.898-1.035,8.562-7.131,8.586c-17.154,0.07-34.309,0.023-51.533,0.023c1.102,5.048,2.33,9.754,3.113,14.536
		c0.919,5.629-1.957,7.897-7.437,7.843c-11.165-0.112-22.334-0.033-33.502-0.033c-36.607,0-73.212,0.009-109.818-0.005
		c-8.675-0.005-10.237-2.318-8.746-11.067c2.293-13.46,9.913-22.938,21.526-29.302c7.397-4.056,15.058-7.709,22.847-10.948
		c9.958-4.142,10.535-16.503,6.125-25.298c-4.603-9.173-8.887-18.51-13.121-27.859c-0.729-1.606-1.293-4-0.624-5.408
		c3.58-7.517,0.345-14.813-0.051-22.227c-1.233-23.003,14.514-41.149,37.926-44.145c3.074-0.393,6.159-1.105,9.221-1.021
		c2.099,0.058,5.646,0.793,6.007,1.991C93.364,55.316,101.286,54.941,107.333,57.926z M148.271,210.761
		c-0.931-7.145-4.563-12.436-10.227-15.771c-6.889-4.056-14.163-7.54-21.513-10.71c-21.208-9.138-24.765-13.096-22.738-35.807
		c0.807-9.018,6.707-17.585,10.353-26.331c0.197-0.472,1.039-0.64,1.506-1.038c3.871-3.297,5.185-6.898,2.364-11.78
		c-1.051-1.819-0.922-4.556-0.724-6.821c0.552-6.282,2.367-12.599,1.958-18.788c-0.724-10.935-7.308-17.247-17.681-19.664
		c-2.229-0.52-3.968-3.004-6.03-4.443c-1.477-1.031-3.132-2.639-4.681-2.608c-23.864,0.476-38.017,20.416-31.075,43.024
		c0.943,3.075-0.772,6.871-0.466,10.262c0.323,3.558,1.308,7.138,2.553,10.503c0.869,2.353,2.958,4.233,3.979,6.555
		c1.48,3.367,1.59,7.751,3.869,10.27c5.974,6.605,4.992,14.278,5.218,22.014c0.198,6.846-2.544,12.208-7.72,16.061
		c-4.257,3.167-9.155,5.503-13.876,8.009c-6.358,3.375-13.023,6.216-19.174,9.919c-6.203,3.735-10.269,9.329-11.367,17.146
		C58.082,210.761,103.055,210.761,148.271,210.761z M203.784,188.842c-1.934-8.219-7.018-12.892-13.451-16.06
		c-7.365-3.627-15.107-6.485-22.504-10.053c-16.352-7.89-20.416-22.925-10.846-38.354c1.8-2.9,2.361-6.541,3.848-9.67
		c1.163-2.447,3.364-4.47,4.224-6.981c0.996-2.914,1.217-6.142,1.431-9.256c0.17-2.475-0.285-4.987-0.276-7.481
		c0.021-7.261,1.269-14.763-0.21-21.691c-0.869-4.069-5.423-8.276-9.395-10.5c-4.019-2.25-9.865-1.099-11.977-7.051
		c-0.238-0.665-2.626-0.935-3.95-0.783c-8.853,1.011-16.785,4.025-22.798,10.999c-2.306,2.673-3.076,5.021-1.312,8.765
		c3.832,8.128,5.487,16.945,3.478,25.873c-0.981,4.355-1.389,8.176-0.637,12.802c0.824,5.065,0.072,11.903-2.902,15.676
		c-3.597,4.565-5.084,9.418-6.976,14.423c-0.581,1.537-1.366,3-2.093,4.477c-7.742,15.748-2.738,23.908,9.89,28.923
		c10.242,4.063,19.729,10.019,29.585,15.064c1.043,0.532,2.322,0.839,3.493,0.842C167.964,188.857,185.521,188.842,203.784,188.842z
		 M168.716,52.495c9.401,12.586,13.006,24.657,8.442,38.465c-0.429,1.296,0.309,3.042,0.692,4.531
		c1.929,7.485,0.93,14.179-4.862,19.806c-1.091,1.059-1.774,2.616-2.419,4.045c-1.937,4.28-3.499,8.747-5.691,12.886
		c-2.739,5.175-1.778,15.753,3.007,17.826c16.499,7.15,31.346,19.248,51.159,16.902c7.606-0.903,15.406-0.148,23.771-0.148
		c-2.456-7.852-7.565-11.417-13.44-14.194c-7.249-3.426-14.759-6.379-21.746-10.271c-9.126-5.081-13.602-18.383-9.284-27.599
		c3.395-7.245,7.829-14,11.585-21.085c0.787-1.487,1.514-4.17,0.767-5.105c-3.075-3.853-1.329-7.181-0.054-10.96
		c4.183-12.387-1.854-23.094-14.64-26.711c-1.253-0.354-2.197-1.681-3.413-2.303c-1.953-0.998-4.319-2.91-5.969-2.458
		C180.652,47.754,174.908,50.213,168.716,52.495z"/>
</g>
</svg>
