<?xml version="1.0" encoding="utf-8"?>
<!-- Generator: Adobe Illustrator 16.0.0, SVG Export Plug-In . SVG Version: 6.00 Build 0)  -->
<!DOCTYPE svg PUBLIC "-//W3C//DTD SVG 1.1//EN" "http://www.w3.org/Graphics/SVG/1.1/DTD/svg11.dtd">
<svg version="1.1" id="Layer_1" xmlns="http://www.w3.org/2000/svg" xmlns:xlink="http://www.w3.org/1999/xlink" x="0px" y="0px"
	 width="400px" height="400px" viewBox="0 0 400 400" enable-background="new 0 0 400 400" xml:space="preserve">
<path stroke="#11D2E3" stroke-width="3" stroke-miterlimit="10" d="M200.461,8.504c106.315,0,192.5,86.185,192.5,192.5
	c0,106.314-86.185,192.5-192.5,192.5c-106.315,0-192.5-86.186-192.5-192.5C7.961,94.689,94.146,8.504,200.461,8.504z"/>
<path fill-rule="evenodd" clip-rule="evenodd" fill="#11D2E3" d="M314.655,171.365l-41,41.047l0.002,83.268
	c0,2.182-1.766,3.948-3.942,3.948H123.921c-2.178,0-3.944-1.767-3.944-3.948V118.328c0-2.181,1.766-3.949,3.944-3.948h145.793
	c2.177,0,3.942,1.768,3.942,3.948v53.529l20.746-20.767c2.117-2.119,4.93-3.287,7.924-3.287c2.993,0,5.809,1.167,7.926,3.287
	l4.402,4.407c2.118,2.12,3.283,4.937,3.283,7.934C317.938,166.428,316.773,169.246,314.655,171.365z M265.771,122.276H127.864
	v169.456h137.907v-71.426l-51.943,52.002c-0.434,0.433-0.959,0.759-1.541,0.952l-22.015,7.347c-0.409,0.137-0.829,0.204-1.246,0.204
	c-1.03,0-2.038-0.405-2.79-1.157c-1.056-1.058-1.425-2.621-0.953-4.039l7.338-22.041c0.193-0.58,0.52-1.108,0.953-1.544
	l72.197-72.277V122.276z M199.809,256.954l-4.55,13.665l13.65-4.555l83.733-83.826l-9.101-9.11L199.809,256.954z M309.079,161.081
	C309.079,161.081,309.079,161.081,309.079,161.081l-4.401-4.409c-0.628-0.628-1.462-0.973-2.351-0.973
	c-0.887,0-1.72,0.345-2.349,0.974l-10.86,10.873l4.551,4.555l4.549,4.555l10.861-10.873c0.627-0.628,0.973-1.463,0.973-2.352
	S309.707,161.708,309.079,161.081z M146.296,220.403c0-2.18,1.765-3.948,3.943-3.948h43.445c2.178,0,3.944,1.769,3.944,3.948
	s-1.766,3.946-3.944,3.946h-43.445C148.061,224.35,146.296,222.583,146.296,220.403z M146.296,197.401
	c0-2.18,1.765-3.947,3.943-3.947h68.093c2.176,0,3.943,1.767,3.943,3.947c0,2.181-1.766,3.948-3.943,3.948h-68.093
	C148.061,201.349,146.296,199.582,146.296,197.401z M150.239,178.347c-2.178,0-3.943-1.768-3.943-3.947
	c0-2.181,1.765-3.948,3.943-3.948h71.851c2.179,0,3.945,1.768,3.945,3.948c0,2.179-1.767,3.947-3.942,3.947H150.239z
	 M239.22,170.452h3.758c2.178,0,3.944,1.768,3.944,3.948c0,2.179-1.767,3.947-3.944,3.947h-3.758c-2.179,0-3.944-1.768-3.944-3.947
	C235.275,172.219,237.041,170.452,239.22,170.452z M150.239,239.038h24.647c2.178,0,3.942,1.767,3.942,3.949
	c0,2.179-1.765,3.947-3.942,3.947h-24.647c-2.178,0-3.943-1.769-3.943-3.947C146.296,240.805,148.061,239.038,150.239,239.038z"/>
</svg>
