<?xml version="1.0" encoding="utf-8"?>
<!-- Generator: Adobe Illustrator 16.0.0, SVG Export Plug-In . SVG Version: 6.00 Build 0)  -->
<!DOCTYPE svg PUBLIC "-//W3C//DTD SVG 1.1//EN" "http://www.w3.org/Graphics/SVG/1.1/DTD/svg11.dtd">
<svg version="1.1" id="Layer_1" xmlns="http://www.w3.org/2000/svg" xmlns:xlink="http://www.w3.org/1999/xlink" x="0px" y="0px"
	 width="400px" height="400px" viewBox="0 0 400 400" enable-background="new 0 0 400 400" xml:space="preserve">
<path fill-rule="evenodd" clip-rule="evenodd" fill="#231F20" d="M392.052,128.979l-82.281,82.374l0.004,167.108
	c0,4.378-3.542,7.923-7.913,7.923H9.274c-4.371,0-7.915-3.545-7.915-7.923V22.54c0-4.376,3.543-7.925,7.915-7.923h292.587
	c4.371,0,7.913,3.547,7.913,7.923v107.425l41.634-41.677c4.25-4.253,9.895-6.595,15.902-6.595c6.009,0,11.657,2.342,15.907,6.595
	l8.834,8.845c4.25,4.253,6.589,9.907,6.589,15.923C398.641,119.069,396.302,124.725,392.052,128.979z M293.945,30.462H17.186
	v340.075h276.759V227.195l-104.243,104.36c-0.868,0.868-1.925,1.523-3.093,1.911l-44.181,14.743c-0.82,0.273-1.664,0.409-2.5,0.409
	c-2.068,0-4.09-0.812-5.599-2.321c-2.12-2.121-2.86-5.261-1.912-8.107l14.727-44.232c0.388-1.164,1.042-2.225,1.911-3.097
	l144.889-145.051V30.462z M161.57,300.742l-9.132,27.425l27.395-9.141l168.041-168.228l-18.263-18.283L161.57,300.742z
	 M380.861,108.337c0,0,0,0,0-0.001l-8.834-8.847c-1.26-1.26-2.933-1.953-4.717-1.953c-1.779,0-3.452,0.692-4.712,1.954
	l-21.798,21.821l9.134,9.14l9.13,9.143l21.797-21.821c1.257-1.26,1.951-2.937,1.951-4.72
	C382.813,111.272,382.121,109.598,380.861,108.337z M54.177,227.391c0-4.374,3.542-7.923,7.913-7.923h87.19
	c4.371,0,7.914,3.549,7.914,7.923c0,4.375-3.543,7.92-7.914,7.92h-87.19C57.718,235.311,54.177,231.766,54.177,227.391z
	 M54.177,181.228c0-4.375,3.542-7.921,7.913-7.921h136.654c4.368,0,7.913,3.547,7.913,7.921c0,4.376-3.542,7.923-7.913,7.923H62.089
	C57.718,189.151,54.177,185.604,54.177,181.228z M62.089,142.99c-4.371,0-7.913-3.547-7.913-7.921c0-4.376,3.542-7.923,7.913-7.923
	h144.197c4.37,0,7.916,3.549,7.916,7.923s-3.546,7.921-7.913,7.921H62.089z M240.662,127.145h7.542c4.371,0,7.916,3.549,7.916,7.923
	s-3.545,7.921-7.916,7.921h-7.542c-4.371,0-7.916-3.547-7.916-7.921C232.746,130.692,236.291,127.145,240.662,127.145z
	 M62.089,264.789h49.464c4.371,0,7.912,3.545,7.912,7.923c0,4.375-3.542,7.924-7.912,7.924H62.089c-4.371,0-7.913-3.549-7.913-7.924
	C54.177,268.334,57.718,264.789,62.089,264.789z"/>
</svg>
