<?xml version="1.0" encoding="utf-8"?>
<!-- Generator: Adobe Illustrator 16.0.0, SVG Export Plug-In . SVG Version: 6.00 Build 0)  -->
<!DOCTYPE svg PUBLIC "-//W3C//DTD SVG 1.1//EN" "http://www.w3.org/Graphics/SVG/1.1/DTD/svg11.dtd">
<svg version="1.1" id="Layer_1" xmlns="http://www.w3.org/2000/svg" xmlns:xlink="http://www.w3.org/1999/xlink" x="0px" y="0px"
	 width="400px" height="400px" viewBox="0 0 400 400" enable-background="new 0 0 400 400" xml:space="preserve">
<g>
	<path fill-rule="evenodd" clip-rule="evenodd" d="M256.291,309.766c1.495-5.359,3.254-10.712,5.307-15.959
		c-14.942,13.16-35.663,23.193-60.532,23.869c-40.705,1.107-72.295-23.725-84.84-47.813c2.65-0.957,5.264-1.952,7.912-2.847
		c13.907-4.695,27.811-9.399,41.748-14.004c1.643-0.542,2.012-1.346,2.007-2.94c-0.049-16.156,0.016-32.31-0.087-48.465
		c-0.008-1.349-0.732-2.901-1.585-4c-3.773-4.866-8.077-9.356-11.525-14.435c-7.981-11.75-11.207-25.115-11.521-39.124
		c-0.312-13.943-0.071-27.897-0.073-41.846v-2.617h-12.354v6.008H87.55v12.258h43.161v12.492c-4.637,0-9.119,0-13.6,0
		c-9.147,0-18.294-0.021-27.44,0.042c-0.74,0.005-2.102,0.569-2.116,0.919c-0.156,3.697-0.096,7.403-0.096,11.352h43.23
		c0.329,4.302,0.639,8.345,0.964,12.599h-3.457c-12.73-0.001-25.46,0.047-38.188-0.048c-2.139-0.016-2.78,0.627-2.632,2.714
		c0.178,2.502,0.122,5.031,0.017,7.542c-0.065,1.534,0.537,1.981,1.989,1.959c3.962-0.064,7.927-0.021,11.891-0.02
		c10.291,0.001,20.581-0.017,30.871,0.04c0.781,0.004,2.053,0.338,2.258,0.852c1.478,3.712,2.739,7.511,4.146,11.499h-2.885
		c-15.092-0.001-30.185-0.003-45.277-0.003c-0.609,0-1.27-0.128-1.813,0.063c-0.45,0.159-1.079,0.696-1.087,1.078
		c-0.083,3.627-0.049,7.258-0.049,11.068h3.048c17.761,0.004,35.521-0.008,53.282,0.055c0.929,0.003,2.154,0.382,2.736,1.036
		c2.83,3.184,5.522,6.493,8.178,9.827c0.521,0.653,0.939,1.605,0.943,2.422c0.058,12.188,0.023,24.374,0.06,36.562
		c0.004,1.275-0.42,1.875-1.653,2.275c-6.936,2.253-13.856,4.549-20.754,6.915c-11.787,4.043-23.539,8.188-35.33,12.216
		c-9.142,3.121-18.304,6.185-27.489,9.178c-9.362,3.05-16.874,8.58-22.732,16.455c-5.65,7.597-7.738,16.348-8.881,25.555
		c-1.902,15.32-4.191,30.595-6.227,45.899c-0.485,3.648-0.617,7.345-0.924,11.176H43.88c0.086-0.455,0.181-0.815,0.221-1.183
		c0.75-6.956,1.365-13.931,2.267-20.866c1.677-12.892,3.424-25.775,5.324-38.636c1.717-11.623,7.882-20.5,18.592-25.12
		c10.381-4.478,21.318-7.669,32.014-11.415c1.202-0.422,2.014-0.253,2.773,1.061c1.979,3.42,4.021,6.835,6.358,10.016
		c11.708,15.927,26.542,27.979,44.779,35.764c20.028,8.547,40.761,10.75,62.138,6.854c13.591-2.477,26.087-7.438,37.518-14.708
		C255.812,312.219,255.939,311.027,256.291,309.766z"/>
	<path fill-rule="evenodd" clip-rule="evenodd" d="M211.597,222.591c6.854-2.729,13.519-5.938,20.282-8.942v1.99
		c-0.003,11.357,0.064,22.715-0.066,34.072c-0.024,2.171,0.661,2.99,2.681,3.582c10.509,3.081,20.973,6.313,31.443,9.516
		c3.604,1.104,7.206,2.229,10.815,3.357c2.567-3.366,5.354-6.566,8.414-9.53c0.194-0.189,0.403-0.369,0.617-0.546
		c-4.6-1.394-9.199-2.79-13.796-4.189c-9.229-2.81-18.457-5.615-27.717-8.433v-7.698h52.587
		c-2.591-15.474-5.643-30.779-7.604-46.224c-1.962-15.441-2.832-31.021-4.193-46.683h-11.592
		c0.524,27.214,3.609,53.929,8.796,80.537h-38.128c0-6.905-0.026-13.665,0.044-20.426c0.006-0.566,0.612-1.155,1.002-1.689
		c3.457-4.721,7.25-9.234,10.323-14.192c5.521-8.908,8.651-18.771,10.108-29.131c0.696-4.945,1.113-9.93,1.666-15.002h-12.596
		c0,1.202,0.138,2.211-0.022,3.169c-1.218,7.267-1.747,14.755-3.905,21.736c-4.775,15.444-14.254,27.664-28.115,36.165
		c-8.955,5.493-18.216,10.323-29.456,7.762c-1.175,3.83-2.323,7.575-3.509,11.441C197.234,225.604,204.534,225.403,211.597,222.591z
		"/>
	<path fill-rule="evenodd" clip-rule="evenodd" d="M392.134,70.446c-5.993-13.523-16.088-23.125-29.759-28.852
		c-10.806-4.528-22.021-5.132-33.359-2.748c-7.906,1.664-15.085,5.149-21.521,10.109c-1.12,0.863-2.405,1.722-3.743,2.051
		c-3.911,0.958-7.888,1.652-11.84,2.443c-17.375,3.475-34.748,6.956-52.125,10.419c-12.072,2.406-24.041,5.729-36.547,4.52
		c-1.987-0.193-4.225-0.451-5.831-1.482c-6.216-3.989-12.864-5.498-20.173-4.785c-2.92,0.285-5.891,0.047-8.885,0.047v61.883
		c4.914,0,9.634-0.187,14.333,0.059c3.737,0.196,7-0.705,10.197-2.542c2.495-1.434,5.121-3.32,7.822-3.57
		c5.582-0.518,11.291-0.467,16.877,0.077c5.427,0.528,10.771,1.937,16.141,3.009c20.508,4.1,40.996,8.305,61.528,12.279
		c6.044,1.17,11.837,2.581,16.528,6.881c0.713,0.653,1.646,1.131,2.56,1.487c1.91,0.745,2.409,2.024,2.4,4.052
		c-0.084,21.414-0.078,42.828-0.057,64.242c0.013,11.491,5.96,20.111,16.608,23.957c1.637,0.591,1.971,1.435,1.96,2.993
		c-0.028,4.244-0.035,8.488-0.035,12.732c4.737,1.336,9.161,4.024,12.254,7.75c0.007-6.801,0.016-13.603-0.054-20.402
		c-0.017-1.702,0.421-2.498,2.101-3.097c7.738-2.754,13.082-8.029,15.28-15.994c0.876-3.174,1.144-6.6,1.16-9.915
		c0.101-20.863,0.059-41.726,0.035-62.589c-0.003-1.451,0.173-2.483,1.684-3.324c12.528-6.98,21.423-17.093,26.17-30.738
		C398.675,97.511,398.039,83.773,392.134,70.446z M282.025,118.395c-18.34-3.664-36.739-7.056-54.992-11.104
		c-9.534-2.114-19.062-1.54-28.621-1.703c-0.713-0.012-1.479,0.31-2.142,0.634c-3.281,1.599-6.471,3.403-9.828,4.813
		c-1.533,0.643-3.376,0.668-5.081,0.679c-0.347,0.002-1.001-1.311-1.008-2.022c-0.072-8.074-0.045-16.149-0.045-24.224
		c0-3.566,0-7.133,0-11.423c2.421,0.464,4.598,0.582,6.533,1.326c2.54,0.978,4.812,2.644,7.344,3.65
		c2.063,0.82,4.317,1.423,6.523,1.574c12.328,0.844,24.366-1.036,36.399-3.653c17.756-3.862,35.623-7.206,53.445-10.763
		c0.583-0.116,1.184-0.147,2.085-0.254c-9.133,18.314-8.976,36.268,0.069,54.595C288.951,119.774,285.488,119.086,282.025,118.395z
		 M353.842,209.211c-0.004,5.065-1.392,9.453-6.105,12.193c-8.391,4.877-18.744-0.823-18.91-10.535
		c-0.134-7.84-0.033-15.686-0.034-23.529c-0.003-12.184-0.004-24.367-0.004-36.552v-3.385c8.429,1.818,16.564,1.875,24.918,0.024
		c0.061,1.062,0.145,1.869,0.146,2.676C353.855,169.806,353.858,189.509,353.842,209.211z M341.229,136.588
		c-24.555-0.138-43.175-20.093-43.352-42.839c-0.199-25.72,20.793-44.197,43.512-44.07c24.041,0.134,43.4,19.5,43.351,43.53
		C384.69,117.199,365.177,136.723,341.229,136.588z"/>
	<path fill-rule="evenodd" clip-rule="evenodd" d="M1.235,146.163c-0.115-0.817-0.328-1.634-0.331-2.452
		c-0.023-8.688-0.216-17.38,0.034-26.061c0.374-13.018,5.891-23.686,16.042-31.723c4.338-3.436,9.536-5.191,15.296-5.139
		c13.259,0.12,26.519,0.039,39.778,0.039c0.834,0,1.668,0,2.724,0c0,4.07,0,8.035,0,12.234c-8.114,0-16.157,0-24.359,0
		c0,4.22,0,8.21,0,12.43c8.125,0,16.166,0,24.392,0c0,4.138,0,8.054,0,12.269c-8.067,0-16.169,0-24.409,0c0,4.289,0,8.281,0,12.582
		c0.912,0,1.722,0,2.533,0c6.706,0,13.412,0.04,20.117-0.033c1.502-0.016,2.017,0.446,1.98,1.944
		c-0.082,3.325-0.025,6.653-0.025,10.316c-3.459,0-6.7,0-9.942,0c-4.267,0-8.535,0.047-12.802-0.023
		c-1.422-0.023-2.081,0.319-2.029,1.892c0.101,2.969,0.105,5.946-0.001,8.914c-0.056,1.584,0.637,1.926,2.032,1.917
		c6.621-0.042,13.242-0.019,19.862-0.019c0.829,0,1.657,0,2.85,0c0,3.803,0.063,7.429-0.091,11.046
		c-0.017,0.396-1.291,1.046-1.987,1.054c-6.553,0.081-13.106,0.044-19.66,0.054c-0.899,0.001-1.799,0.08-2.836,0.128
		c0,4.084,0,7.998,0,12.257c8.191,0,16.292,0,24.466,0c0,4.197,0,8.049,0,12.223c-12.34,0-24.553,0-37.002,0
		c0,1.214,0,2.111,0,3.006c0.001,31.854,0.003,63.708,0.001,95.563c0,7.098-2.851,12.704-8.94,16.446
		c-5.783,3.556-11.971,3.719-17.884,0.725c-6.45-3.268-10.068-8.832-10.113-16.189c-0.107-17.832-0.034-35.664-0.034-53.497
		c0-8.992-0.011-17.984,0.017-26.976c0.002-0.89,0.233-1.777,0.358-2.665c3.845-3.823,7.689-7.646,11.534-11.47
		c0.106,0.879,0.307,1.755,0.307,2.634c0.016,29.865,0.014,59.729,0.016,89.595c0,0.914-0.03,1.833,0.051,2.741
		c0.247,2.747,2.324,5.01,4.994,5.502c4.199,0.776,7.446-2.252,7.447-7c0.008-34.665,0.005-69.329,0.005-103.995
		c0-2.113,0-4.226,0-6.658c4.226,0,8.263,0,12.265,0c0-29.065,0-57.81,0-86.487c-5.789-0.787-11.083-0.338-15.346,3.816
		c-5.798,5.649-9.255,12.497-9.371,20.652c-0.173,12.264-0.035,24.532-0.053,36.797c-0.002,1.034-0.186,2.068-0.285,3.103
		C8.968,153.825,5.102,149.994,1.235,146.163z"/>
	<path fill-rule="evenodd" clip-rule="evenodd" d="M87.591,80.865c7.547-0.273,14.395-2.167,20.559-6.416
		c5.29-3.647,9.302-8.352,11.94-14.123c5.878-12.859,14.292-23.709,25.413-32.389c15.051-11.747,32.174-17.971,51.284-18.505
		c14.87-0.416,28.918,2.886,42.14,9.706c12.131,6.256,22.072,15.067,30.262,25.923c0.18,0.238,0.283,0.533,0.566,1.082
		c-3.229,2.271-6.489,4.561-9.655,6.786c-3.031-3.38-5.784-6.737-8.834-9.798c-10.387-10.429-22.899-17.063-37.288-19.971
		c-18.496-3.74-35.981-0.843-52.344,8.619c-13.825,7.994-23.782,19.427-30.551,33.842c-3.896,8.3-9.958,14.75-17.666,19.823
		c-6.958,4.578-14.563,6.736-22.71,7.452c-0.976,0.086-1.964,0.011-3.115,0.011C87.591,88.98,87.591,85.068,87.591,80.865z"/>
	<path fill-rule="evenodd" clip-rule="evenodd" d="M1.235,146.163c3.866,3.831,7.732,7.662,11.599,11.495
		c0.097,0.668,0.278,1.336,0.278,2.003c0.019,11.771,0.021,23.54,0.003,35.31c-0.001,0.662-0.203,1.325-0.311,1.987
		c-3.845,3.824-7.689,7.646-11.534,11.47c-0.125-0.644-0.357-1.286-0.358-1.93c-0.019-19.54-0.018-39.079,0-58.619
		C0.913,147.306,1.123,146.734,1.235,146.163z"/>
	<path fill-rule="evenodd" clip-rule="evenodd" d="M93.424,347.186c0,8.123,0,16.143,0,24.329c-3.983,0-7.881,0-11.918,0
		c0-8.137,0-16.158,0-24.329C85.479,347.186,89.384,347.186,93.424,347.186z"/>
	<path fill-rule="evenodd" clip-rule="evenodd" d="M310.539,93.083c-0.403-16.334,13.436-30.759,30.487-30.888
		c17.282-0.131,31.167,13.755,31.165,30.957c-0.001,16.996-13.72,30.761-30.772,30.878
		C324.377,124.146,310.551,110.29,310.539,93.083z M358.597,99.378c-11.64,0-23.124,0-34.666,0
		c1.97,6.986,9.928,12.569,17.499,12.458C349.295,111.72,356.987,106.22,358.597,99.378z M358.575,86.791
		c-1.784-7.03-9.646-12.486-17.535-12.393c-7.56,0.09-15.46,5.78-17.016,12.393C335.514,86.791,346.963,86.791,358.575,86.791z"/>
</g>
<path d="M324.494,391.603c-41.184,0-74.69-33.507-74.69-74.69s33.507-74.689,74.69-74.689c41.185,0,74.691,33.506,74.691,74.689
	S365.679,391.603,324.494,391.603z M324.494,254.114c-34.626,0-62.798,28.172-62.798,62.798c0,34.627,28.172,62.798,62.798,62.798
	c34.627,0,62.798-28.171,62.798-62.798C387.292,282.286,359.121,254.114,324.494,254.114z"/>
<path fill-rule="evenodd" clip-rule="evenodd" d="M334.144,337.092l-0.002-0.729c-0.008-1.946-0.015-3.893-0.015-5.839
	c0-2.227,0.008-4.451,0.017-6.677c0.02-4.983,0.04-10.065-0.046-15.048c-0.088-5.139-2.854-8.33-7.221-8.33
	c-4.475,0.018-7.396,3.275-7.437,8.302c-0.105,13.232-0.108,27.465-0.008,43.51c0.03,5.061,2.925,8.539,7.202,8.657l0.244,0.003
	c4.307-0.007,7.141-3.415,7.223-8.688C334.182,347.177,334.163,342.051,334.144,337.092z"/>
<path fill-rule="evenodd" clip-rule="evenodd" d="M326.863,270.498c-2.443,0-4.836,1.044-6.585,2.861
	c-1.713,1.782-2.643,4.148-2.55,6.49c0.194,4.938,4.118,8.66,9.125,8.66l0.158-0.001c5.042-0.083,8.815-3.972,8.774-9.046
	C335.746,274.451,331.826,270.513,326.863,270.498z"/>
</svg>
