<?xml version="1.0" encoding="utf-8"?>
<!-- Generator: Adobe Illustrator 16.0.0, SVG Export Plug-In . SVG Version: 6.00 Build 0)  -->
<!DOCTYPE svg PUBLIC "-//W3C//DTD SVG 1.1//EN" "http://www.w3.org/Graphics/SVG/1.1/DTD/svg11.dtd">
<svg version="1.1" id="Layer_1" xmlns="http://www.w3.org/2000/svg" xmlns:xlink="http://www.w3.org/1999/xlink" x="0px" y="0px"
	 width="400px" height="400px" viewBox="0 0 400 400" enable-background="new 0 0 400 400" xml:space="preserve">
<path fill-rule="evenodd" clip-rule="evenodd" fill="#231F20" d="M393.518,393.734c-2.242,2.242-5.182,3.365-8.125,3.365
	c-2.938,0-5.879-1.123-8.127-3.365L268.484,285.035c-29.142,25.136-65.83,38.971-104.713,38.971
	c-88.602,0-160.68-72.022-160.68-160.552c0-88.524,72.078-160.548,160.68-160.548c88.585,0,160.664,72.024,160.664,160.548
	c0,39.187-14.096,76.136-39.663,105.376l108.745,108.658C398.013,381.978,398.013,389.246,393.518,393.734z M301.818,163.454
	c0-76.066-61.927-137.952-138.052-137.952S25.709,87.388,25.709,163.454c0,76.069,61.932,137.954,138.057,137.954
	c36.873,0,71.543-14.353,97.619-40.407C287.46,234.942,301.818,200.299,301.818,163.454z M159.437,75.417
	c-46.538,7.5-80.317,47.137-80.317,94.247c0,3.978,0.344,8.256,1.077,13.481c0.744,5.245-2.918,10.093-8.162,10.834
	c-0.451,0.064-0.907,0.092-1.349,0.092c-4.704,0-8.813-3.465-9.49-8.246c-0.862-6.135-1.262-11.265-1.262-16.161
	c0-56.577,40.562-104.167,96.445-113.175c5.191-0.88,10.157,2.708,11.003,7.938C168.224,69.657,164.664,74.576,159.437,75.417z"/>
</svg>
