<?xml version="1.0" encoding="utf-8"?>
<!-- Generator: Adobe Illustrator 16.0.0, SVG Export Plug-In . SVG Version: 6.00 Build 0)  -->
<!DOCTYPE svg PUBLIC "-//W3C//DTD SVG 1.1//EN" "http://www.w3.org/Graphics/SVG/1.1/DTD/svg11.dtd">
<svg version="1.1" id="Layer_1" xmlns="http://www.w3.org/2000/svg" xmlns:xlink="http://www.w3.org/1999/xlink" x="0px" y="0px"
	 width="256px" height="256px" viewBox="0 0 256 256" enable-background="new 0 0 256 256" xml:space="preserve">
<g>
	<path fill-rule="evenodd" clip-rule="evenodd" d="M94.829,102.543c-0.19,4.369-3.43,6.69-6.462,5.28
		c-5.234-2.434-10.136-2.537-15.534-0.301c-1.511,0.625-4.962-0.872-5.949-2.407c-0.708-1.104,0.607-4.95,2.036-5.742
		c7.146-3.962,14.755-4.631,22.19-0.637C92.836,99.661,93.989,101.653,94.829,102.543z"/>
	<path fill-rule="evenodd" clip-rule="evenodd" d="M128.521,95.433c3.792,1.235,7.633,1.903,10.776,3.752
		c1.591,0.935,3.009,4.258,2.586,6.05c-0.687,2.922-3.578,3.82-6.521,2.361c-4.888-2.42-9.667-2.477-14.533,0.101
		c-3.056,1.619-5.776,0.216-6.356-2.617c-0.365-1.773,1.167-5.013,2.776-5.888C120.613,97.361,124.59,96.661,128.521,95.433z"/>
	<path fill-rule="evenodd" clip-rule="evenodd" d="M103.744,153.541c-3.566-1.106-7.123-1.865-10.364-3.324
		c-2.577-1.16-4.301-3.471-2.773-6.583c1.473-3.002,3.968-3.304,6.806-2.012c4.722,2.149,9.368,2.276,14.116-0.074
		c2.814-1.393,5.404-0.751,6.69,2.282c1.296,3.057-0.174,5.385-3.034,6.421C111.532,151.571,107.707,152.425,103.744,153.541z"/>
	<path fill-rule="evenodd" clip-rule="evenodd" d="M86.329,120.151c-0.396,3.457-2.204,5.516-5.789,5.623
		c-3.427,0.105-6.06-2.653-5.758-6.069c0.313-3.543,2.41-5.495,5.948-5.384C84.308,114.432,86.051,116.643,86.329,120.151z"/>
	<path fill-rule="evenodd" clip-rule="evenodd" d="M134.027,120.15c-0.398,3.456-2.206,5.517-5.793,5.624
		c-3.424,0.104-6.059-2.653-5.756-6.069c0.315-3.543,2.41-5.494,5.949-5.384C132.004,114.432,133.745,116.644,134.027,120.15z"/>
</g>
<path fill-rule="evenodd" clip-rule="evenodd" d="M204.657,154.708c-12.472,0-23.884,4.512-32.716,11.98
	c-0.773-0.715-1.539-1.434-2.342-2.135c-4.269-3.727-8.933-7.001-12.395-9.691c3.539-10.228,6.875-19.864,10.348-29.901
	c10.549-2.124,16.448-7.47,17.771-16.686c1.295-9.01-3.313-16.016-14.204-21.357c0-6.555,0.075-13.225-0.015-19.893
	c-0.195-14.037-4.233-26.899-12.472-38.277C134.616-4.432,95.015-3.987,63.73,8.754c-1.52,0.619-2.994,4.257-2.58,6.045
	c0.659,2.839,3.248,3.504,6.514,2.594c8.812-2.459,17.652-5.205,26.673-6.444C115.803,8,134.19,14.467,148.359,31.246
	c1.6,1.895,2.867,5.294,2.351,7.552c-2.824,12.324-9.657,21.424-22.085,25.865c-19.878,7.103-40.349,8.139-61.068,6.215
	c-12.045-1.117-23.793-3.864-34.67-9.432c-5.627-2.88-10.673-6.532-13.834-11.544c7.5-5.106,14.583-9.879,21.607-14.735
	c2.723-1.883,3.723-4.412,1.665-7.35c-2.226-3.177-4.852-2.209-7.414-0.349c-0.899,0.652-1.707,1.453-2.659,2.011
	c-6.799,3.987-13.474,8.228-20.496,11.779c-4.616,2.334-5.769,4.028-3.647,8.752c4.036,8.985,10.853,15.796,19.682,19.159
	c8.825,3.363,11.424,8.596,9.769,17.107c-0.06,0.311-0.147,0.616-0.223,0.924c-10.024,4.546-14.831,11.556-13.992,20.403
	c0.88,9.287,6.648,14.695,17.835,17.444c3.522,10.128,6.855,19.709,10.444,30.028c0.059-0.041,0.121-0.079,0.18-0.12
	c0.021-0.016,0.041-0.032,0.059-0.051c0.205-0.306,0.152-0.14,0,0c-0.049,0.074-0.109,0.167-0.192,0.307
	c-0.017-0.047-0.032-0.09-0.047-0.136c-1.241,0.865-2.527,1.667-3.759,2.543c-27.58,19.599-42.03,46.372-43.593,80.106
	c-0.272,5.871,1.275,7.25,7.215,7.251c53.827,0.007,107.653,0.005,161.48-0.002c8.682,6.964,19.697,11.139,31.692,11.139
	c28.002,0,50.703-22.7,50.703-50.702S232.659,154.708,204.657,154.708z M32.615,235.268c-6.389,0-12.358,0-18.663,0
	c1.12-18.45,7.137-34.753,18.663-50.31C32.615,202.393,32.615,218.618,32.615,235.268z M148.96,62.905
	c3.044-4.545,6.174-9.032,9.395-13.708c4.747,11.962,2.835,24.491,3.386,38.653c-3.125-2.313-6.154-3.416-7.103-5.476
	c-2.542-5.528-4.228-11.454-6.147-17.256C148.281,64.489,148.563,63.498,148.96,62.905z M47.244,77.118
	c3.041,0.676,5.852,1.3,10.231,2.272c-3.562,3.194-6.243,5.6-8.925,8.005c-0.435-0.422-0.871-0.844-1.306-1.266
	C47.244,83.304,47.244,80.479,47.244,77.118z M51.929,121.217c-0.156-4.197-2.128-6.083-6.242-5.94
	c-1.111,0.039-2.228,0.052-3.337-0.02c-5.364-0.348-9.445-4.394-9.523-9.403c-0.08-5.179,4.16-9.91,9.731-9.554
	c10.925,0.697,18.189-3.9,22.89-13.542c0.546-1.119,3.041-1.898,4.585-1.826c17.201,0.795,34.326,0.533,51.091-3.884
	c6.088-1.604,11.967-4.001,18.404-6.193c0.946,2.938,1.866,6.125,2.992,9.234c3.771,10.409,11.224,17.306,22.833,16.192
	c5.248-0.503,9.324,2.835,10.313,7.347c0.966,4.404-0.777,7.906-4.509,10.128c-1.666,0.992-3.879,1.378-5.869,1.467
	c-7.571,0.337-7.868,0.797-8.556,8.032c-2.103,22.104-13.458,37.951-34.107,45.809c-19.755,7.519-38.111,3.465-53.881-10.761
	C57.81,148.437,52.473,135.847,51.929,121.217z M119.664,183.52c4.855-2.438,9.556-5.709,14.714-6.846
	c3.774-0.832,9.1,8.641,9.159,17.229c-1.214,2.218-3.071,6.771-6.023,10.44c-1.18,1.466-5.188,1.99-7.19,1.176
	c-4.033-1.64-7.643-4.387-11.255-6.923c-0.74-0.52-0.985-2.113-0.997-3.216c-0.018-1.713,0.442-3.424,0.548-5.146
	C118.761,187.952,116.257,185.229,119.664,183.52z M108.808,191.377c-0.326,1.819-2.835,4.155-4.699,4.469
	c-1.219,0.205-4.046-2.692-4.194-4.37c-0.152-1.731,2.072-3.668,3.256-5.518c0.77-0.005,1.54-0.011,2.311-0.016
	C106.693,187.772,109.088,189.815,108.808,191.377z M90.078,191.512c-0.078,2.355,0.771,5.971-0.408,6.84
	c-4.24,3.136-9.04,5.639-13.913,7.708c-1.27,0.541-4.337-0.85-5.255-2.232c-2.467-3.719-4.219-7.911-6.084-11.579
	c1.208-3.647,1.83-6.447,3.028-8.974c3.509-7.406,7.733-8.59,14.841-4.394c1.499,0.885,2.898,1.934,4.391,2.827
	c3.047,1.826,5.402,3.889,3.475,7.917C89.904,190.146,90.099,190.879,90.078,191.512z M42.123,184.46
	c-0.357-8.144,1.931-13.622,8.951-17.443c2.615-1.424,4.976-3.315,7.556-5.063c2.671,2.501,5.087,4.763,7.111,6.658
	c-2.778,4.606-5.964,8.782-7.981,13.463c-4.71,10.929-1.222,20.488,6.327,28.818c4.49,4.954,10.322,6.317,16.494,3.77
	c4.35-1.796,8.377-4.398,12.478-6.765c1.858-1.072,3.542-2.445,5.736-3.984c1.507,4.305-0.434,10.562,5.939,10.2
	c5.457-0.307,3.896-5.846,5.038-10.099c3.227,2.203,6.064,4.053,8.809,6.03c17.919,12.915,29.553,2.184,33.592-12.903
	c2.558-9.554-1.027-17.384-6.722-24.649c-0.869-1.107-1.939-2.062-3.063-3.243c2.491-2.382,4.875-4.663,7.771-7.433
	c4.922,3.667,9.911,7.244,14.702,11.071c0.174,0.139,0.33,0.322,0.476,0.522c-7.111,8.728-11.381,19.864-11.381,32.001
	c0,11.091,3.571,21.341,9.611,29.688c-40.287,0-80.423,0-121.224,0C42.343,218.08,42.857,201.244,42.123,184.46z M204.657,243.439
	c-21.002,0-38.027-17.026-38.027-38.028s17.025-38.027,38.027-38.027s38.027,17.025,38.027,38.027S225.659,243.439,204.657,243.439z
	"/>
<path fill-rule="evenodd" clip-rule="evenodd" d="M230.833,193.726l-32.539,32.506l-9.146-9.135l0.03-0.037l-10.698-10.686
	l9.146-9.136l10.698,10.686l23.364-23.333L230.833,193.726z"/>
</svg>
