<?xml version="1.0" encoding="utf-8"?>
<!-- Generator: Adobe Illustrator 16.0.0, SVG Export Plug-In . SVG Version: 6.00 Build 0)  -->
<!DOCTYPE svg PUBLIC "-//W3C//DTD SVG 1.1//EN" "http://www.w3.org/Graphics/SVG/1.1/DTD/svg11.dtd">
<svg version="1.1" id="Layer_1" xmlns="http://www.w3.org/2000/svg" xmlns:xlink="http://www.w3.org/1999/xlink" x="0px" y="0px"
	 width="256px" height="256px" viewBox="0 0 256 256" enable-background="new 0 0 256 256" xml:space="preserve">
<path fill-rule="evenodd" clip-rule="evenodd" d="M241.705,154.57l-17.757,2.961c-1.794,5.917-4.227,11.673-7.136,17.216
	l10.465,14.686c4.438,6.233,3.701,14.741-1.688,20.125l-15.756,15.743c-2.955,2.96-6.871,4.597-11.044,4.597
	c-3.276,0-6.45-1.003-9.09-2.908l-14.642-10.457c-5.496,2.904-11.259,5.281-17.229,7.132l-3.017,17.748
	c-1.268,7.552-7.766,13.049-15.43,13.049H117.08c-7.664,0-14.164-5.497-15.434-13.049l-2.96-17.748
	c-5.759-1.794-11.362-4.069-16.7-6.866l-14.852,10.563c-2.643,1.902-5.761,2.904-9.038,2.904c-4.175,0-8.086-1.637-11.046-4.597
	L31.297,209.93c-5.442-5.388-6.13-13.892-1.69-20.125l10.412-14.475c-2.96-5.491-5.391-11.249-7.242-17.169l-17.968-3.063
	c-7.559-1.267-13.055-7.761-13.055-15.421v-22.242c0-7.659,5.496-14.153,13.055-15.421l17.546-2.96
	c1.797-5.967,4.123-11.724,7.029-17.272l-10.57-14.843c-4.44-6.233-3.701-14.736,1.69-20.125L46.31,31.075
	c2.907-2.96,6.869-4.597,11.046-4.597c3.277,0,6.447,1.003,9.09,2.905L80.98,39.844c5.496-2.96,11.258-5.389,17.178-7.24
	l3.065-17.958c1.268-7.552,7.768-13.048,15.432-13.048h22.251c7.665,0,14.167,5.496,15.435,13.048l2.955,17.538
	c6.188,1.846,12.158,4.331,17.868,7.338l14.694-10.457c2.643-1.902,5.761-2.905,9.033-2.905c4.182,0,8.089,1.637,11.052,4.597
	l15.748,15.739c5.444,5.389,6.13,13.893,1.692,20.125L216.92,81.255c2.904,5.491,5.285,11.249,7.136,17.22l17.757,3.011
	c7.561,1.268,13.053,7.763,12.95,15.422v22.238C254.763,146.806,249.267,153.304,241.705,154.57z M240.651,116.909
	c0-0.686-0.479-1.268-1.165-1.371l-22.198-3.752c-2.75-0.425-5.021-2.481-5.707-5.231c-2.009-7.762-5.072-15.211-9.196-22.13
	c-1.427-2.428-1.324-5.496,0.316-7.766l13.054-18.331c0.372-0.578,0.315-1.319-0.155-1.795l-15.755-15.739
	c-0.369-0.372-0.789-0.424-1.003-0.424c-0.265,0-0.527,0.107-0.792,0.266l-18.237,13.099c-2.32,1.636-5.337,1.739-7.766,0.317
	c-7.08-4.177-14.693-7.291-22.675-9.3c-2.749-0.686-4.81-2.956-5.285-5.757l-3.702-22.028c-0.103-0.685-0.685-1.161-1.37-1.161
	h-22.252c-0.688,0-1.271,0.476-1.375,1.161l-3.807,22.344c-0.475,2.751-2.536,4.966-5.23,5.707
	c-7.771,2.009-15.223,5.174-22.094,9.296c-2.43,1.426-5.496,1.323-7.822-0.317L58.202,41.005c-0.212-0.159-0.478-0.266-0.793-0.266
	c-0.265,0-0.636,0.056-1.004,0.424L40.653,56.902c-0.476,0.476-0.529,1.268-0.159,1.799l13.16,18.484
	c1.641,2.275,1.797,5.282,0.37,7.715c-4.069,6.918-7.08,14.419-9.037,22.186c-0.687,2.746-2.96,4.807-5.761,5.282l-22.04,3.697
	c-0.687,0.107-1.163,0.685-1.163,1.37v22.242c0,0.686,0.476,1.268,1.163,1.37l22.357,3.806c2.748,0.475,4.967,2.535,5.708,5.229
	c2.009,7.767,5.18,15.212,9.303,22.077c1.426,2.431,1.321,5.497-0.317,7.819l-13.001,18.224c-0.37,0.583-0.319,1.323,0.159,1.794
	l15.749,15.744c0.371,0.367,0.792,0.423,1.005,0.423c0.263,0,0.528-0.107,0.792-0.265l18.499-13.151
	c1.215-0.9,2.695-1.325,4.122-1.325c1.216,0,2.485,0.323,3.594,0.953c6.82,3.91,14.113,6.922,21.672,8.875
	c2.694,0.685,4.754,2.904,5.23,5.705l3.701,22.187c0.105,0.686,0.688,1.161,1.374,1.161h22.251c0.686,0,1.269-0.476,1.375-1.161
	l3.754-22.187c0.423-2.745,2.479-5.021,5.229-5.705c7.771-2.009,15.226-5.072,22.147-9.193c2.433-1.422,5.496-1.319,7.771,0.318
	l18.339,13.048c0.209,0.157,0.477,0.265,0.792,0.265c0.266,0,0.635-0.051,1.003-0.424l15.751-15.738
	c0.476-0.476,0.526-1.268,0.158-1.799l-13.057-18.382c-1.636-2.322-1.738-5.333-0.316-7.764c4.126-6.922,7.188-14.366,9.2-22.134
	c0.687-2.693,2.906-4.755,5.707-5.229l22.198-3.697c0.686-0.107,1.165-0.685,1.165-1.374h0.052V116.909z M128.284,182.566
	c-30.126,0-54.597-24.457-54.597-54.563c0-30.111,24.471-54.567,54.597-54.567c30.128,0,54.596,24.456,54.596,54.567
	C182.88,158.109,158.412,182.566,128.284,182.566z M128.284,87.697c-22.252,0-40.327,18.065-40.327,40.307
	c0,22.236,18.075,40.301,40.327,40.301c22.255,0,40.328-18.064,40.328-40.301C168.612,105.763,150.539,87.697,128.284,87.697z"/>
</svg>
