<?xml version="1.0" encoding="utf-8"?>
<!-- Generator: Adobe Illustrator 16.0.0, SVG Export Plug-In . SVG Version: 6.00 Build 0)  -->
<!DOCTYPE svg PUBLIC "-//W3C//DTD SVG 1.1//EN" "http://www.w3.org/Graphics/SVG/1.1/DTD/svg11.dtd">
<svg version="1.1" id="Layer_1" xmlns="http://www.w3.org/2000/svg" xmlns:xlink="http://www.w3.org/1999/xlink" x="0px" y="0px"
	 width="256px" height="290.089px" viewBox="0 0 256 290.089" enable-background="new 0 0 256 290.089" xml:space="preserve">
<g>
	<path fill-rule="evenodd" clip-rule="evenodd" d="M110.781,197.908c-1.635,1.722-2.81,3.22-4.236,4.417
		c-7.683,6.445-10.116,12.536-6.565,23.772c10.044,31.79-15.437,63.964-48.742,63.992c-20.485,0.017-39.946-12.993-47.497-31.754
		c-7.74-19.232-3.317-41.539,11.847-55.746c16.661-15.609,33.812-30.694,50.742-46.015c1.25-1.131,2.446-2.321,4.01-3.811
		c-0.868-1.058-1.559-2.119-2.454-2.96c-11.6-10.897-19.479-24.228-26.162-38.533C34.79,96.43,26.967,82.006,19.867,67.239
		c-1.638-3.408-2.637-7.455-2.703-11.227c-0.287-16.605-0.124-33.218-0.124-49.831c0-1.836,0-3.675,0-5.489
		c7.903-1.542,13.568-0.496,19.079,6.122c25.844,31.03,52.364,61.496,78.648,92.16c1.102,1.286,2.245,2.536,3.68,4.149
		c12.662-17.756,25.209-35.331,37.732-52.919c9.955-13.981,20.499-27.598,29.573-42.13c4.969-7.959,10.862-9.154,19.452-7.329
		c0,7.705,0.018,15.566-0.002,23.43c-0.033,12.643,2.084,25.801-0.748,37.787c-2.821,11.944-10.616,22.713-16.234,33.995
		c-3.529,7.085-6.85,14.283-10.653,21.217c-4.76,8.678-9.92,17.137-15.103,26.025c10.818,8.085,22.635,17.124,34.739,25.76
		c2.033,1.45,5.304,1.56,8.012,1.603c10.043,0.162,19.991,0.427,28.99,5.811c13.683,8.189,20.785,20.26,21.794,36.479
		c-5.578,0-10.963,0-16.342,0c-2.711-15.883-12.876-27.299-33.464-24.331c0.995,6.798-0.131,13.62,4.881,19.959
		c12.882,16.295,13.689,40.158,2.726,57.295c-12.183,19.044-33.42,27.853-55.238,22.913c-20.161-4.564-35.501-21.617-38.626-42.514
		c-1.474-9.853,0.094-19.188,4.09-28.096c1.387-3.092,1.152-4.989-1.187-7.308C118.717,206.685,114.879,202.31,110.781,197.908z
		 M147.452,212.66c-2.097,3.021-3.979,5.604-5.727,8.277c-4.509,6.904-6.153,14.379-4.842,22.609
		c2.36,14.813,12.646,25.949,27.153,29.055c12.526,2.681,28.148-4.066,34.796-15.029c8.029-13.242,7.089-28.211-2.246-40.111
		c-1.666-2.125-2.979-4.825-3.554-7.456c-1.524-6.984-2.259-14.15-3.932-21.095c-0.677-2.815-2.392-5.979-4.621-7.727
		c-12.164-9.545-24.771-18.521-36.956-28.041c-10.205-7.972-21.293-15.305-29.802-24.866c-26.588-29.877-52.135-60.681-78.1-91.111
		c-1.454-1.706-3.041-3.297-5.479-5.925c0,6.454,0.302,11.191-0.069,15.875c-0.573,7.213,1.302,13.561,4.632,19.954
		c8.702,16.703,16.816,33.709,25.387,50.481c1.942,3.801,4.421,7.47,7.268,10.647C96.542,156.307,121.862,184.293,147.452,212.66z
		 M82.18,165.503c-5.516,4.921-10.771,9.508-15.915,14.216c-13.625,12.469-27.688,24.511-40.649,37.637
		c-10.836,10.976-11.21,27.286-2.627,40.698c7.11,11.109,23.125,17.518,35.585,14.238c15.568-4.097,25.845-16.76,26.539-32.029
		c0.487-10.721-4.424-19.181-10.763-27.504c8.338-9.225,16.527-18.284,25.045-27.706C93.716,178.604,88.134,172.265,82.18,165.503z
		 M148.067,132.43c3.692-5.296,7.542-9.732,10.182-14.798c9.054-17.374,17.3-35.174,26.627-52.395
		c5.175-9.559,2.585-19.126,2.175-28.972c-19.033,26.662-38.066,53.324-57.76,80.914C135.42,122.154,141.324,126.951,148.067,132.43
		z"/>
	<path fill-rule="evenodd" clip-rule="evenodd" d="M169.742,264.402c-14.428-0.479-25.225-12.156-24.736-26.753
		c0.434-12.965,12.867-24.699,25.795-24.345c14.002,0.383,25.764,12.92,25.153,26.808
		C195.353,253.76,183.381,264.855,169.742,264.402z M178.924,238.942c-0.073-4.711-3.989-8.281-8.888-8.102
		c-4.775,0.175-8.077,3.558-8.047,8.249c0.027,4.616,4.123,8.525,8.736,8.342C174.982,247.261,178.99,243.114,178.924,238.942z"/>
	<path fill-rule="evenodd" clip-rule="evenodd" d="M110.04,161.59c0-5.356,0-10.538,0-16.102c5.451,0,10.771,0,16.439,0
		c0,5.252,0,10.433,0,16.102C121.345,161.59,116.026,161.59,110.04,161.59z"/>
	<path fill-rule="evenodd" clip-rule="evenodd" d="M50.526,264.388c-14.158-0.432-25.273-12.18-24.748-26.156
		c0.514-13.653,12.54-25.274,25.791-24.92c13.585,0.361,25.676,12.925,25.249,26.234C76.373,253.423,64.322,264.809,50.526,264.388z
		 M51.157,230.865c-4.859,0.002-8.262,3.282-8.341,8.041c-0.077,4.659,3.375,8.25,8.078,8.4c4.771,0.153,8.894-3.814,8.76-8.431
		C59.519,234.25,55.926,230.862,51.157,230.865z"/>
</g>
</svg>
