<?xml version="1.0" encoding="utf-8"?>
<!-- Generator: Adobe Illustrator 16.0.0, SVG Export Plug-In . SVG Version: 6.00 Build 0)  -->
<!DOCTYPE svg PUBLIC "-//W3C//DTD SVG 1.1//EN" "http://www.w3.org/Graphics/SVG/1.1/DTD/svg11.dtd">
<svg version="1.1" id="Layer_1" xmlns="http://www.w3.org/2000/svg" xmlns:xlink="http://www.w3.org/1999/xlink" x="0px" y="0px"
	 width="400px" height="400px" viewBox="0 0 400 400" enable-background="new 0 0 400 400" xml:space="preserve">
<path fill-rule="evenodd" clip-rule="evenodd" fill="#231F20" d="M374.03,354.806H25.97c-14.233,0-25.81-11.621-25.81-25.903
	V114.917c0-14.282,11.577-25.903,25.81-25.903h11.16V77.502c0-9.285,7.526-16.833,16.778-16.833h24.76
	c9.252,0,16.772,7.548,16.772,16.833v11.512h35.76l10.748-29.378c3.161-8.637,11.446-14.442,20.615-14.442h74.869
	c9.175,0,17.46,5.805,20.621,14.442L268.8,89.014h105.23c14.232,0,25.811,11.622,25.811,25.903v213.985
	C399.841,343.185,388.263,354.806,374.03,354.806z M17.366,289.47h25.48V154.35h-25.48V289.47z M79.096,77.502
	c0-0.236-0.192-0.434-0.429-0.434h-24.76c-0.236,0-0.434,0.198-0.434,0.434v11.512h25.623V77.502z M241.901,65.589
	c-0.688-1.869-2.479-3.128-4.47-3.128h-74.869c-1.984,0-3.782,1.259-4.464,3.128l-8.57,23.424h100.943L241.901,65.589z
	 M382.634,154.35h-25.48v135.12h25.48V154.35z M382.634,306.737H348.55c-4.749,0-8.604-3.87-8.604-8.637V145.719
	c0-4.766,3.854-8.631,8.604-8.631h34.084v-22.171c0-4.761-3.859-8.636-8.604-8.636H262.852c-0.017,0-0.038,0.005-0.061,0.005
	c-0.017,0-0.038-0.005-0.061-0.005H25.97c-4.744,0-8.604,3.875-8.604,8.636v22.171H51.45c4.75,0,8.603,3.865,8.603,8.631v152.382
	c0,4.767-3.854,8.637-8.603,8.637H17.366v22.165c0,4.761,3.859,8.637,8.604,8.637H374.03c4.744,0,8.604-3.87,8.604-8.637l0,0
	V306.737z M200,324.938c-56.606,0-102.658-46.216-102.658-103.026c0-56.81,46.051-103.026,102.658-103.026
	s102.658,46.216,102.658,103.026C302.658,278.723,256.606,324.938,200,324.938z M200,135.285c-47.596,0-86.314,38.861-86.314,86.627
	c0,47.762,38.718,86.623,86.314,86.623c47.591,0,86.314-38.861,86.314-86.623C286.314,174.146,247.591,135.285,200,135.285z
	 M200,286.193c-35.321,0-64.055-28.839-64.055-64.281c0-35.447,28.734-64.286,64.055-64.286c35.32,0,64.056,28.839,64.056,64.286
	C264.056,257.354,235.32,286.193,200,286.193z M200,173.167c-26.783,0-48.569,21.869-48.569,48.745
	c0,26.877,21.786,48.74,48.569,48.74c26.777,0,48.569-21.863,48.569-48.74C248.569,195.036,226.777,173.167,200,173.167z
	 M200,205.689c-8.917,0-16.167,7.279-16.167,16.223c0,4.288-3.463,7.769-7.741,7.769c-4.277,0-7.74-3.48-7.74-7.769
	c0-17.514,14.194-31.763,31.648-31.763c4.277,0,7.74,3.479,7.74,7.768C207.74,202.21,204.277,205.689,200,205.689z"/>
</svg>
