<?xml version="1.0" encoding="utf-8"?>
<!-- Generator: Adobe Illustrator 16.0.0, SVG Export Plug-In . SVG Version: 6.00 Build 0)  -->
<!DOCTYPE svg PUBLIC "-//W3C//DTD SVG 1.1//EN" "http://www.w3.org/Graphics/SVG/1.1/DTD/svg11.dtd">
<svg version="1.1" id="Layer_1" xmlns="http://www.w3.org/2000/svg" xmlns:xlink="http://www.w3.org/1999/xlink" x="0px" y="0px"
	 width="400px" height="400px" viewBox="0 0 400 400" enable-background="new 0 0 400 400" xml:space="preserve">
<path fill-rule="evenodd" clip-rule="evenodd" fill="#231F20" d="M398.543,206.388c-0.193,8.861-7.485,15.885-16.272,15.685
	c-3.281-0.074-6.316-1.146-8.81-2.917c-4.188-2.969-6.882-7.924-6.763-13.475c0.074-3.386,0.044-6.815-0.09-10.201
	c-0.342-8.854,6.503-16.31,15.283-16.659c8.794-0.35,16.197,6.548,16.547,15.402C398.595,198.255,398.633,202.348,398.543,206.388z
	 M378.424,159.602c-4.985,1.652-10.208,0.707-14.196-2.128c-2.686-1.912-4.813-4.672-5.93-8.058
	c-1.057-3.222-2.225-6.451-3.475-9.598c-3.274-8.229,0.699-17.567,8.868-20.855c8.17-3.289,17.434,0.714,20.7,8.943
	c1.487,3.743,2.887,7.589,4.144,11.421C391.296,147.734,386.772,156.804,378.424,159.602z M338.967,84.096l-54.055,4.874
	c-6.057,0.543-8.185-3.125-4.718-8.17l12.44-18.11C234.703,23.775,160.611,26.328,106.05,64.2c-0.186,0.134-0.38,0.268-0.569,0.402
	C89.997,75.45,76.109,89.133,64.633,105.539C11.854,181,29.867,285.651,104.785,338.813c5.138,3.646,10.428,6.972,15.848,9.978
	c0.015,0.008,0.034,0.015,0.045,0.022c2.954,1.622,6,3.17,9.051,4.62c0.16,0.074,0.297,0.164,0.45,0.246
	c12.954,6.116,26.614,10.506,40.852,13.08c8.657,1.563,14.416,9.896,12.861,18.623c-1.551,8.713-9.822,14.524-18.482,12.954
	c-28.534-5.156-55.108-16.354-78.97-33.288c-9.118-6.474-17.585-13.631-25.372-21.362c-0.022-0.022-0.048-0.037-0.074-0.066
	c-0.067-0.067-0.138-0.142-0.205-0.209c-28.98-28.913-48.318-66.079-55.424-107.373c-0.699-4.048-1.257-8.096-1.7-12.136
	c-0.044-0.261-0.1-0.506-0.123-0.759c-0.432-4.018-0.748-8.096-0.93-12.121c0-0.141,0.007-0.274,0-0.416
	C0.76,169.416,11.575,128.947,34,93.947c0.145-0.26,0.275-0.513,0.446-0.766c1.354-2.106,2.768-4.219,4.204-6.272
	c0.878-1.257,1.774-2.507,2.679-3.735c0.216-0.297,0.454-0.565,0.681-0.833c27.173-36.592,65.257-62.232,108.899-73.527
	c0.19-0.045,0.383-0.112,0.573-0.156c0.03-0.008,0.063-0.015,0.101-0.022c4.959-1.265,9.985-2.351,15.082-3.244
	c50.614-8.839,101.611,2.128,144.126,30.878l12.47-18.155c3.468-5.044,7.627-4.338,9.257,1.57l14.509,52.679
	C348.654,78.262,345.031,83.545,338.967,84.096z M230.611,366.611c3.311-0.61,6.637-1.34,9.911-2.158
	c8.534-2.143,17.172,3.088,19.3,11.689c2.128,8.594-3.072,17.299-11.606,19.441c-3.899,0.975-7.857,1.846-11.801,2.582
	c-4.383,0.818-8.69-0.261-12.068-2.664c-3.281-2.328-5.7-5.9-6.488-10.186C216.259,376.604,221.973,368.233,230.611,366.611z
	 M301.154,277.229c-1.994,0-4.01-0.469-5.907-1.451l-117.411-61.146V85.316c0-7.165,5.766-12.984,12.891-12.984
	c7.113,0,12.876,5.819,12.876,12.984v113.512l103.482,53.892c6.324,3.288,8.794,11.116,5.521,17.484
	C310.321,274.669,305.819,277.229,301.154,277.229z M283.647,346.916c2.916-1.696,5.818-3.505,8.623-5.372
	c7.344-4.881,17.218-2.85,22.062,4.546c4.851,7.389,2.834,17.344-4.502,22.225c-3.341,2.232-6.801,4.375-10.275,6.392
	c-5.551,3.229-12.225,2.708-17.143-0.773c-1.823-1.31-3.415-3.014-4.605-5.104C273.409,361.157,276.021,351.343,283.647,346.916z
	 M333.395,302.549c5.282-7.091,15.253-8.535,22.307-3.207c7.023,5.319,8.452,15.372,3.177,22.463
	c-2.418,3.236-4.955,6.443-7.56,9.523c-5.38,6.354-14.628,7.44-21.287,2.716c-0.395-0.283-0.781-0.58-1.161-0.908
	c-6.696-5.743-7.5-15.87-1.801-22.611C329.242,307.942,331.37,305.264,333.395,302.549z M355.819,261.507
	c1.206-3.178,2.322-6.421,3.334-9.65c2.626-8.452,11.563-13.162,19.955-10.514c8.393,2.656,13.059,11.652,10.432,20.111
	c-1.198,3.84-2.529,7.701-3.958,11.481c-3.125,8.281-12.337,12.433-20.551,9.271c-1.272-0.483-2.448-1.123-3.512-1.875
	C355.716,276.209,353.171,268.508,355.819,261.507z"/>
</svg>
