<?xml version="1.0" encoding="utf-8"?>
<!-- Generator: Adobe Illustrator 16.0.0, SVG Export Plug-In . SVG Version: 6.00 Build 0)  -->
<!DOCTYPE svg PUBLIC "-//W3C//DTD SVG 1.1//EN" "http://www.w3.org/Graphics/SVG/1.1/DTD/svg11.dtd">
<svg version="1.1" id="Layer_1" xmlns="http://www.w3.org/2000/svg" xmlns:xlink="http://www.w3.org/1999/xlink" x="0px" y="0px"
	 width="400px" height="400px" viewBox="0 0 400 400" enable-background="new 0 0 400 400" xml:space="preserve">
<g>
	<g>
		<path d="M382.465,34.733H19.011c-9.705,0-17.6,7.896-17.6,17.6v293.602c0,9.706,7.895,17.602,17.6,17.602h363.454
			c9.705,0,17.6-7.896,17.6-17.602V52.333C400.064,42.628,392.17,34.733,382.465,34.733z M382.465,345.935l-363.453,0.012
			c0,0-0.001-0.004-0.001-0.012V52.333h363.454V345.935z"/>
	</g>
</g>
<g>
	<g>
		<path d="M349.435,76.563H52.04c-4.859,0-8.8,3.941-8.8,8.801v194.5c0,4.856,3.94,8.798,8.8,8.798h297.395
			c4.859,0,8.799-3.941,8.799-8.8V85.364C358.235,80.504,354.294,76.563,349.435,76.563z M60.84,94.164h279.793V243.14
			l-55.459-55.453c-3.436-3.435-9.008-3.435-12.445,0l-33.808,33.809l-77.52-77.52c-3.436-3.434-9.007-3.435-12.444,0
			l-88.117,88.109L60.84,94.164L60.84,94.164z M60.84,271.062v-14.089l94.339-94.331l108.418,108.419H60.84z M340.636,271.063
			h-52.148v-0.002l-37.119-37.121l27.587-27.586l59.657,59.652c0.615,0.613,1.298,1.113,2.021,1.506v3.551H340.636z"/>
	</g>
</g>
<g>
	<g>
		<path d="M238.38,110.861c-18.343,0-33.27,14.925-33.27,33.269c0,18.346,14.927,33.271,33.27,33.271
			c18.345,0,33.271-14.925,33.271-33.271C271.65,125.786,256.725,110.861,238.38,110.861z M238.38,159.8
			c-8.641,0-15.669-7.028-15.669-15.67c0-8.64,7.028-15.668,15.669-15.668c8.64,0,15.67,7.028,15.67,15.668
			C254.05,152.772,247.021,159.8,238.38,159.8z"/>
	</g>
</g>
<g>
	<g>
		<path d="M128.585,308.498H52.04c-4.859,0-8.8,3.941-8.8,8.799c0,4.861,3.94,8.801,8.8,8.801h76.545c4.859,0,8.8-3.941,8.8-8.801
			C137.385,312.439,133.444,308.498,128.585,308.498z"/>
	</g>
</g>
<g>
	<g>
		<path d="M188.816,308.498H168.74c-4.86,0-8.799,3.941-8.799,8.799c0,4.859,3.939,8.801,8.799,8.801h20.076
			c4.861,0,8.801-3.941,8.801-8.801C197.617,312.439,193.676,308.498,188.816,308.498z"/>
	</g>
</g>
</svg>
