<?xml version="1.0" encoding="utf-8"?>
<!-- Generator: Adobe Illustrator 16.0.0, SVG Export Plug-In . SVG Version: 6.00 Build 0)  -->
<!DOCTYPE svg PUBLIC "-//W3C//DTD SVG 1.1//EN" "http://www.w3.org/Graphics/SVG/1.1/DTD/svg11.dtd">
<svg version="1.1" id="Layer_1" xmlns="http://www.w3.org/2000/svg" xmlns:xlink="http://www.w3.org/1999/xlink" x="0px" y="0px"
	 width="400px" height="400px" viewBox="0 0 400 400" enable-background="new 0 0 400 400" xml:space="preserve">
<path fill-rule="evenodd" clip-rule="evenodd" fill="#231F20" d="M288.457,299.406h25.436c3.508,0,6.354,2.865,6.354,6.391
	c0,3.531-2.846,6.396-6.354,6.396h-25.436c-3.514,0-6.361-2.865-6.361-6.396C282.096,302.271,284.943,299.406,288.457,299.406z
	 M288.457,239.748h25.436c3.508,0,6.354,2.859,6.354,6.391s-2.846,6.391-6.354,6.391h-25.436c-3.514,0-6.361-2.859-6.361-6.391
	S284.943,239.748,288.457,239.748z M247.771,131.261c3.365-1.014,6.904,0.908,7.912,4.286l10.488,35.203l10.117-16.967
	c1.143-1.934,3.219-3.113,5.453-3.113s4.303,1.179,5.453,3.113l10.111,16.967l10.494-35.209c1.008-3.378,4.551-5.3,7.912-4.286
	c3.367,1.014,5.277,4.575,4.264,7.959l-14.623,49.082c-0.725,2.429-2.807,4.198-5.305,4.51c-0.26,0.036-0.525,0.053-0.791,0.053
	c-2.217,0-4.291-1.167-5.453-3.113L281.742,169.5l-12.068,20.246c-1.297,2.175-3.744,3.378-6.244,3.06
	c-2.5-0.313-4.58-2.081-5.301-4.51l-14.627-49.075C242.494,135.836,244.404,132.275,247.771,131.261z M137.964,299.406h125.059
	c3.508,0,6.355,2.865,6.355,6.391c0,3.531-2.842,6.396-6.355,6.396H137.964c-3.508,0-6.356-2.865-6.356-6.396
	C131.608,302.271,134.456,299.406,137.964,299.406z M76.796,131.273c3.36-1.014,6.904,0.908,7.912,4.286l10.488,35.203
	l10.117-16.968c1.144-1.934,3.22-3.112,5.454-3.112c2.234,0,4.303,1.179,5.454,3.112l10.111,16.968l10.488-35.209
	c1.008-3.384,4.558-5.3,7.918-4.287c3.366,1.008,5.271,4.576,4.268,7.954l-14.627,49.093c-0.725,2.423-2.806,4.192-5.306,4.504
	c-2.494,0.318-4.946-0.884-6.243-3.06l-12.063-20.246l-12.069,20.246c-1.161,1.945-3.236,3.113-5.454,3.113
	c-0.259,0-0.524-0.018-0.79-0.053c-2.5-0.313-4.581-2.081-5.3-4.504l-14.627-49.082C71.52,135.848,73.43,132.287,76.796,131.273z
	 M78.618,282.361h33.912c3.514,0,6.361,2.859,6.361,6.392v34.095c0,3.531-2.848,6.391-6.361,6.391H78.618
	c-3.508,0-6.356-2.859-6.356-6.391v-34.095C72.262,285.221,75.11,282.361,78.618,282.361z M84.98,316.456h21.194v-21.313H84.98
	V316.456z M72.262,229.094c0-3.531,2.848-6.397,6.356-6.397h33.912c3.514,0,6.361,2.866,6.361,6.397v34.089
	c0,3.532-2.848,6.392-6.361,6.392H78.618c-3.508,0-6.356-2.859-6.356-6.392V229.094z M84.98,256.792h21.194v-21.307H84.98V256.792z
	 M214.561,192.812c-2.494,0.318-4.945-0.884-6.236-3.054l-12.069-20.252l-12.068,20.252c-1.156,1.939-3.237,3.106-5.454,3.106
	c-0.259,0-0.525-0.018-0.79-0.053c-2.5-0.313-4.575-2.082-5.301-4.504l-14.627-49.082c-1.008-3.384,0.902-6.951,4.269-7.959
	c3.367-1.014,6.91,0.908,7.918,4.287l10.488,35.203l10.111-16.974c1.144-1.922,3.219-3.101,5.454-3.101
	c2.234,0,4.304,1.179,5.453,3.101l10.11,16.974l10.488-35.209c1.01-3.384,4.553-5.3,7.918-4.286c3.367,1.014,5.271,4.575,4.27,7.953
	l-14.627,49.088C219.143,190.73,217.061,192.5,214.561,192.812z M269.379,246.139c0,3.531-2.842,6.391-6.355,6.391H137.964
	c-3.508,0-6.356-2.859-6.356-6.391s2.848-6.391,6.356-6.391h125.059C266.531,239.748,269.379,242.607,269.379,246.139z
	 M393.645,300.645c3.508,0,6.355,2.865,6.355,6.396v68.183c0,3.532-2.848,6.392-6.355,6.392H6.355c-3.508,0-6.355-2.859-6.355-6.392
	V25.775c0-3.531,2.848-6.391,6.355-6.391h387.289c3.508,0,6.355,2.859,6.355,6.391v255.695c0,3.532-2.848,6.392-6.355,6.392
	c-3.512,0-6.361-2.859-6.361-6.392V83.306H12.717v285.528h374.566v-61.793C387.283,303.51,390.133,300.645,393.645,300.645z
	 M260.689,70.524h126.594V32.167H260.689V70.524z M247.973,70.524V32.167H12.717v38.357H247.973z M358.186,58.167
	c-3.742,0-6.785-3.06-6.785-6.821c0-3.762,3.043-6.815,6.785-6.815c3.738,0,6.781,3.054,6.781,6.815
	C364.967,55.106,361.924,58.167,358.186,58.167z M323.426,58.167c-3.738,0-6.779-3.06-6.779-6.821c0-3.762,3.041-6.815,6.779-6.815
	s6.779,3.054,6.779,6.815C330.205,55.106,327.164,58.167,323.426,58.167z M288.664,58.167c-3.738,0-6.779-3.06-6.779-6.821
	c0-3.762,3.041-6.815,6.779-6.815c3.744,0,6.787,3.054,6.787,6.815C295.451,55.106,292.408,58.167,288.664,58.167z"/>
</svg>
